{
classes = (
{
automatic = 1;
code = "A Aacute Abreve Acircumflex Adieresis Agrave Amacron Aogonek Aring Aringacute Atilde AE AEacute B C Cacute Ccaron Ccedilla Ccircumflex Cdotaccent D Eth Dcaron Dcroat E Eacute Ebreve Ecaron Ecircumflex Edieresis Edotaccent Egrave Emacron Eogonek F G Gbreve Gcircumflex Gcommaaccent Gdotaccent H Hbar Hcircumflex I IJ Iacute Ibreve Icircumflex Idieresis Idotaccent Igrave Imacron Iogonek Itilde J Jcircumflex K Kcommaaccent L Lacute Lcaron Lcommaaccent Ldot Lslash M N Nacute Ncaron Ncommaaccent Eng Ntilde O Oacute Obreve Ocircumflex Odieresis Ograve Ohungarumlaut Omacron Oslash Oslashacute Otilde OE P Thorn Q R Racute Rcaron Rcommaaccent S Sacute Scaron Scedilla Scircumflex Scommaaccent T Tbar Tcaron Tcedilla Tcommaaccent U Uacute Ubreve Ucircumflex Udieresis Ugrave Uhungarumlaut Umacron Uogonek Uring Utilde V W Wacute Wcircumflex Wdieresis Wgrave X Y Yacute Ycircumflex Ydieresis Ygrave Z Zacute Zcaron Zdotaccent A-cy Be-cy Ve-cy Ge-cy Gje-cy Gheupturn-cy De-cy Ie-cy Iegrave-cy Io-cy Zhe-cy Ze-cy Ii-cy Iishort-cy Iigrave-cy Ka-cy Kje-cy El-cy Em-cy En-cy O-cy Pe-cy Er-cy Es-cy Te-cy U-cy Ushort-cy Ef-cy Ha-cy Che-cy Tse-cy Sha-cy Shcha-cy Dzhe-cy Ia-cy Softsign-cy Hardsign-cy Yeru-cy Lje-cy Nje-cy Dze-cy E-cy Ereversed-cy I-cy Yi-cy Je-cy Tshe-cy Iu-cy Dje-cy Ustraitstroke-cy Gamma Delta Pi Omega";
name = Uppercase;
}
);
copyright = "Copyright (c) 2011-2013, Sol Matas (www.huertatipografica.com.ar), with Reserved Font Name \"Bitter\".";
customParameters = (
{
name = openTypeNameLicenseURL;
value = "http://scripts.sil.org/OFL";
},
{
name = trademark;
value = "Bitter is a trademark of Sol Matas (www.huertatipografica.com.ar).";
},
{
name = openTypeNameLicense;
value = "This Font Software is licensed under the SIL Open Font License, Version 1.1. This license is available with a FAQ at: http://scripts.sil.org/OFL";
}
);
date = "2013-05-19 21:02:16 +0000";
designer = "Sol Matas";
designerURL = www.huertatipografica.com.ar;

glyphs = (
{
glyphname = A;
lastChange = "2014-11-10 22:18:22 +0100";
layers = (
{
layerId = "DAACF28A-601E-43F2-B3A2-D78749C87D22";
name = Bold;
paths = (
{
closed = 1;
nodes = (
"458 705 LINE",
"298 702 LINE",
"78 113 LINE",
"5 85 LINE",
"5 0 LINE",
"307 0 LINE",
"307 85 LINE",
"229 113 LINE",
"254 185 LINE",
"476 185 LINE",
"500 112 LINE",
"425 85 LINE",
"425 0 LINE",
"743 0 LINE",
"743 85 LINE",
"673 113 LINE"
);
},
{
closed = 1;
nodes = (
"368 529 LINE",
"443 292 LINE",
"289 292 LINE"
);
}
);
width = 748;
}
);
leftKerningGroup = A;
rightKerningGroup = A;
unicode = 0041;
},
{
glyphname = Acircumflex;
lastChange = "2014-11-10 22:18:22 +0100";
layers = (
{
components = (
{
name = A;
transform = "{1, 0, 0, 1, 0, 0}";
}
);
layerId = "DAACF28A-601E-43F2-B3A2-D78749C87D22";
name = Bold;
paths = (
{
closed = 1;
nodes = (
"385 840 LINE",
"536 742 LINE",
"584 808 LINE",
"422 947 LINE",
"333 939 LINE",
"180 808 LINE",
"228 742 LINE"
);
}
);
width = 758;
}
);
leftKerningGroup = A;
rightKerningGroup = A;
unicode = 00C2;
},
{
glyphname = Aogonek;
lastChange = "2014-11-10 22:18:22 +0100";
layers = (
{
components = (
{
name = A;
transform = "{1, 0, 0, 1, 0, 0}";
}
);
layerId = "DAACF28A-601E-43F2-B3A2-D78749C87D22";
name = Bold;
paths = (
{
closed = 1;
nodes = (
"590 -51 OFFCURVE",
"743 0 OFFCURVE",
"743 0 CURVE",
"611 3 LINE",
"611 3 OFFCURVE",
"475 -46 OFFCURVE",
"475 -135 CURVE SMOOTH",
"475 -203 OFFCURVE",
"525 -235 OFFCURVE",
"585 -235 CURVE SMOOTH",
"640 -235 OFFCURVE",
"687 -210 OFFCURVE",
"687 -210 CURVE",
"670 -140 LINE",
"670 -140 OFFCURVE",
"644 -146 OFFCURVE",
"627 -146 CURVE SMOOTH",
"606 -146 OFFCURVE",
"590 -134 OFFCURVE",
"590 -110 CURVE SMOOTH"
);
}
);
width = 758;
}
);
leftKerningGroup = A;
rightKerningGroup = A;
unicode = 0104;
},
{
glyphname = Atilde;
lastChange = "2014-11-10 22:18:22 +0100";
layers = (
{
components = (
{
name = A;
transform = "{1, 0, 0, 1, 0, 0}";
}
);
guideLines = (
{
position = "{611, 926}";
}
);
layerId = "DAACF28A-601E-43F2-B3A2-D78749C87D22";
name = Bold;
paths = (
{
closed = 1;
nodes = (
"228 777 LINE",
"228 777 OFFCURVE",
"258 815 OFFCURVE",
"300 815 CURVE SMOOTH",
"360 815 OFFCURVE",
"398 776 OFFCURVE",
"468 776 CURVE SMOOTH",
"551 776 OFFCURVE",
"603 880 OFFCURVE",
"603 880 CURVE",
"548 922 LINE",
"548 922 OFFCURVE",
"518 880 OFFCURVE",
"479 880 CURVE SMOOTH",
"419 880 OFFCURVE",
"375 926 OFFCURVE",
"305 926 CURVE SMOOTH",
"222 926 OFFCURVE",
"180 816 OFFCURVE",
"180 816 CURVE"
);
}
);
width = 758;
}
);
leftKerningGroup = A;
rightKerningGroup = A;
unicode = 00C3;
},
{
glyphname = AE;
lastChange = "2014-11-10 22:18:22 +0100";
layers = (
{
layerId = "DAACF28A-601E-43F2-B3A2-D78749C87D22";
name = Bold;
paths = (
{
closed = 1;
nodes = (
"629 585 LINE",
"791 585 LINE",
"816 510 LINE",
"909 510 LINE",
"909 705 LINE",
"424 705 LINE",
"233 700 LINE",
"233 615 LINE",
"318 585 LINE",
"89 115 LINE",
"5 85 LINE",
"5 0 LINE",
"303 0 LINE",
"303 85 LINE",
"242 111 LINE",
"281 192 LINE",
"474 192 LINE",
"474 115 LINE",
"400 85 LINE",
"400 0 LINE",
"921 0 LINE",
"921 202 LINE",
"829 202 LINE",
"806 120 LINE",
"629 120 LINE",
"629 310 LINE",
"831 310 LINE",
"831 420 LINE",
"629 420 LINE"
);
},
{
closed = 1;
nodes = (
"474 300 LINE",
"328 300 LINE",
"460 585 LINE",
"474 585 LINE"
);
}
);
width = 971;
}
);
leftKerningGroup = A;
rightKerningGroup = E;
unicode = 00C6;
},
{
glyphname = B;
lastChange = "2014-11-10 22:18:22 +0100";
layers = (
{
layerId = "DAACF28A-601E-43F2-B3A2-D78749C87D22";
name = Bold;
paths = (
{
closed = 1;
nodes = (
"265 705 LINE",
"35 700 LINE",
"35 615 LINE",
"110 585 LINE",
"110 115 LINE",
"35 85 LINE",
"35 0 LINE",
"353 0 LINE SMOOTH",
"515 0 OFFCURVE",
"613 60 OFFCURVE",
"613 207 CURVE SMOOTH",
"613 284 OFFCURVE",
"564 340 OFFCURVE",
"470 367 CURVE",
"549 392 OFFCURVE",
"590 445 OFFCURVE",
"590 532 CURVE SMOOTH",
"590 650 OFFCURVE",
"500 705 OFFCURVE",
"370 705 CURVE SMOOTH"
);
},
{
closed = 1;
nodes = (
"323 312 LINE",
"413 312 OFFCURVE",
"455 280 OFFCURVE",
"455 207 CURVE SMOOTH",
"455 152 OFFCURVE",
"418 120 OFFCURVE",
"348 120 CURVE SMOOTH",
"265 120 LINE",
"265 312 LINE"
);
},
{
closed = 1;
nodes = (
"265 585 LINE",
"350 585 LINE SMOOTH",
"398 585 OFFCURVE",
"435 562 OFFCURVE",
"435 510 CURVE SMOOTH",
"435 448 OFFCURVE",
"396 417 OFFCURVE",
"323 417 CURVE SMOOTH",
"265 417 LINE"
);
}
);
width = 658;
}
);
rightKerningGroup = B;
unicode = 0042;
},
{
glyphname = C;
lastChange = "2014-11-10 22:18:22 +0100";
layers = (
{
layerId = "DAACF28A-601E-43F2-B3A2-D78749C87D22";
name = Bold;
paths = (
{
closed = 1;
nodes = (
"522 480 LINE",
"620 480 LINE",
"625 670 LINE",
"625 670 OFFCURVE",
"513 717 OFFCURVE",
"392 717 CURVE SMOOTH",
"187 717 OFFCURVE",
"55 577 OFFCURVE",
"55 342 CURVE SMOOTH",
"55 110 OFFCURVE",
"172 -12 OFFCURVE",
"375 -12 CURVE SMOOTH",
"532 -12 OFFCURVE",
"637 97 OFFCURVE",
"637 97 CURVE",
"582 187 LINE",
"582 187 OFFCURVE",
"492 117 OFFCURVE",
"392 117 CURVE SMOOTH",
"287 117 OFFCURVE",
"222 185 OFFCURVE",
"222 347 CURVE SMOOTH",
"222 514 OFFCURVE",
"282 592 OFFCURVE",
"387 592 CURVE SMOOTH",
"452 592 OFFCURVE",
"499 576 OFFCURVE",
"499 576 CURVE"
);
}
);
width = 667;
}
);
leftKerningGroup = O;
rightKerningGroup = C;
unicode = 0043;
},
{
glyphname = Ccedilla;
lastChange = "2014-11-10 22:18:22 +0100";
layers = (
{
layerId = "DAACF28A-601E-43F2-B3A2-D78749C87D22";
name = Bold;
paths = (
{
closed = 1;
nodes = (
"582 187 LINE",
"582 187 OFFCURVE",
"492 117 OFFCURVE",
"392 117 CURVE SMOOTH",
"287 117 OFFCURVE",
"222 185 OFFCURVE",
"222 347 CURVE SMOOTH",
"222 514 OFFCURVE",
"282 592 OFFCURVE",
"387 592 CURVE SMOOTH",
"452 592 OFFCURVE",
"499 576 OFFCURVE",
"499 576 CURVE",
"522 480 LINE",
"620 480 LINE",
"625 670 LINE",
"625 670 OFFCURVE",
"513 717 OFFCURVE",
"392 717 CURVE SMOOTH",
"187 717 OFFCURVE",
"55 577 OFFCURVE",
"55 342 CURVE SMOOTH",
"55 123 OFFCURVE",
"159 2 OFFCURVE",
"340 -10 CURVE",
"340 -87 LINE",
"389 -87 OFFCURVE",
"422 -101 OFFCURVE",
"422 -130 CURVE SMOOTH",
"422 -152 OFFCURVE",
"404 -167 OFFCURVE",
"376 -167 CURVE SMOOTH",
"336 -167 OFFCURVE",
"294 -144 OFFCURVE",
"294 -144 CURVE",
"262 -200 LINE",
"262 -200 OFFCURVE",
"319 -234 OFFCURVE",
"387 -234 CURVE SMOOTH",
"459 -234 OFFCURVE",
"513 -193 OFFCURVE",
"513 -134 CURVE SMOOTH",
"513 -84 OFFCURVE",
"479 -54 OFFCURVE",
"428 -44 CURVE",
"428 -8 LINE",
"555 12 OFFCURVE",
"637 97 OFFCURVE",
"637 97 CURVE"
);
}
);
width = 667;
}
);
leftKerningGroup = O;
rightKerningGroup = C;
unicode = 00C7;
},
{
glyphname = D;
lastChange = "2014-11-10 22:18:22 +0100";
layers = (
{
layerId = "DAACF28A-601E-43F2-B3A2-D78749C87D22";
name = Bold;
paths = (
{
closed = 1;
nodes = (
"40 0 LINE",
"350 0 LINE SMOOTH",
"553 0 OFFCURVE",
"683 137 OFFCURVE",
"683 362 CURVE SMOOTH",
"683 587 OFFCURVE",
"565 705 OFFCURVE",
"365 705 CURVE SMOOTH",
"270 705 LINE",
"40 700 LINE",
"40 615 LINE",
"115 585 LINE",
"115 115 LINE",
"40 85 LINE"
);
},
{
closed = 1;
nodes = (
"270 585 LINE",
"360 585 LINE SMOOTH",
"458 585 OFFCURVE",
"515 525 OFFCURVE",
"515 357 CURVE SMOOTH",
"515 177 OFFCURVE",
"450 120 OFFCURVE",
"353 120 CURVE SMOOTH",
"270 120 LINE"
);
}
);
width = 733;
}
);
leftKerningGroup = H;
rightKerningGroup = O;
unicode = 0044;
},
{
glyphname = Eth;
lastChange = "2014-11-10 22:18:22 +0100";
layers = (
{
layerId = "DAACF28A-601E-43F2-B3A2-D78749C87D22";
name = Bold;
paths = (
{
closed = 1;
nodes = (
"47 312 LINE",
"115 312 LINE",
"115 115 LINE",
"40 85 LINE",
"40 0 LINE",
"354 0 LINE SMOOTH",
"556 0 OFFCURVE",
"686 137 OFFCURVE",
"686 362 CURVE SMOOTH",
"686 587 OFFCURVE",
"569 705 OFFCURVE",
"369 705 CURVE SMOOTH",
"270 705 LINE",
"40 700 LINE",
"40 615 LINE",
"115 585 LINE",
"115 422 LINE",
"47 422 LINE"
);
},
{
closed = 1;
nodes = (
"269 585 LINE",
"364 585 LINE SMOOTH",
"461 585 OFFCURVE",
"519 525 OFFCURVE",
"519 357 CURVE SMOOTH",
"519 177 OFFCURVE",
"454 120 OFFCURVE",
"356 120 CURVE SMOOTH",
"269 120 LINE",
"269 312 LINE",
"390 312 LINE",
"390 422 LINE",
"269 422 LINE"
);
}
);
width = 741;
}
);
leftKerningGroup = H;
rightKerningGroup = O;
unicode = 00D0;
},
{
glyphname = Dcroat;
lastChange = "2014-11-10 22:18:22 +0100";
layers = (
{
guideLines = (
{
angle = 90;
position = "{57, 484}";
}
);
layerId = "DAACF28A-601E-43F2-B3A2-D78749C87D22";
name = Bold;
paths = (
{
closed = 1;
nodes = (
"47 312 LINE",
"115 312 LINE",
"115 115 LINE",
"40 85 LINE",
"40 0 LINE",
"354 0 LINE SMOOTH",
"556 0 OFFCURVE",
"686 137 OFFCURVE",
"686 362 CURVE SMOOTH",
"686 587 OFFCURVE",
"569 705 OFFCURVE",
"369 705 CURVE SMOOTH",
"270 705 LINE",
"40 700 LINE",
"40 615 LINE",
"115 585 LINE",
"115 422 LINE",
"47 422 LINE"
);
},
{
closed = 1;
nodes = (
"269 585 LINE",
"364 585 LINE SMOOTH",
"461 585 OFFCURVE",
"519 525 OFFCURVE",
"519 357 CURVE SMOOTH",
"519 177 OFFCURVE",
"454 120 OFFCURVE",
"356 120 CURVE SMOOTH",
"269 120 LINE",
"269 312 LINE",
"390 312 LINE",
"390 422 LINE",
"269 422 LINE"
);
}
);
width = 741;
}
);
leftKerningGroup = H;
rightKerningGroup = O;
unicode = 0110;
},
{
glyphname = E;
lastChange = "2014-11-10 22:18:22 +0100";
layers = (
{
layerId = "DAACF28A-601E-43F2-B3A2-D78749C87D22";
name = Bold;
paths = (
{
closed = 1;
nodes = (
"275 585 LINE",
"440 585 LINE",
"465 512 LINE",
"555 512 LINE",
"555 705 LINE",
"275 705 LINE",
"45 700 LINE",
"45 615 LINE",
"120 585 LINE",
"120 115 LINE",
"45 85 LINE",
"45 0 LINE",
"567 0 LINE",
"567 202 LINE",
"477 202 LINE",
"454 120 LINE",
"275 120 LINE",
"275 310 LINE",
"477 310 LINE",
"477 420 LINE",
"275 420 LINE"
);
}
);
width = 622;
}
);
leftKerningGroup = E;
rightKerningGroup = E;
unicode = 0045;
},
{
glyphname = F;
lastChange = "2014-11-10 22:18:22 +0100";
layers = (
{
layerId = "DAACF28A-601E-43F2-B3A2-D78749C87D22";
name = Bold;
paths = (
{
closed = 1;
nodes = (
"367 85 LINE",
"275 115 LINE",
"275 300 LINE",
"482 300 LINE",
"482 410 LINE",
"275 410 LINE",
"275 585 LINE",
"437 585 LINE",
"462 515 LINE",
"555 515 LINE",
"555 705 LINE",
"275 705 LINE",
"45 700 LINE",
"45 615 LINE",
"120 585 LINE",
"120 115 LINE",
"45 85 LINE",
"45 0 LINE",
"367 0 LINE"
);
}
);
width = 580;
}
);
leftKerningGroup = H;
rightKerningGroup = F;
unicode = 0046;
},
{
glyphname = G;
lastChange = "2014-11-10 22:18:22 +0100";
layers = (
{
layerId = "DAACF28A-601E-43F2-B3A2-D78749C87D22";
name = Bold;
paths = (
{
closed = 1;
nodes = (
"527 490 LINE",
"620 490 LINE",
"625 670 LINE",
"625 670 OFFCURVE",
"513 717 OFFCURVE",
"392 717 CURVE SMOOTH",
"187 717 OFFCURVE",
"55 577 OFFCURVE",
"55 342 CURVE SMOOTH",
"55 110 OFFCURVE",
"172 -12 OFFCURVE",
"375 -12 CURVE SMOOTH",
"544 -12 OFFCURVE",
"647 55 OFFCURVE",
"647 55 CURVE",
"647 259 LINE",
"715 282 LINE",
"715 369 LINE",
"427 364 LINE",
"427 282 LINE",
"502 259 LINE",
"502 133 LINE",
"502 133 OFFCURVE",
"444 115 OFFCURVE",
"392 115 CURVE SMOOTH",
"285 115 OFFCURVE",
"222 185 OFFCURVE",
"222 347 CURVE SMOOTH",
"222 514 OFFCURVE",
"282 592 OFFCURVE",
"389 592 CURVE SMOOTH",
"455 592 OFFCURVE",
"502 576 OFFCURVE",
"502 576 CURVE"
);
}
);
width = 750;
}
);
leftKerningGroup = O;
rightKerningGroup = G;
unicode = 0047;
},
{
glyphname = H;
lastChange = "2014-11-10 22:18:22 +0100";
layers = (
{
layerId = "DAACF28A-601E-43F2-B3A2-D78749C87D22";
name = Bold;
paths = (
{
closed = 1;
nodes = (
"345 85 LINE",
"265 115 LINE",
"265 305 LINE",
"527 305 LINE",
"527 115 LINE",
"447 85 LINE",
"447 0 LINE",
"757 0 LINE",
"757 85 LINE",
"682 115 LINE",
"682 585 LINE",
"757 615 LINE",
"757 705 LINE",
"447 700 LINE",
"447 615 LINE",
"527 585 LINE",
"527 425 LINE",
"265 425 LINE",
"265 585 LINE",
"345 615 LINE",
"345 705 LINE",
"35 700 LINE",
"35 615 LINE",
"110 585 LINE",
"110 115 LINE",
"35 85 LINE",
"35 0 LINE",
"345 0 LINE"
);
}
);
width = 792;
}
);
unicode = 0048;
},
{
glyphname = Hbar;
lastChange = "2014-11-10 22:18:22 +0100";
layers = (
{
guideLines = (
{
angle = 90;
position = "{35, 570}";
},
{
angle = 90;
position = "{757, 658}";
}
);
layerId = "DAACF28A-601E-43F2-B3A2-D78749C87D22";
name = Bold;
paths = (
{
closed = 1;
nodes = (
"342 85 LINE",
"265 115 LINE",
"265 295 LINE",
"527 295 LINE",
"527 115 LINE",
"450 85 LINE",
"450 0 LINE",
"757 0 LINE",
"757 85 LINE",
"682 115 LINE",
"682 585 LINE",
"757 615 LINE",
"757 705 LINE",
"450 700 LINE",
"450 617 LINE",
"527 587 LINE",
"527 412 LINE",
"265 412 LINE",
"265 587 LINE",
"342 617 LINE",
"342 705 LINE",
"35 700 LINE",
"35 615 LINE",
"110 585 LINE",
"110 115 LINE",
"35 85 LINE",
"35 0 LINE",
"342 0 LINE"
);
},
{
closed = 1;
nodes = (
"35 465 LINE",
"757 465 LINE",
"757 555 LINE",
"35 555 LINE"
);
}
);
width = 792;
}
);
leftKerningGroup = H;
rightKerningGroup = H;
unicode = 0126;
},
{
glyphname = I;
lastChange = "2014-11-10 22:18:22 +0100";
layers = (
{
layerId = "DAACF28A-601E-43F2-B3A2-D78749C87D22";
name = Bold;
paths = (
{
closed = 1;
nodes = (
"345 85 LINE",
"270 115 LINE",
"270 585 LINE",
"345 615 LINE",
"345 705 LINE",
"40 700 LINE",
"40 615 LINE",
"115 585 LINE",
"115 115 LINE",
"40 85 LINE",
"40 0 LINE",
"345 0 LINE"
);
}
);
width = 385;
}
);
leftKerningGroup = I;
rightKerningGroup = I;
unicode = 0049;
},
{
glyphname = Idieresis;
lastChange = "2014-11-10 22:18:22 +0100";
layers = (
{
components = (
{
name = I;
transform = "{1, 0, 0, 1, 14, 0}";
}
);
layerId = "DAACF28A-601E-43F2-B3A2-D78749C87D22";
name = Bold;
paths = (
{
closed = 1;
nodes = (
"26 797 OFFCURVE",
"51 769 OFFCURVE",
"98 769 CURVE SMOOTH",
"137 769 OFFCURVE",
"172 797 OFFCURVE",
"172 847 CURVE SMOOTH",
"172 896 OFFCURVE",
"147 925 OFFCURVE",
"100 925 CURVE SMOOTH",
"61 925 OFFCURVE",
"26 896 OFFCURVE",
"26 847 CURVE SMOOTH"
);
},
{
closed = 1;
nodes = (
"234 797 OFFCURVE",
"259 769 OFFCURVE",
"306 769 CURVE SMOOTH",
"345 769 OFFCURVE",
"380 797 OFFCURVE",
"380 847 CURVE SMOOTH",
"380 896 OFFCURVE",
"356 925 OFFCURVE",
"308 925 CURVE SMOOTH",
"270 925 OFFCURVE",
"234 896 OFFCURVE",
"234 847 CURVE SMOOTH"
);
}
);
width = 404;
}
);
leftKerningGroup = I;
rightKerningGroup = I;
unicode = 00CF;
},
{
glyphname = Iogonek;
lastChange = "2014-11-10 22:18:22 +0100";
layers = (
{
components = (
{
name = I;
transform = "{1, 0, 0, 1, 0, 0}";
}
);
layerId = "DAACF28A-601E-43F2-B3A2-D78749C87D22";
name = Bold;
paths = (
{
closed = 1;
nodes = (
"199 -66 OFFCURVE",
"292 -23 OFFCURVE",
"345 0 CURVE",
"207 3 LINE",
"207 3 OFFCURVE",
"84 -46 OFFCURVE",
"84 -135 CURVE SMOOTH",
"84 -203 OFFCURVE",
"134 -235 OFFCURVE",
"194 -235 CURVE SMOOTH",
"249 -235 OFFCURVE",
"296 -210 OFFCURVE",
"296 -210 CURVE",
"279 -140 LINE",
"279 -140 OFFCURVE",
"253 -146 OFFCURVE",
"236 -146 CURVE SMOOTH",
"215 -146 OFFCURVE",
"199 -134 OFFCURVE",
"199 -110 CURVE SMOOTH"
);
}
);
width = 375;
}
);
leftKerningGroup = I;
rightKerningGroup = I;
unicode = 012E;
},
{
glyphname = Itilde;
lastChange = "2014-11-10 22:18:22 +0100";
layers = (
{
components = (
{
name = I;
transform = "{1, 0, 0, 1, 0, 0}";
}
);
layerId = "DAACF28A-601E-43F2-B3A2-D78749C87D22";
name = Bold;
paths = (
{
closed = 1;
nodes = (
"25 777 LINE",
"25 777 OFFCURVE",
"55 815 OFFCURVE",
"97 815 CURVE SMOOTH",
"157 815 OFFCURVE",
"195 776 OFFCURVE",
"265 776 CURVE SMOOTH",
"348 776 OFFCURVE",
"400 880 OFFCURVE",
"400 880 CURVE",
"345 922 LINE",
"345 922 OFFCURVE",
"315 880 OFFCURVE",
"276 880 CURVE SMOOTH",
"216 880 OFFCURVE",
"172 926 OFFCURVE",
"102 926 CURVE SMOOTH",
"19 926 OFFCURVE",
"-23 816 OFFCURVE",
"-23 816 CURVE"
);
}
);
width = 375;
}
);
leftKerningGroup = I;
rightKerningGroup = I;
unicode = 0128;
},
{
glyphname = J;
lastChange = "2014-11-10 22:18:22 +0100";
layers = (
{
layerId = "DAACF28A-601E-43F2-B3A2-D78749C87D22";
name = Bold;
paths = (
{
closed = 1;
nodes = (
"274 585 LINE",
"349 615 LINE",
"349 705 LINE",
"44 700 LINE",
"44 615 LINE",
"119 585 LINE",
"119 46 LINE SMOOTH",
"119 -17 OFFCURVE",
"91 -50 OFFCURVE",
"31 -50 CURVE SMOOTH",
"-17 -50 LINE",
"-30 -153 LINE",
"-30 -153 OFFCURVE",
"14 -160 OFFCURVE",
"46 -160 CURVE SMOOTH",
"222 -160 OFFCURVE",
"274 -68 OFFCURVE",
"274 106 CURVE SMOOTH"
);
}
);
width = 384;
}
);
leftKerningGroup = J;
rightKerningGroup = J;
unicode = 004A;
},
{
glyphname = K;
lastChange = "2014-11-10 22:18:22 +0100";
layers = (
{
layerId = "DAACF28A-601E-43F2-B3A2-D78749C87D22";
name = Bold;
paths = (
{
closed = 1;
nodes = (
"340 85 LINE",
"265 115 LINE",
"265 305 LINE",
"338 305 LINE",
"475 115 LINE",
"415 85 LINE",
"415 0 LINE",
"720 0 LINE",
"720 85 LINE",
"645 115 LINE",
"459 371 LINE",
"590 589 LINE",
"685 617 LINE",
"685 705 LINE",
"500 700 LINE",
"333 415 LINE",
"265 415 LINE",
"265 587 LINE",
"340 617 LINE",
"340 705 LINE",
"35 700 LINE",
"35 617 LINE",
"110 587 LINE",
"110 115 LINE",
"35 85 LINE",
"35 0 LINE",
"340 0 LINE"
);
}
);
width = 720;
}
);
rightKerningGroup = K;
unicode = 004B;
},
{
glyphname = L;
lastChange = "2014-11-10 22:18:22 +0100";
layers = (
{
layerId = "DAACF28A-601E-43F2-B3A2-D78749C87D22";
name = Bold;
paths = (
{
closed = 1;
nodes = (
"260 585 LINE",
"335 615 LINE",
"335 705 LINE",
"30 700 LINE",
"30 615 LINE",
"105 585 LINE",
"105 115 LINE",
"30 85 LINE",
"30 0 LINE",
"530 0 LINE",
"530 230 LINE",
"435 230 LINE",
"413 120 LINE",
"260 120 LINE"
);
}
);
width = 540;
}
);
leftKerningGroup = H;
rightKerningGroup = L;
unicode = 004C;
},
{
glyphname = Lcaron;
lastChange = "2014-11-10 22:18:22 +0100";
layers = (
{
components = (
{
name = L;
transform = "{1, 0, 0, 1, 0, 0}";
}
);
layerId = "DAACF28A-601E-43F2-B3A2-D78749C87D22";
name = Bold;
paths = (
{
closed = 1;
nodes = (
"451 420 LINE",
"503 524 OFFCURVE",
"534 630 OFFCURVE",
"535 705 CURVE",
"404 700 LINE",
"407 626 OFFCURVE",
"399 546 OFFCURVE",
"371 448 CURVE"
);
}
);
width = 545;
}
);
leftKerningGroup = H;
unicode = 013D;
},
{
glyphname = Lslash;
lastChange = "2014-11-10 22:18:22 +0100";
layers = (
{
layerId = "DAACF28A-601E-43F2-B3A2-D78749C87D22";
name = Bold;
paths = (
{
closed = 1;
nodes = (
"284 585 LINE",
"359 615 LINE",
"359 705 LINE",
"54 700 LINE",
"54 615 LINE",
"129 585 LINE",
"129 375 LINE",
"20 327 LINE",
"52 220 LINE",
"129 254 LINE",
"129 115 LINE",
"54 85 LINE",
"54 0 LINE",
"554 0 LINE",
"554 230 LINE",
"459 230 LINE",
"437 120 LINE",
"284 120 LINE",
"284 317 LINE",
"453 392 LINE",
"421 499 LINE",
"284 438 LINE"
);
}
);
width = 564;
}
);
leftKerningGroup = H;
rightKerningGroup = L;
unicode = 0141;
},
{
glyphname = M;
lastChange = "2014-11-10 22:18:22 +0100";
layers = (
{
layerId = "DAACF28A-601E-43F2-B3A2-D78749C87D22";
name = Bold;
paths = (
{
closed = 1;
nodes = (
"320 85 LINE",
"243 115 LINE",
"243 474 LINE",
"260 422 LINE",
"375 185 LINE",
"483 190 LINE",
"596 425 LINE",
"623 491 LINE",
"623 115 LINE",
"545 85 LINE",
"545 0 LINE",
"843 0 LINE",
"843 85 LINE",
"768 115 LINE",
"768 585 LINE",
"840 615 LINE",
"840 705 LINE",
"600 700 LINE",
"443 372 LINE",
"293 705 LINE",
"35 700 LINE",
"35 615 LINE",
"110 585 LINE",
"110 115 LINE",
"35 85 LINE",
"35 0 LINE",
"320 0 LINE"
);
}
);
width = 878;
}
);
leftKerningGroup = H;
rightKerningGroup = H;
unicode = 004D;
},
{
glyphname = N;
lastChange = "2014-11-10 22:18:22 +0100";
layers = (
{
layerId = "DAACF28A-601E-43F2-B3A2-D78749C87D22";
name = Bold;
paths = (
{
closed = 1;
nodes = (
"325 85 LINE",
"247 115 LINE",
"247 453 LINE",
"515 0 LINE",
"682 0 LINE",
"682 585 LINE",
"757 615 LINE",
"757 705 LINE",
"472 700 LINE",
"472 615 LINE",
"545 585 LINE",
"545 243 LINE",
"275 705 LINE",
"35 700 LINE",
"35 615 LINE",
"110 585 LINE",
"110 115 LINE",
"35 85 LINE",
"35 0 LINE",
"325 0 LINE"
);
}
);
width = 787;
}
);
leftKerningGroup = H;
rightKerningGroup = H;
unicode = 004E;
},
{
glyphname = Eng;
lastChange = "2014-11-10 22:18:22 +0100";
layers = (
{
layerId = "DAACF28A-601E-43F2-B3A2-D78749C87D22";
name = Bold;
paths = (
{
closed = 1;
nodes = (
"472 700 LINE",
"472 615 LINE",
"545 585 LINE",
"545 236 LINE",
"275 705 LINE",
"35 700 LINE",
"35 615 LINE",
"110 585 LINE",
"110 115 LINE",
"35 85 LINE",
"35 0 LINE",
"325 0 LINE",
"325 85 LINE",
"247 115 LINE",
"247 453 LINE",
"534 -13 LINE",
"520 -38 OFFCURVE",
"492.688 -50 OFFCURVE",
"446 -50 CURVE SMOOTH",
"391 -50 LINE",
"378 -150 LINE",
"378 -150 OFFCURVE",
"422 -157 OFFCURVE",
"454 -157 CURVE SMOOTH",
"630 -157 OFFCURVE",
"682 -68 OFFCURVE",
"682 106 CURVE SMOOTH",
"682 585 LINE",
"757 615 LINE",
"757 705 LINE"
);
}
);
width = 792;
}
);
leftKerningGroup = H;
rightKerningGroup = J;
unicode = 014A;
},
{
glyphname = Ntilde;
lastChange = "2014-11-10 22:18:22 +0100";
layers = (
{
components = (
{
name = N;
transform = "{1, 0, 0, 1, 0, 0}";
}
);
layerId = "DAACF28A-601E-43F2-B3A2-D78749C87D22";
name = Bold;
paths = (
{
closed = 1;
nodes = (
"230 777 LINE",
"230 777 OFFCURVE",
"260 815 OFFCURVE",
"302 815 CURVE SMOOTH",
"362 815 OFFCURVE",
"400 776 OFFCURVE",
"470 776 CURVE SMOOTH",
"553 776 OFFCURVE",
"605 880 OFFCURVE",
"605 880 CURVE",
"550 922 LINE",
"550 922 OFFCURVE",
"520 880 OFFCURVE",
"481 880 CURVE SMOOTH",
"421 880 OFFCURVE",
"377 926 OFFCURVE",
"307 926 CURVE SMOOTH",
"224 926 OFFCURVE",
"182 816 OFFCURVE",
"182 816 CURVE"
);
}
);
width = 785;
}
);
leftKerningGroup = N;
rightKerningGroup = N;
unicode = 00D1;
},
{
glyphname = O;
lastChange = "2014-11-10 22:18:22 +0100";
layers = (
{
layerId = "DAACF28A-601E-43F2-B3A2-D78749C87D22";
name = Bold;
paths = (
{
closed = 1;
nodes = (
"182 717 OFFCURVE",
"55 577 OFFCURVE",
"55 347 CURVE SMOOTH",
"55 112 OFFCURVE",
"165 -13 OFFCURVE",
"365 -13 CURVE SMOOTH",
"565 -13 OFFCURVE",
"700 137 OFFCURVE",
"700 362 CURVE SMOOTH",
"700 585 OFFCURVE",
"585 717 OFFCURVE",
"385 717 CURVE SMOOTH"
);
},
{
closed = 1;
nodes = (
"480 592 OFFCURVE",
"530 522 OFFCURVE",
"530 357 CURVE SMOOTH",
"530 177 OFFCURVE",
"470 112 OFFCURVE",
"370 112 CURVE SMOOTH",
"270 112 OFFCURVE",
"225 187 OFFCURVE",
"225 352 CURVE SMOOTH",
"225 530 OFFCURVE",
"280 592 OFFCURVE",
"380 592 CURVE SMOOTH"
);
}
);
width = 755;
}
);
leftKerningGroup = O;
rightKerningGroup = O;
unicode = 004F;
},
{
glyphname = Oslash;
lastChange = "2014-11-10 22:18:22 +0100";
layers = (
{
layerId = "DAACF28A-601E-43F2-B3A2-D78749C87D22";
name = Bold;
paths = (
{
closed = 1;
nodes = (
"161 -110 LINE",
"235 12 LINE",
"274 -4 OFFCURVE",
"319 -12 OFFCURVE",
"370 -12 CURVE SMOOTH",
"570 -12 OFFCURVE",
"705 137 OFFCURVE",
"705 362 CURVE SMOOTH",
"705 479 OFFCURVE",
"673 572 OFFCURVE",
"613 633 CURVE",
"680 742 LINE",
"591 793 LINE",
"529 690 LINE",
"488 708 OFFCURVE",
"442 717 OFFCURVE",
"390 717 CURVE SMOOTH",
"188 717 OFFCURVE",
"60 577 OFFCURVE",
"60 347 CURVE SMOOTH",
"60 223 OFFCURVE",
"91 129 OFFCURVE",
"150 69 CURVE",
"72 -59 LINE"
);
},
{
closed = 1;
nodes = (
"413 592 OFFCURVE",
"437 586 OFFCURVE",
"458 575 CURVE",
"388 460 OFFCURVE",
"318 346 OFFCURVE",
"249 231 CURVE",
"234 264 OFFCURVE",
"228 311 OFFCURVE",
"228 363 CURVE SMOOTH",
"228 530 OFFCURVE",
"286 592 OFFCURVE",
"385 592 CURVE SMOOTH"
);
},
{
closed = 1;
nodes = (
"538 181 OFFCURVE",
"475 112 OFFCURVE",
"375 112 CURVE SMOOTH",
"348 112 OFFCURVE",
"325 118 OFFCURVE",
"306 129 CURVE",
"516 473 LINE",
"530 444 OFFCURVE",
"538 406 OFFCURVE",
"538 357 CURVE SMOOTH"
);
}
);
width = 765;
}
);
leftKerningGroup = O;
rightKerningGroup = O;
unicode = 00D8;
},
{
glyphname = Otilde;
lastChange = "2014-11-10 22:18:22 +0100";
layers = (
{
components = (
{
name = O;
transform = "{1, 0, 0, 1, 0, 0}";
}
);
layerId = "DAACF28A-601E-43F2-B3A2-D78749C87D22";
name = Bold;
paths = (
{
closed = 1;
nodes = (
"212 777 LINE",
"212 777 OFFCURVE",
"242 815 OFFCURVE",
"284 815 CURVE SMOOTH",
"344 815 OFFCURVE",
"382 776 OFFCURVE",
"452 776 CURVE SMOOTH",
"535 776 OFFCURVE",
"587 880 OFFCURVE",
"587 880 CURVE",
"532 922 LINE",
"532 922 OFFCURVE",
"502 880 OFFCURVE",
"463 880 CURVE SMOOTH",
"403 880 OFFCURVE",
"359 926 OFFCURVE",
"289 926 CURVE SMOOTH",
"206 926 OFFCURVE",
"164 816 OFFCURVE",
"164 816 CURVE"
);
}
);
width = 755;
}
);
leftKerningGroup = O;
rightKerningGroup = O;
unicode = 00D5;
},
{
glyphname = OE;
lastChange = "2014-11-10 22:18:22 +0100";
layers = (
{
layerId = "DAACF28A-601E-43F2-B3A2-D78749C87D22";
name = Bold;
paths = (
{
closed = 1;
nodes = (
"617 310 LINE",
"819 310 LINE",
"819 420 LINE",
"617 420 LINE",
"617 585 LINE",
"779 585 LINE",
"804 510 LINE",
"897 510 LINE",
"897 705 LINE",
"562 705 LINE SMOOTH",
"509 705 OFFCURVE",
"443 715 OFFCURVE",
"385 715 CURVE SMOOTH",
"183 715 OFFCURVE",
"55 577 OFFCURVE",
"55 347 CURVE SMOOTH",
"55 112 OFFCURVE",
"165 -10 OFFCURVE",
"365 -10 CURVE SMOOTH",
"427 -10 OFFCURVE",
"500 0 OFFCURVE",
"549 0 CURVE SMOOTH",
"909 0 LINE",
"909 200 LINE",
"817 200 LINE",
"794 120 LINE",
"617 120 LINE"
);
},
{
closed = 1;
nodes = (
"462 120 LINE",
"449 120 OFFCURVE",
"408 115 OFFCURVE",
"373 115 CURVE SMOOTH",
"271 115 OFFCURVE",
"223 187 OFFCURVE",
"223 352 CURVE SMOOTH",
"223 538 OFFCURVE",
"283 589 OFFCURVE",
"391 589 CURVE SMOOTH",
"413 589 OFFCURVE",
"455 586 OFFCURVE",
"462 585 CURVE"
);
}
);
width = 964;
}
);
leftKerningGroup = O;
rightKerningGroup = E;
unicode = 0152;
},
{
glyphname = P;
lastChange = "2014-11-10 22:18:22 +0100";
layers = (
{
layerId = "DAACF28A-601E-43F2-B3A2-D78749C87D22";
name = Bold;
paths = (
{
closed = 1;
nodes = (
"340 85 LINE",
"265 115 LINE",
"265 245 LINE",
"318 245 LINE SMOOTH",
"500 245 OFFCURVE",
"603 327 OFFCURVE",
"603 495 CURVE SMOOTH",
"603 625 OFFCURVE",
"513 705 OFFCURVE",
"360 705 CURVE SMOOTH",
"265 705 LINE",
"35 700 LINE",
"35 615 LINE",
"110 585 LINE",
"110 115 LINE",
"35 85 LINE",
"35 0 LINE",
"340 0 LINE"
);
},
{
closed = 1;
nodes = (
"265 585 LINE",
"345 585 LINE SMOOTH",
"413 585 OFFCURVE",
"448 540 OFFCURVE",
"448 475 CURVE SMOOTH",
"448 401 OFFCURVE",
"401 362 OFFCURVE",
"318 362 CURVE SMOOTH",
"265 362 LINE"
);
}
);
width = 623;
}
);
leftKerningGroup = H;
rightKerningGroup = P;
unicode = 0050;
},
{
glyphname = Thorn;
lastChange = "2014-11-10 22:18:22 +0100";
layers = (
{
layerId = "DAACF28A-601E-43F2-B3A2-D78749C87D22";
name = Bold;
paths = (
{
closed = 1;
nodes = (
"350 85 LINE",
"265 115 LINE",
"265 160 LINE",
"319 160 LINE SMOOTH",
"490 160 OFFCURVE",
"604 221 OFFCURVE",
"604 370 CURVE SMOOTH",
"604 490 OFFCURVE",
"514 555 OFFCURVE",
"364 555 CURVE SMOOTH",
"265 555 LINE",
"265 585 LINE",
"350 615 LINE",
"350 705 LINE",
"35 700 LINE",
"35 615 LINE",
"110 585 LINE",
"110 115 LINE",
"35 85 LINE",
"35 0 LINE",
"350 0 LINE"
);
},
{
closed = 1;
nodes = (
"346 445 LINE",
"409 445 OFFCURVE",
"451 415 OFFCURVE",
"451 360 CURVE SMOOTH",
"451 297 OFFCURVE",
"404 267 OFFCURVE",
"329 267 CURVE SMOOTH",
"265 267 LINE",
"265 445 LINE"
);
}
);
width = 629;
}
);
leftKerningGroup = P;
unicode = 00DE;
},
{
glyphname = Q;
lastChange = "2014-11-10 22:18:22 +0100";
layers = (
{
layerId = "DAACF28A-601E-43F2-B3A2-D78749C87D22";
name = Bold;
paths = (
{
closed = 1;
nodes = (
"542 -147 LINE",
"586 -177 OFFCURVE",
"627 -200 OFFCURVE",
"670 -200 CURVE SMOOTH",
"735 -200 OFFCURVE",
"840 -130 OFFCURVE",
"840 -130 CURVE",
"822 -103 OFFCURVE",
"805 -76 OFFCURVE",
"787 -50 CURVE",
"787 -50 OFFCURVE",
"727 -85 OFFCURVE",
"695 -85 CURVE SMOOTH",
"634 -85 OFFCURVE",
"562 -27 OFFCURVE",
"502 11 CURVE",
"631 61 OFFCURVE",
"710 189 OFFCURVE",
"710 362 CURVE SMOOTH",
"710 585 OFFCURVE",
"597 717 OFFCURVE",
"392 717 CURVE SMOOTH",
"185 717 OFFCURVE",
"55 575 OFFCURVE",
"55 347 CURVE SMOOTH",
"55 124 OFFCURVE",
"156 1 OFFCURVE",
"340 -11 CURVE"
);
},
{
closed = 1;
nodes = (
"497 592 OFFCURVE",
"545 517 OFFCURVE",
"545 357 CURVE SMOOTH",
"545 190 OFFCURVE",
"490 112 OFFCURVE",
"377 112 CURVE SMOOTH",
"270 112 OFFCURVE",
"220 192 OFFCURVE",
"220 352 CURVE SMOOTH",
"220 520 OFFCURVE",
"275 592 OFFCURVE",
"387 592 CURVE SMOOTH"
);
}
);
width = 742;
}
);
leftKerningGroup = O;
rightKerningGroup = O;
unicode = 0051;
},
{
glyphname = R;
lastChange = "2014-11-10 22:18:22 +0100";
layers = (
{
layerId = "DAACF28A-601E-43F2-B3A2-D78749C87D22";
name = Bold;
paths = (
{
closed = 1;
nodes = (
"337 85 LINE",
"265 115 LINE",
"265 277 LINE",
"300 277 LINE SMOOTH",
"353 277 OFFCURVE",
"362 261 OFFCURVE",
"396 185 CURVE SMOOTH",
"480 0 LINE",
"665 0 LINE",
"665 85 LINE",
"597 110 LINE",
"530 247 LINE SMOOTH",
"514 280 OFFCURVE",
"499 299 OFFCURVE",
"488 312 CURVE",
"556 346 OFFCURVE",
"601 407 OFFCURVE",
"601 501 CURVE SMOOTH",
"601 637 OFFCURVE",
"505 705 OFFCURVE",
"341 705 CURVE SMOOTH",
"265 705 LINE",
"35 700 LINE",
"35 615 LINE",
"110 585 LINE",
"110 115 LINE",
"35 85 LINE",
"35 0 LINE",
"337 0 LINE"
);
},
{
closed = 1;
nodes = (
"265 585 LINE",
"347 585 LINE SMOOTH",
"409 585 OFFCURVE",
"447 544 OFFCURVE",
"447 487 CURVE SMOOTH",
"447 420 OFFCURVE",
"401 382 OFFCURVE",
"322 382 CURVE SMOOTH",
"265 382 LINE"
);
}
);
width = 675;
}
);
leftKerningGroup = R;
rightKerningGroup = R;
unicode = 0052;
},
{
glyphname = S;
lastChange = "2014-11-10 22:18:22 +0100";
layers = (
{
layerId = "DAACF28A-601E-43F2-B3A2-D78749C87D22";
name = Bold;
paths = (
{
closed = 1;
nodes = (
"164 217 LINE",
"62 217 LINE",
"62 25 LINE",
"62 25 OFFCURVE",
"172 -13 OFFCURVE",
"285 -13 CURVE SMOOTH",
"439 -13 OFFCURVE",
"555 69 OFFCURVE",
"555 219 CURVE SMOOTH",
"555 454 OFFCURVE",
"218 408 OFFCURVE",
"218 524 CURVE SMOOTH",
"218 564 OFFCURVE",
"253 595 OFFCURVE",
"324 595 CURVE SMOOTH",
"367 595 OFFCURVE",
"412 580 OFFCURVE",
"412 580 CURVE",
"437 495 LINE",
"529 495 LINE",
"534 677 LINE",
"534 677 OFFCURVE",
"427 717 OFFCURVE",
"314 717 CURVE SMOOTH",
"169 717 OFFCURVE",
"60 643 OFFCURVE",
"60 505 CURVE SMOOTH",
"60 258 OFFCURVE",
"398 310 OFFCURVE",
"398 193 CURVE SMOOTH",
"398 140 OFFCURVE",
"341 112 OFFCURVE",
"277 112 CURVE SMOOTH",
"219 112 OFFCURVE",
"179 133 OFFCURVE",
"179 133 CURVE"
);
}
);
width = 605;
}
);
leftKerningGroup = S;
rightKerningGroup = S;
unicode = 0053;
},
{
glyphname = T;
lastChange = "2014-11-10 22:18:22 +0100";
layers = (
{
layerId = "DAACF28A-601E-43F2-B3A2-D78749C87D22";
name = Bold;
paths = (
{
closed = 1;
nodes = (
"127 0 LINE",
"472 0 LINE",
"472 85 LINE",
"377 115 LINE",
"377 585 LINE",
"472 585 LINE",
"497 490 LINE",
"590 490 LINE",
"590 705 LINE",
"10 705 LINE",
"10 490 LINE",
"102 490 LINE",
"127 585 LINE",
"222 585 LINE",
"222 115 LINE",
"127 85 LINE"
);
}
);
width = 600;
}
);
leftKerningGroup = T;
rightKerningGroup = T;
unicode = 0054;
},
{
glyphname = Tbar;
lastChange = "2014-11-10 22:18:22 +0100";
layers = (
{
components = (
{
name = T;
transform = "{1, 0, 0, 1, 0, 0}";
}
);
guideLines = (
{
position = "{149, 410}";
},
{
position = "{86, 300}";
}
);
layerId = "DAACF28A-601E-43F2-B3A2-D78749C87D22";
name = Bold;
paths = (
{
closed = 1;
nodes = (
"87 300 LINE",
"512 300 LINE",
"512 395 LINE",
"87 395 LINE"
);
}
);
width = 600;
}
);
leftKerningGroup = T;
rightKerningGroup = T;
unicode = 0166;
},
{
glyphname = U;
lastChange = "2014-11-10 22:18:22 +0100";
layers = (
{
layerId = "DAACF28A-601E-43F2-B3A2-D78749C87D22";
name = Bold;
paths = (
{
closed = 1;
nodes = (
"264 585 LINE",
"342 615 LINE",
"342 705 LINE",
"35 700 LINE",
"35 615 LINE",
"109 585 LINE",
"109 270 LINE SMOOTH",
"109 77 OFFCURVE",
"189 -12 OFFCURVE",
"390 -12 CURVE SMOOTH",
"605 -12 OFFCURVE",
"679 92 OFFCURVE",
"679 285 CURVE SMOOTH",
"679 585 LINE",
"754 615 LINE",
"754 705 LINE",
"446 700 LINE",
"446 615 LINE",
"524 585 LINE",
"524 285 LINE SMOOTH",
"524 167 OFFCURVE",
"501 110 OFFCURVE",
"395 110 CURVE SMOOTH",
"297 110 OFFCURVE",
"264 155 OFFCURVE",
"264 270 CURVE SMOOTH"
);
}
);
width = 789;
}
);
leftKerningGroup = U;
rightKerningGroup = U;
unicode = 0055;
},
{
glyphname = Uogonek;
lastChange = "2014-11-10 22:18:22 +0100";
layers = (
{
layerId = "DAACF28A-601E-43F2-B3A2-D78749C87D22";
name = Bold;
paths = (
{
closed = 1;
nodes = (
"442 700 LINE",
"442 615 LINE",
"520 585 LINE",
"520 285 LINE SMOOTH",
"520 167 OFFCURVE",
"498 110 OFFCURVE",
"392 110 CURVE SMOOTH",
"295 110 OFFCURVE",
"262 155 OFFCURVE",
"262 270 CURVE SMOOTH",
"262 585 LINE",
"340 615 LINE",
"340 705 LINE",
"32 700 LINE",
"32 615 LINE",
"107 585 LINE",
"107 270 LINE SMOOTH",
"107 75 OFFCURVE",
"195 -11 OFFCURVE",
"366 -11 CURVE",
"337 -30 OFFCURVE",
"282 -74 OFFCURVE",
"282 -135 CURVE SMOOTH",
"282 -203 OFFCURVE",
"332 -235 OFFCURVE",
"392 -235 CURVE SMOOTH",
"447 -235 OFFCURVE",
"494 -210 OFFCURVE",
"494 -210 CURVE",
"477 -140 LINE",
"477 -140 OFFCURVE",
"450 -146 OFFCURVE",
"434 -146 CURVE SMOOTH",
"413 -146 OFFCURVE",
"397 -134 OFFCURVE",
"397 -110 CURVE SMOOTH",
"397 -74 OFFCURVE",
"450 -32 OFFCURVE",
"533 12 CURVE SMOOTH",
"637 67 OFFCURVE",
"675 139 OFFCURVE",
"675 285 CURVE SMOOTH",
"675 585 LINE",
"750 615 LINE",
"750 705 LINE"
);
}
);
width = 785;
}
);
leftKerningGroup = U;
rightKerningGroup = U;
unicode = 0172;
},
{
glyphname = Utilde;
lastChange = "2014-11-10 22:18:22 +0100";
layers = (
{
components = (
{
name = U;
transform = "{1, 0, 0, 1, 0, 0}";
}
);
layerId = "DAACF28A-601E-43F2-B3A2-D78749C87D22";
name = Bold;
paths = (
{
closed = 1;
nodes = (
"230 777 LINE",
"230 777 OFFCURVE",
"260 815 OFFCURVE",
"302 815 CURVE SMOOTH",
"362 815 OFFCURVE",
"400 776 OFFCURVE",
"470 776 CURVE SMOOTH",
"553 776 OFFCURVE",
"605 880 OFFCURVE",
"605 880 CURVE",
"550 922 LINE",
"550 922 OFFCURVE",
"520 880 OFFCURVE",
"481 880 CURVE SMOOTH",
"421 880 OFFCURVE",
"377 926 OFFCURVE",
"307 926 CURVE SMOOTH",
"224 926 OFFCURVE",
"182 816 OFFCURVE",
"182 816 CURVE"
);
}
);
width = 789;
}
);
leftKerningGroup = U;
rightKerningGroup = U;
unicode = 0168;
},
{
glyphname = V;
lastChange = "2014-11-10 22:18:22 +0100";
layers = (
{
layerId = "DAACF28A-601E-43F2-B3A2-D78749C87D22";
name = Bold;
paths = (
{
closed = 1;
nodes = (
"275 0 LINE",
"435 0 LINE",
"646 585 LINE",
"719 615 LINE",
"719 705 LINE",
"420 700 LINE",
"420 615 LINE",
"496 585 LINE",
"397 294 LINE",
"365 176 LINE",
"333 299 LINE",
"241 586 LINE",
"315 615 LINE",
"315 705 LINE",
"5 700 LINE",
"5 615 LINE",
"73 587 LINE"
);
}
);
width = 724;
}
);
leftKerningGroup = V;
rightKerningGroup = V;
unicode = 0056;
},
{
glyphname = W;
lastChange = "2014-11-10 22:18:22 +0100";
layers = (
{
layerId = "DAACF28A-601E-43F2-B3A2-D78749C87D22";
name = Bold;
paths = (
{
closed = 1;
nodes = (
"237 0 LINE",
"375 0 LINE",
"490 380 LINE",
"514 475 LINE",
"645 0 LINE",
"787 0 LINE",
"958 585 LINE",
"1030 615 LINE",
"1030 705 LINE",
"745 700 LINE",
"745 615 LINE",
"820 585 LINE",
"724 226 LINE",
"590 705 LINE",
"455 697 LINE",
"315 225 LINE",
"229 585 LINE",
"302 615 LINE",
"302 705 LINE",
"5 700 LINE",
"5 615 LINE",
"75 586 LINE"
);
}
);
width = 1035;
}
);
leftKerningGroup = V;
rightKerningGroup = V;
unicode = 0057;
},
{
glyphname = X;
lastChange = "2014-11-10 22:18:22 +0100";
layers = (
{
layerId = "DAACF28A-601E-43F2-B3A2-D78749C87D22";
name = Bold;
paths = (
{
closed = 1;
nodes = (
"307 85 LINE",
"244 109 LINE",
"356 253 LINE",
"466 105 LINE",
"420 85 LINE",
"420 0 LINE",
"730 0 LINE",
"730 85 LINE",
"660 109 LINE",
"465 362 LINE",
"649 595 LINE",
"715 615 LINE",
"715 705 LINE",
"427 700 LINE",
"427 615 LINE",
"481 594 LINE",
"383 461 LINE",
"280 598 LINE",
"330 615 LINE",
"330 705 LINE",
"30 700 LINE",
"30 615 LINE",
"88 596 LINE",
"274 354 LINE",
"72 110 LINE",
"10 85 LINE",
"10 0 LINE",
"307 0 LINE"
);
}
);
width = 740;
}
);
leftKerningGroup = X;
rightKerningGroup = X;
unicode = 0058;
},
{
glyphname = Y;
lastChange = "2014-11-10 22:18:22 +0100";
layers = (
{
layerId = "DAACF28A-601E-43F2-B3A2-D78749C87D22";
name = Bold;
paths = (
{
closed = 1;
nodes = (
"485 85 LINE",
"410 115 LINE",
"410 245 LINE",
"591 588 LINE",
"660 615 LINE",
"660 705 LINE",
"390 700 LINE",
"390 615 LINE",
"445 593 LINE",
"339 379 LINE",
"239 594 LINE",
"290 615 LINE",
"290 705 LINE",
"7 700 LINE",
"7 615 LINE",
"72 588 LINE",
"255 244 LINE",
"255 115 LINE",
"180 85 LINE",
"180 0 LINE",
"485 0 LINE"
);
}
);
width = 667;
}
);
leftKerningGroup = Y;
rightKerningGroup = Y;
unicode = 0059;
},
{
glyphname = Z;
lastChange = "2014-11-10 22:18:22 +0100";
layers = (
{
layerId = "DAACF28A-601E-43F2-B3A2-D78749C87D22";
name = Bold;
paths = (
{
closed = 1;
nodes = (
"582 0 LINE",
"582 220 LINE",
"487 220 LINE",
"465 120 LINE",
"237 120 LINE",
"585 592 LINE",
"585 705 LINE",
"55 705 LINE",
"55 495 LINE",
"150 495 LINE",
"175 585 LINE",
"385 585 LINE",
"30 105 LINE",
"30 0 LINE"
);
}
);
width = 615;
}
);
leftKerningGroup = Z;
rightKerningGroup = Z;
unicode = 005A;
},
{
glyphname = a;
lastChange = "2014-11-10 22:18:22 +0100";
layers = (
{
layerId = "DAACF28A-601E-43F2-B3A2-D78749C87D22";
name = Bold;
paths = (
{
closed = 1;
nodes = (
"576 7 LINE",
"576 87 LINE",
"501 105 LINE",
"501 352 LINE SMOOTH",
"501 497 OFFCURVE",
"443 550 OFFCURVE",
"291 550 CURVE SMOOTH",
"195 550 OFFCURVE",
"74 510 OFFCURVE",
"74 510 CURVE",
"81 362 LINE",
"171 362 LINE",
"186 425 LINE",
"186 425 OFFCURVE",
"223 440 OFFCURVE",
"274 440 CURVE SMOOTH",
"324 440 OFFCURVE",
"351 418 OFFCURVE",
"351 367 CURVE SMOOTH",
"351 312 LINE",
"281 312 LINE SMOOTH",
"129 312 OFFCURVE",
"40 265 OFFCURVE",
"40 147 CURVE SMOOTH",
"40 47 OFFCURVE",
"99 -10 OFFCURVE",
"196 -10 CURVE SMOOTH",
"281 -10 OFFCURVE",
"358 65 OFFCURVE",
"358 65 CURVE",
"376 0 LINE"
);
},
{
closed = 1;
nodes = (
"185 207 OFFCURVE",
"216 227 OFFCURVE",
"294 227 CURVE SMOOTH",
"351 227 LINE",
"351 160 LINE",
"351 160 OFFCURVE",
"297 102 OFFCURVE",
"244 102 CURVE SMOOTH",
"206 102 OFFCURVE",
"185 124 OFFCURVE",
"185 162 CURVE SMOOTH"
);
}
);
width = 601;
}
);
leftKerningGroup = a;
rightKerningGroup = a;
unicode = 0061;
},
{
glyphname = aogonek;
lastChange = "2014-11-10 22:18:22 +0100";
layers = (
{
layerId = "DAACF28A-601E-43F2-B3A2-D78749C87D22";
name = Bold;
paths = (
{
closed = 1;
nodes = (
"576 87 LINE",
"501 105 LINE",
"501 352 LINE SMOOTH",
"501 497 OFFCURVE",
"443 550 OFFCURVE",
"291 550 CURVE SMOOTH",
"195 550 OFFCURVE",
"74 510 OFFCURVE",
"74 510 CURVE",
"81 362 LINE",
"171 362 LINE",
"186 425 LINE",
"186 425 OFFCURVE",
"223 440 OFFCURVE",
"274 440 CURVE SMOOTH",
"324 440 OFFCURVE",
"351 418 OFFCURVE",
"351 367 CURVE SMOOTH",
"351 312 LINE",
"281 312 LINE SMOOTH",
"129 312 OFFCURVE",
"40 265 OFFCURVE",
"40 147 CURVE SMOOTH",
"40 47 OFFCURVE",
"99 -10 OFFCURVE",
"196 -10 CURVE SMOOTH",
"281 -10 OFFCURVE",
"358 65 OFFCURVE",
"358 65 CURVE",
"376 0 LINE",
"445 2 LINE",
"424 -7 OFFCURVE",
"342 -58 OFFCURVE",
"342 -135 CURVE SMOOTH",
"342 -203 OFFCURVE",
"393 -235 OFFCURVE",
"452 -235 CURVE SMOOTH",
"507 -235 OFFCURVE",
"555 -210 OFFCURVE",
"555 -210 CURVE",
"538 -140 LINE",
"538 -140 OFFCURVE",
"511 -146 OFFCURVE",
"495 -146 CURVE SMOOTH",
"474 -146 OFFCURVE",
"457 -134 OFFCURVE",
"457 -110 CURVE SMOOTH",
"457 -58 OFFCURVE",
"576 7 OFFCURVE",
"576 7 CURVE"
);
},
{
closed = 1;
nodes = (
"185 207 OFFCURVE",
"216 227 OFFCURVE",
"294 227 CURVE SMOOTH",
"351 227 LINE",
"351 160 LINE",
"351 160 OFFCURVE",
"297 102 OFFCURVE",
"244 102 CURVE SMOOTH",
"206 102 OFFCURVE",
"185 124 OFFCURVE",
"185 162 CURVE SMOOTH"
);
}
);
width = 601;
}
);
leftKerningGroup = a;
rightKerningGroup = a;
unicode = 0105;
},
{
glyphname = ae;
lastChange = "2014-11-10 22:18:22 +0100";
layers = (
{
layerId = "DAACF28A-601E-43F2-B3A2-D78749C87D22";
name = Bold;
paths = (
{
closed = 1;
nodes = (
"830 238 LINE",
"830 238 OFFCURVE",
"836 278 OFFCURVE",
"836 316 CURVE SMOOTH",
"836 462 OFFCURVE",
"755 550 OFFCURVE",
"610 550 CURVE SMOOTH",
"543 550 OFFCURVE",
"487 529 OFFCURVE",
"444 491 CURVE",
"413 532 OFFCURVE",
"361 549 OFFCURVE",
"288 549 CURVE SMOOTH",
"195 549 OFFCURVE",
"73 512 OFFCURVE",
"73 510 CURVE SMOOTH",
"80 362 LINE",
"170 362 LINE",
"185 424 LINE",
"185 424 OFFCURVE",
"223 439 OFFCURVE",
"273 439 CURVE SMOOTH",
"323 439 OFFCURVE",
"350 417 OFFCURVE",
"350 367 CURVE SMOOTH",
"350 312 LINE",
"280 312 LINE SMOOTH",
"128 312 OFFCURVE",
"40 265 OFFCURVE",
"40 147 CURVE SMOOTH",
"40 50 OFFCURVE",
"100 -10 OFFCURVE",
"195 -10 CURVE SMOOTH",
"287 -10 OFFCURVE",
"353 44 OFFCURVE",
"392 90 CURVE",
"432 25 OFFCURVE",
"500 -10 OFFCURVE",
"600 -10 CURVE SMOOTH",
"723 -10 OFFCURVE",
"830 74 OFFCURVE",
"830 74 CURVE",
"786 157 LINE",
"786 157 OFFCURVE",
"703 110 OFFCURVE",
"620 110 CURVE SMOOTH",
"552 110 OFFCURVE",
"505 155 OFFCURVE",
"499 235 CURVE"
);
},
{
closed = 1;
nodes = (
"183 207 OFFCURVE",
"215 227 OFFCURVE",
"293 227 CURVE SMOOTH",
"350 227 LINE",
"350 162 LINE",
"350 162 OFFCURVE",
"295 102 OFFCURVE",
"243 102 CURVE SMOOTH",
"205 102 OFFCURVE",
"183 124 OFFCURVE",
"183 162 CURVE SMOOTH"
);
},
{
closed = 1;
nodes = (
"658 430 OFFCURVE",
"682 387 OFFCURVE",
"682 325 CURVE",
"499 325 LINE",
"507 390 OFFCURVE",
"544 430 OFFCURVE",
"600 430 CURVE SMOOTH"
);
}
);
width = 866;
}
);
leftKerningGroup = a;
rightKerningGroup = a;
unicode = 00E6;
},
{
glyphname = b;
lastChange = "2014-11-10 22:18:22 +0100";
layers = (
{
layerId = "DAACF28A-601E-43F2-B3A2-D78749C87D22";
name = Bold;
paths = (
{
closed = 1;
nodes = (
"5 767 LINE",
"5 687 LINE",
"80 667 LINE",
"80 10 LINE",
"80 10 OFFCURVE",
"178 -12 OFFCURVE",
"288 -12 CURVE SMOOTH",
"480 -12 OFFCURVE",
"578 97 OFFCURVE",
"578 285 CURVE SMOOTH",
"578 453 OFFCURVE",
"507 550 OFFCURVE",
"373 550 CURVE SMOOTH",
"297 550 OFFCURVE",
"247 510 OFFCURVE",
"230 497 CURVE",
"230 775 LINE"
);
},
{
closed = 1;
nodes = (
"230 385 LINE",
"230 385 OFFCURVE",
"265 430 OFFCURVE",
"325 430 CURVE SMOOTH",
"395 430 OFFCURVE",
"423 375 OFFCURVE",
"423 275 CURVE SMOOTH",
"423 174 OFFCURVE",
"391 108 OFFCURVE",
"304 108 CURVE SMOOTH",
"253 108 OFFCURVE",
"230 116 OFFCURVE",
"230 116 CURVE"
);
}
);
width = 618;
}
);
leftKerningGroup = l;
rightKerningGroup = b;
unicode = 0062;
},
{
glyphname = c;
lastChange = "2014-11-10 22:18:22 +0100";
layers = (
{
layerId = "DAACF28A-601E-43F2-B3A2-D78749C87D22";
name = Bold;
paths = (
{
closed = 1;
nodes = (
"460 163 LINE",
"429 145 OFFCURVE",
"385 110 OFFCURVE",
"315 110 CURVE SMOOTH",
"232 110 OFFCURVE",
"190 173 OFFCURVE",
"190 282 CURVE SMOOTH",
"190 382 OFFCURVE",
"235 430 OFFCURVE",
"307 430 CURVE SMOOTH",
"347 430 OFFCURVE",
"376 422 OFFCURVE",
"376 422 CURVE",
"390 351 LINE",
"480 351 LINE",
"485 515 LINE",
"485 515 OFFCURVE",
"396 550 OFFCURVE",
"310 550 CURVE SMOOTH",
"135 550 OFFCURVE",
"35 440 OFFCURVE",
"35 262 CURVE SMOOTH",
"35 92 OFFCURVE",
"130 -10 OFFCURVE",
"295 -10 CURVE SMOOTH",
"407 -10 OFFCURVE",
"485 53 OFFCURVE",
"510 75 CURVE"
);
}
);
width = 525;
}
);
leftKerningGroup = o;
rightKerningGroup = c;
unicode = 0063;
},
{
glyphname = ccedilla;
lastChange = "2014-11-10 22:18:22 +0100";
layers = (
{
layerId = "DAACF28A-601E-43F2-B3A2-D78749C87D22";
name = Bold;
paths = (
{
closed = 1;
nodes = (
"460 163 LINE",
"429 145 OFFCURVE",
"385 110 OFFCURVE",
"315 110 CURVE SMOOTH",
"232 110 OFFCURVE",
"190 173 OFFCURVE",
"190 282 CURVE SMOOTH",
"190 383 OFFCURVE",
"235 430 OFFCURVE",
"307 430 CURVE SMOOTH",
"347 430 OFFCURVE",
"376 422 OFFCURVE",
"376 422 CURVE",
"390 352 LINE",
"480 352 LINE",
"485 515 LINE",
"485 515 OFFCURVE",
"396 550 OFFCURVE",
"310 550 CURVE SMOOTH",
"135 550 OFFCURVE",
"35 440 OFFCURVE",
"35 262 CURVE SMOOTH",
"35 107 OFFCURVE",
"114 8 OFFCURVE",
"253 -7 CURVE",
"253 -82 LINE",
"302 -82 OFFCURVE",
"336 -97 OFFCURVE",
"336 -126 CURVE SMOOTH",
"336 -148 OFFCURVE",
"318 -163 OFFCURVE",
"289 -163 CURVE SMOOTH",
"249 -163 OFFCURVE",
"207 -142 OFFCURVE",
"207 -142 CURVE",
"176 -197 LINE",
"176 -197 OFFCURVE",
"232 -229 OFFCURVE",
"300 -229 CURVE SMOOTH",
"370 -229 OFFCURVE",
"425 -188 OFFCURVE",
"425 -130 CURVE SMOOTH",
"425 -82 OFFCURVE",
"390 -50 OFFCURVE",
"339 -40 CURVE",
"339 -6 LINE",
"427 6 OFFCURVE",
"488 56 OFFCURVE",
"510 75 CURVE"
);
}
);
width = 525;
}
);
leftKerningGroup = o;
rightKerningGroup = c;
unicode = 00E7;
},
{
glyphname = d;
lastChange = "2014-11-10 22:18:22 +0100";
layers = (
{
layerId = "DAACF28A-601E-43F2-B3A2-D78749C87D22";
name = Bold;
paths = (
{
closed = 1;
nodes = (
"618 7 LINE",
"618 87 LINE",
"538 107 LINE",
"538 775 LINE",
"308 767 LINE",
"308 687 LINE",
"388 667 LINE",
"388 540 LINE",
"366 545 OFFCURVE",
"337 550 OFFCURVE",
"313 550 CURVE SMOOTH",
"130 550 OFFCURVE",
"40 445 OFFCURVE",
"40 257 CURVE SMOOTH",
"40 92 OFFCURVE",
"105 -10 OFFCURVE",
"245 -10 CURVE SMOOTH",
"331 -10 OFFCURVE",
"382 39 OFFCURVE",
"396 53 CURVE",
"405 0 LINE"
);
},
{
closed = 1;
nodes = (
"388 167 LINE",
"388 167 OFFCURVE",
"355 110 OFFCURVE",
"291 110 CURVE SMOOTH",
"223 110 OFFCURVE",
"195 164 OFFCURVE",
"195 265 CURVE SMOOTH",
"195 365 OFFCURVE",
"225 430 OFFCURVE",
"310 430 CURVE SMOOTH",
"339 430 OFFCURVE",
"369 424 OFFCURVE",
"388 415 CURVE"
);
}
);
width = 638;
}
);
leftKerningGroup = o;
unicode = 0064;
},
{
glyphname = eth;
lastChange = "2014-11-10 22:18:22 +0100";
layers = (
{
layerId = "DAACF28A-601E-43F2-B3A2-D78749C87D22";
name = Bold;
paths = (
{
closed = 1;
nodes = (
"118 702 LINE",
"149 691 OFFCURVE",
"178 678 OFFCURVE",
"203 665 CURVE",
"115 615 LINE",
"173 536 LINE",
"290 603 LINE",
"326 569 OFFCURVE",
"351 528 OFFCURVE",
"368 483 CURVE",
"347 495 OFFCURVE",
"321 505 OFFCURVE",
"290 505 CURVE SMOOTH",
"141 505 OFFCURVE",
"35 406 OFFCURVE",
"35 240 CURVE SMOOTH",
"35 71 OFFCURVE",
"131 -12 OFFCURVE",
"280 -12 CURVE SMOOTH",
"438 -12 OFFCURVE",
"538 100 OFFCURVE",
"538 272 CURVE SMOOTH",
"538 439 OFFCURVE",
"486 572 OFFCURVE",
"393 664 CURVE",
"474 710 LINE",
"416 789 LINE",
"311 728 LINE",
"267 755 OFFCURVE",
"218 776 OFFCURVE",
"164 789 CURVE"
);
},
{
closed = 1;
nodes = (
"363 390 OFFCURVE",
"383 337 OFFCURVE",
"383 250 CURVE SMOOTH",
"383 158 OFFCURVE",
"358 103 OFFCURVE",
"285 103 CURVE SMOOTH",
"215 103 OFFCURVE",
"190 163 OFFCURVE",
"190 245 CURVE SMOOTH",
"190 338 OFFCURVE",
"218 390 OFFCURVE",
"290 390 CURVE SMOOTH"
);
}
);
width = 578;
}
);
leftKerningGroup = o;
unicode = 00F0;
},
{
glyphname = dcaron;
lastChange = "2014-11-10 22:18:22 +0100";
layers = (
{
components = (
{
name = d;
transform = "{1, 0, 0, 1, 0, 0}";
},
{
name = caron.x;
transform = "{1, 0, 0, 1, 580, 0}";
}
);
layerId = "DAACF28A-601E-43F2-B3A2-D78749C87D22";
name = Bold;
paths = (
{
closed = 0;
nodes = (
"450 528 LINE"
);
}
);
width = 741;
}
);
leftKerningGroup = o;
unicode = 010F;
},
{
glyphname = dcroat;
lastChange = "2014-11-10 22:18:22 +0100";
layers = (
{
guideLines = (
{
angle = 90;
position = "{615, 494}";
},
{
angle = 90;
position = "{308, 718}";
}
);
layerId = "DAACF28A-601E-43F2-B3A2-D78749C87D22";
name = Bold;
paths = (
{
closed = 1;
nodes = (
"308 577 LINE",
"615 577 LINE",
"615 647 LINE",
"308 647 LINE"
);
},
{
closed = 1;
nodes = (
"618 7 LINE",
"618 87 LINE",
"538 107 LINE",
"538 775 LINE",
"308 767 LINE",
"308 687 LINE",
"388 667 LINE",
"388 540 LINE",
"366 545 OFFCURVE",
"337 550 OFFCURVE",
"313 550 CURVE SMOOTH",
"130 550 OFFCURVE",
"40 445 OFFCURVE",
"40 257 CURVE SMOOTH",
"40 92 OFFCURVE",
"105 -10 OFFCURVE",
"245 -10 CURVE SMOOTH",
"331 -10 OFFCURVE",
"382 39 OFFCURVE",
"396 53 CURVE",
"405 0 LINE"
);
},
{
closed = 1;
nodes = (
"388 167 LINE",
"388 167 OFFCURVE",
"355 110 OFFCURVE",
"291 110 CURVE SMOOTH",
"223 110 OFFCURVE",
"195 164 OFFCURVE",
"195 265 CURVE SMOOTH",
"195 365 OFFCURVE",
"225 430 OFFCURVE",
"310 430 CURVE SMOOTH",
"339 430 OFFCURVE",
"369 424 OFFCURVE",
"388 415 CURVE"
);
}
);
width = 638;
}
);
leftKerningGroup = o;
unicode = 0111;
},
{
glyphname = e;
lastChange = "2014-11-10 22:18:22 +0100";
layers = (
{
layerId = "DAACF28A-601E-43F2-B3A2-D78749C87D22";
name = Bold;
paths = (
{
closed = 1;
nodes = (
"523 240 LINE",
"523 240 OFFCURVE",
"529 277 OFFCURVE",
"529 315 CURVE SMOOTH",
"529 458 OFFCURVE",
"451 550 OFFCURVE",
"302 550 CURVE SMOOTH",
"134 550 OFFCURVE",
"35 435 OFFCURVE",
"35 260 CURVE SMOOTH",
"35 90 OFFCURVE",
"123 -10 OFFCURVE",
"295 -10 CURVE SMOOTH",
"423 -10 OFFCURVE",
"523 74 OFFCURVE",
"523 74 CURVE",
"480 157 LINE",
"480 157 OFFCURVE",
"395 110 OFFCURVE",
"312 110 CURVE SMOOTH",
"243 110 OFFCURVE",
"197 157 OFFCURVE",
"191 237 CURVE"
);
},
{
closed = 1;
nodes = (
"350 430 OFFCURVE",
"374 387 OFFCURVE",
"374 330 CURVE",
"193 330 LINE",
"201 389 OFFCURVE",
"236 430 OFFCURVE",
"292 430 CURVE SMOOTH"
);
}
);
width = 564;
}
);
leftKerningGroup = o;
rightKerningGroup = e;
unicode = 0065;
},
{
glyphname = eogonek;
lastChange = "2014-11-10 22:18:22 +0100";
layers = (
{
layerId = "DAACF28A-601E-43F2-B3A2-D78749C87D22";
name = Bold;
paths = (
{
closed = 1;
nodes = (
"357 -49 OFFCURVE",
"492 52 OFFCURVE",
"523 74 CURVE",
"480 157 LINE",
"445 139 OFFCURVE",
"389 110 OFFCURVE",
"312 110 CURVE SMOOTH",
"244 110 OFFCURVE",
"198 157 OFFCURVE",
"192 237 CURVE",
"524 240 LINE",
"524 240 OFFCURVE",
"529 277 OFFCURVE",
"529 315 CURVE SMOOTH",
"529 458 OFFCURVE",
"451 550 OFFCURVE",
"302 550 CURVE SMOOTH",
"134 550 OFFCURVE",
"35 435 OFFCURVE",
"35 260 CURVE SMOOTH",
"35 90 OFFCURVE",
"123 -10 OFFCURVE",
"295 -10 CURVE SMOOTH",
"304 -10 OFFCURVE",
"313 -9 OFFCURVE",
"322 -8 CURVE",
"287 -36 OFFCURVE",
"242 -81 OFFCURVE",
"242 -137 CURVE SMOOTH",
"242 -203 OFFCURVE",
"292 -235 OFFCURVE",
"352 -235 CURVE SMOOTH",
"407 -235 OFFCURVE",
"454 -210 OFFCURVE",
"454 -210 CURVE",
"437 -140 LINE",
"437 -140 OFFCURVE",
"411 -146 OFFCURVE",
"395 -146 CURVE SMOOTH",
"373 -146 OFFCURVE",
"357 -132 OFFCURVE",
"357 -107 CURVE SMOOTH"
);
},
{
closed = 1;
nodes = (
"350 430 OFFCURVE",
"374 387 OFFCURVE",
"374 330 CURVE",
"194 330 LINE",
"202 389 OFFCURVE",
"237 430 OFFCURVE",
"292 430 CURVE SMOOTH"
);
}
);
width = 559;
}
);
leftKerningGroup = o;
rightKerningGroup = e;
unicode = 0119;
},
{
glyphname = f;
lastChange = "2014-11-10 22:18:22 +0100";
layers = (
{
layerId = "DAACF28A-601E-43F2-B3A2-D78749C87D22";
name = Bold;
paths = (
{
closed = 1;
nodes = (
"130 530 LINE",
"40 515 LINE",
"40 430 LINE",
"130 430 LINE",
"130 105 LINE",
"50 80 LINE",
"50 0 LINE",
"380 0 LINE",
"380 80 LINE",
"280 105 LINE",
"280 430 LINE",
"407 430 LINE",
"410 530 LINE",
"280 530 LINE",
"280 592 LINE SMOOTH",
"280 644 OFFCURVE",
"302 677 OFFCURVE",
"357 677 CURVE SMOOTH",
"390 677 OFFCURVE",
"414 673 OFFCURVE",
"414 673 CURVE",
"429 603 LINE",
"519 603 LINE",
"522 750 LINE",
"522 750 OFFCURVE",
"453 787 OFFCURVE",
"345 787 CURVE SMOOTH",
"203 787 OFFCURVE",
"130 702 OFFCURVE",
"130 575 CURVE SMOOTH"
);
}
);
width = 462;
}
);
leftKerningGroup = f;
rightKerningGroup = f;
unicode = 0066;
},
{
glyphname = g;
lastChange = "2014-11-10 22:18:22 +0100";
layers = (
{
layerId = "DAACF28A-601E-43F2-B3A2-D78749C87D22";
name = Bold;
paths = (
{
closed = 1;
nodes = (
"40 -220 OFFCURVE",
"141 -255 OFFCURVE",
"298 -255 CURVE SMOOTH",
"490 -255 OFFCURVE",
"578 -175 OFFCURVE",
"578 -65 CURVE SMOOTH",
"578 35 OFFCURVE",
"505 90 OFFCURVE",
"378 90 CURVE SMOOTH",
"230 90 LINE",
"234 157 LINE",
"238 157 OFFCURVE",
"258 152 OFFCURVE",
"285 152 CURVE SMOOTH",
"423 152 OFFCURVE",
"525 212 OFFCURVE",
"525 357 CURVE SMOOTH",
"525 400 OFFCURVE",
"510 427 OFFCURVE",
"508 436 CURVE",
"590 450 LINE",
"590 530 LINE",
"418 526 LINE",
"399 535 OFFCURVE",
"358 550 OFFCURVE",
"300 550 CURVE SMOOTH",
"163 550 OFFCURVE",
"60 482 OFFCURVE",
"60 345 CURVE SMOOTH",
"60 248 OFFCURVE",
"113 205 OFFCURVE",
"137 189 CURVE",
"125 170 OFFCURVE",
"85 105 OFFCURVE",
"85 76 CURVE SMOOTH",
"85 19 OFFCURVE",
"145 10 OFFCURVE",
"145 10 CURVE",
"145 10 OFFCURVE",
"40 -24 OFFCURVE",
"40 -110 CURVE SMOOTH"
);
},
{
closed = 1;
nodes = (
"350 447 OFFCURVE",
"375 415 OFFCURVE",
"375 352 CURVE SMOOTH",
"375 285 OFFCURVE",
"353 252 OFFCURVE",
"290 252 CURVE SMOOTH",
"233 252 OFFCURVE",
"210 292 OFFCURVE",
"210 352 CURVE SMOOTH",
"210 415 OFFCURVE",
"235 447 OFFCURVE",
"295 447 CURVE SMOOTH"
);
},
{
closed = 1;
nodes = (
"338 -20 LINE",
"405 -20 OFFCURVE",
"438 -32 OFFCURVE",
"438 -77 CURVE SMOOTH",
"438 -125 OFFCURVE",
"400 -145 OFFCURVE",
"310 -145 CURVE SMOOTH",
"228 -145 OFFCURVE",
"185 -135 OFFCURVE",
"185 -85 CURVE SMOOTH",
"185 -42 OFFCURVE",
"233 -20 OFFCURVE",
"233 -20 CURVE"
);
}
);
width = 610;
}
);
leftKerningGroup = g;
rightKerningGroup = g;
unicode = 0067;
},
{
glyphname = h;
lastChange = "2014-11-10 22:18:22 +0100";
layers = (
{
layerId = "DAACF28A-601E-43F2-B3A2-D78749C87D22";
name = Bold;
paths = (
{
closed = 1;
nodes = (
"20 767 LINE",
"20 687 LINE",
"100 667 LINE",
"100 105 LINE",
"20 80 LINE",
"20 0 LINE",
"303 0 LINE",
"303 80 LINE",
"250 105 LINE",
"250 373 LINE",
"250 373 OFFCURVE",
"303 426 OFFCURVE",
"359 426 CURVE SMOOTH",
"405 426 OFFCURVE",
"425 396 OFFCURVE",
"425 346 CURVE SMOOTH",
"425 104 LINE",
"373 80 LINE",
"373 0 LINE",
"645 0 LINE",
"645 80 LINE",
"575 105 LINE",
"575 370 LINE SMOOTH",
"575 482 OFFCURVE",
"520 550 OFFCURVE",
"418 550 CURVE SMOOTH",
"344 550 OFFCURVE",
"279 506 OFFCURVE",
"250 482 CURVE",
"250 775 LINE"
);
}
);
width = 670;
}
);
rightKerningGroup = n;
unicode = 0068;
},
{
glyphname = hbar;
lastChange = "2014-11-10 22:18:22 +0100";
layers = (
{
guideLines = (
{
angle = 90;
position = "{20, 681}";
}
);
layerId = "DAACF28A-601E-43F2-B3A2-D78749C87D22";
name = Bold;
paths = (
{
closed = 1;
nodes = (
"20 560 LINE",
"327 560 LINE",
"327 640 LINE",
"20 640 LINE"
);
},
{
closed = 1;
nodes = (
"20 767 LINE",
"20 687 LINE",
"100 667 LINE",
"100 105 LINE",
"20 80 LINE",
"20 0 LINE",
"303 0 LINE",
"303 80 LINE",
"250 105 LINE",
"250 373 LINE",
"250 373 OFFCURVE",
"303 426 OFFCURVE",
"359 426 CURVE SMOOTH",
"405 426 OFFCURVE",
"425 396 OFFCURVE",
"425 346 CURVE SMOOTH",
"425 104 LINE",
"373 80 LINE",
"373 0 LINE",
"645 0 LINE",
"645 80 LINE",
"575 105 LINE",
"575 370 LINE SMOOTH",
"575 482 OFFCURVE",
"520 550 OFFCURVE",
"418 550 CURVE SMOOTH",
"344 550 OFFCURVE",
"279 506 OFFCURVE",
"250 482 CURVE",
"250 775 LINE"
);
}
);
width = 670;
}
);
rightKerningGroup = n;
unicode = 0127;
},
{
glyphname = i;
lastChange = "2014-11-10 22:18:22 +0100";
layers = (
{
layerId = "DAACF28A-601E-43F2-B3A2-D78749C87D22";
name = Bold;
paths = (
{
closed = 1;
nodes = (
"35 535 LINE",
"35 455 LINE",
"115 430 LINE",
"115 105 LINE",
"35 80 LINE",
"35 0 LINE",
"335 0 LINE",
"335 80 LINE",
"265 105 LINE",
"265 540 LINE"
);
},
{
closed = 1;
nodes = (
"97 646 OFFCURVE",
"129 614 OFFCURVE",
"183 614 CURVE SMOOTH",
"224 614 OFFCURVE",
"267 646 OFFCURVE",
"267 705 CURVE SMOOTH",
"267 768 OFFCURVE",
"235 795 OFFCURVE",
"183 795 CURVE SMOOTH",
"138 795 OFFCURVE",
"97 762 OFFCURVE",
"97 705 CURVE SMOOTH"
);
}
);
width = 365;
}
);
leftKerningGroup = i;
rightKerningGroup = i;
unicode = 0069;
},
{
glyphname = dotlessi;
lastChange = "2014-11-10 22:18:22 +0100";
layers = (
{
layerId = "DAACF28A-601E-43F2-B3A2-D78749C87D22";
name = Bold;
paths = (
{
closed = 1;
nodes = (
"35 532 LINE",
"35 452 LINE",
"115 432 LINE",
"115 105 LINE",
"35 80 LINE",
"35 0 LINE",
"332 0 LINE",
"332 80 LINE",
"262 105 LINE",
"262 540 LINE"
);
}
);
width = 362;
}
);
leftKerningGroup = i;
rightKerningGroup = i;
unicode = 0131;
},
{
glyphname = icircumflex;
lastChange = "2014-11-10 22:18:22 +0100";
layers = (
{
components = (
{
name = dotlessi;
transform = "{1, 0, 0, 1, 0, 0}";
}
);
layerId = "DAACF28A-601E-43F2-B3A2-D78749C87D22";
name = Bold;
paths = (
{
closed = 1;
nodes = (
"180 718 LINE",
"334 598 LINE",
"383 664 LINE",
"217 825 LINE",
"128 817 LINE",
"-28 664 LINE",
"21 598 LINE"
);
}
);
width = 363;
}
);
leftKerningGroup = i;
rightKerningGroup = i;
unicode = 00EE;
},
{
glyphname = idieresis;
lastChange = "2014-11-10 22:18:22 +0100";
layers = (
{
components = (
{
name = dotlessi;
transform = "{1, 0, 0, 1, 0, 0}";
}
);
layerId = "DAACF28A-601E-43F2-B3A2-D78749C87D22";
name = Bold;
paths = (
{
closed = 1;
nodes = (
"-1 648 OFFCURVE",
"24 620 OFFCURVE",
"71 620 CURVE SMOOTH",
"110 620 OFFCURVE",
"145 648 OFFCURVE",
"145 698 CURVE SMOOTH",
"145 747 OFFCURVE",
"120 776 OFFCURVE",
"73 776 CURVE SMOOTH",
"34 776 OFFCURVE",
"-1 747 OFFCURVE",
"-1 698 CURVE SMOOTH"
);
},
{
closed = 1;
nodes = (
"207 648 OFFCURVE",
"232 620 OFFCURVE",
"279 620 CURVE SMOOTH",
"318 620 OFFCURVE",
"353 648 OFFCURVE",
"353 698 CURVE SMOOTH",
"353 747 OFFCURVE",
"329 776 OFFCURVE",
"281 776 CURVE SMOOTH",
"243 776 OFFCURVE",
"207 747 OFFCURVE",
"207 698 CURVE SMOOTH"
);
}
);
width = 362;
}
);
leftKerningGroup = i;
rightKerningGroup = i;
unicode = 00EF;
},
{
glyphname = iogonek;
lastChange = "2014-11-10 22:18:22 +0100";
layers = (
{
components = (
{
name = i;
transform = "{1, 0, 0, 1, 0, 0}";
}
);
layerId = "DAACF28A-601E-43F2-B3A2-D78749C87D22";
name = Bold;
paths = (
{
closed = 1;
nodes = (
"186 -61 OFFCURVE",
"332 0 OFFCURVE",
"332 0 CURVE",
"192 0 LINE",
"192 0 OFFCURVE",
"71 -49 OFFCURVE",
"71 -135 CURVE SMOOTH",
"71 -203 OFFCURVE",
"121 -235 OFFCURVE",
"181 -235 CURVE SMOOTH",
"236 -235 OFFCURVE",
"283 -210 OFFCURVE",
"283 -210 CURVE",
"266 -140 LINE",
"266 -140 OFFCURVE",
"239 -146 OFFCURVE",
"223 -146 CURVE SMOOTH",
"202 -146 OFFCURVE",
"186 -134 OFFCURVE",
"186 -110 CURVE SMOOTH"
);
}
);
width = 365;
}
);
leftKerningGroup = i;
rightKerningGroup = i;
unicode = 012F;
},
{
glyphname = itilde;
lastChange = "2014-11-10 22:18:22 +0100";
layers = (
{
components = (
{
name = dotlessi;
transform = "{1, 0, 0, 1, 0, 0}";
}
);
layerId = "DAACF28A-601E-43F2-B3A2-D78749C87D22";
name = Bold;
paths = (
{
closed = 1;
nodes = (
"15 630 LINE",
"15 630 OFFCURVE",
"46 671 OFFCURVE",
"85 671 CURVE SMOOTH",
"140 671 OFFCURVE",
"179 627 OFFCURVE",
"239 627 CURVE SMOOTH",
"318 627 OFFCURVE",
"361 736 OFFCURVE",
"361 736 CURVE",
"308 782 LINE",
"308 782 OFFCURVE",
"278 740 OFFCURVE",
"242 740 CURVE SMOOTH",
"192 740 OFFCURVE",
"155 786 OFFCURVE",
"90 786 CURVE SMOOTH",
"10 786 OFFCURVE",
"-32 676 OFFCURVE",
"-32 676 CURVE"
);
}
);
width = 361;
}
);
leftKerningGroup = i;
rightKerningGroup = i;
unicode = 0129;
},
{
glyphname = j;
lastChange = "2014-11-10 22:18:22 +0100";
layers = (
{
layerId = "DAACF28A-601E-43F2-B3A2-D78749C87D22";
name = Bold;
paths = (
{
closed = 1;
nodes = (
"214 -245 OFFCURVE",
"265 -160 OFFCURVE",
"265 13 CURVE SMOOTH",
"265 540 LINE",
"35 535 LINE",
"35 455 LINE",
"115 430 LINE",
"115 -41 LINE SMOOTH",
"115 -105 OFFCURVE",
"93 -140 OFFCURVE",
"33 -140 CURVE SMOOTH",
"-19 -140 LINE",
"-31 -238 LINE",
"-31 -238 OFFCURVE",
"13 -245 OFFCURVE",
"45 -245 CURVE SMOOTH"
);
},
{
closed = 1;
nodes = (
"97 646 OFFCURVE",
"129 614 OFFCURVE",
"183 614 CURVE SMOOTH",
"228 614 OFFCURVE",
"267 650 OFFCURVE",
"267 705 CURVE SMOOTH",
"267 766 OFFCURVE",
"237 795 OFFCURVE",
"183 795 CURVE SMOOTH",
"135 795 OFFCURVE",
"97 759 OFFCURVE",
"97 705 CURVE SMOOTH"
);
}
);
width = 337;
}
);
leftKerningGroup = j;
rightKerningGroup = i;
unicode = 006A;
},
{
glyphname = dotlessj;
lastChange = "2014-11-10 22:18:22 +0100";
layers = (
{
layerId = "DAACF28A-601E-43F2-B3A2-D78749C87D22";
name = Bold;
paths = (
{
closed = 1;
nodes = (
"214 -245 OFFCURVE",
"263 -160 OFFCURVE",
"263 13 CURVE SMOOTH",
"263 540 LINE",
"35 535 LINE",
"35 455 LINE",
"115 430 LINE",
"115 -46 LINE SMOOTH",
"115 -110 OFFCURVE",
"93 -145 OFFCURVE",
"33 -145 CURVE SMOOTH",
"-19 -145 LINE",
"-31 -238 LINE",
"-31 -238 OFFCURVE",
"13 -245 OFFCURVE",
"45 -245 CURVE SMOOTH"
);
}
);
width = 333;
}
);
leftKerningGroup = j;
rightKerningGroup = i;
unicode = 0237;
},
{
glyphname = k;
lastChange = "2014-11-10 22:18:22 +0100";
layers = (
{
layerId = "DAACF28A-601E-43F2-B3A2-D78749C87D22";
name = Bold;
paths = (
{
closed = 1;
nodes = (
"20 767 LINE",
"20 687 LINE",
"100 667 LINE",
"100 105 LINE",
"20 80 LINE",
"20 0 LINE",
"305 0 LINE",
"305 80 LINE",
"250 105 LINE",
"250 244 LINE",
"314 244 LINE",
"438 0 LINE",
"623 0 LINE",
"623 80 LINE",
"547 104 LINE",
"435 311 LINE",
"528 442 LINE",
"598 455 LINE",
"598 540 LINE",
"340 535 LINE",
"340 455 LINE",
"384 441 LINE",
"316 339 LINE",
"250 339 LINE",
"250 775 LINE"
);
}
);
width = 633;
}
);
leftKerningGroup = l;
rightKerningGroup = k;
unicode = 006B;
},
{
glyphname = kgreenlandic;
lastChange = "2014-11-10 22:18:22 +0100";
layers = (
{
layerId = "DAACF28A-601E-43F2-B3A2-D78749C87D22";
name = Bold;
paths = (
{
closed = 1;
nodes = (
"35 535 LINE",
"35 455 LINE",
"115 430 LINE",
"115 105 LINE",
"35 80 LINE",
"35 0 LINE",
"320 0 LINE",
"320 80 LINE",
"265 105 LINE",
"265 244 LINE",
"329 244 LINE",
"453 0 LINE",
"638 0 LINE",
"638 80 LINE",
"562 104 LINE",
"450 311 LINE",
"543 441 LINE",
"613 457 LINE",
"613 542 LINE",
"355 535 LINE",
"355 455 LINE",
"399 440 LINE",
"330 339 LINE",
"265 339 LINE",
"265 542 LINE"
);
}
);
width = 648;
}
);
leftKerningGroup = l;
rightKerningGroup = k;
unicode = 0138;
},
{
glyphname = l;
lastChange = "2014-11-10 22:18:22 +0100";
layers = (
{
layerId = "DAACF28A-601E-43F2-B3A2-D78749C87D22";
name = Bold;
paths = (
{
closed = 1;
nodes = (
"20 767 LINE",
"20 687 LINE",
"100 667 LINE",
"100 105 LINE",
"20 80 LINE",
"20 0 LINE",
"341 0 LINE",
"341 80 LINE",
"251 105 LINE",
"251 775 LINE"
);
}
);
width = 346;
}
);
leftKerningGroup = l;
rightKerningGroup = l;
unicode = 006C;
},
{
glyphname = lcaron;
lastChange = "2014-11-10 22:18:22 +0100";
layers = (
{
components = (
{
name = l;
transform = "{1, 0, 0, 1, 0, 0}";
},
{
name = caron.x;
transform = "{1, 0, 0, 1, 308, 0}";
}
);
layerId = "DAACF28A-601E-43F2-B3A2-D78749C87D22";
name = Bold;
paths = (
{
closed = 0;
nodes = (
"189 568 LINE"
);
}
);
width = 464;
}
);
leftKerningGroup = l;
unicode = 013E;
},
{
glyphname = ldot;
lastChange = "2014-11-10 22:18:22 +0100";
layers = (
{
components = (
{
name = l;
transform = "{1, 0, 0, 1, 0, 0}";
},
{
name = periodcentered;
transform = "{1, 0, 0, 1, 265, 7}";
}
);
layerId = "DAACF28A-601E-43F2-B3A2-D78749C87D22";
name = Bold;
paths = (
{
closed = 0;
nodes = (
"187 654 LINE"
);
}
);
width = 507;
}
);
leftKerningGroup = l;
unicode = 0140;
},
{
glyphname = lslash;
lastChange = "2014-11-10 22:18:22 +0100";
layers = (
{
layerId = "DAACF28A-601E-43F2-B3A2-D78749C87D22";
name = Bold;
paths = (
{
closed = 1;
nodes = (
"67 767 LINE",
"67 687 LINE",
"147 667 LINE",
"147 406 LINE",
"25 352 LINE",
"56 246 LINE",
"147 286 LINE",
"147 105 LINE",
"67 80 LINE",
"67 0 LINE",
"393 0 LINE",
"393 80 LINE",
"298 105 LINE",
"298 347 LINE",
"421 401 LINE",
"398 512 LINE",
"298 468 LINE",
"298 775 LINE"
);
}
);
width = 431;
}
);
unicode = 0142;
},
{
glyphname = m;
lastChange = "2014-11-10 22:18:22 +0100";
layers = (
{
layerId = "DAACF28A-601E-43F2-B3A2-D78749C87D22";
name = Bold;
paths = (
{
closed = 1;
nodes = (
"900 370 LINE",
"900 482 OFFCURVE",
"851 550 OFFCURVE",
"746 550 CURVE SMOOTH",
"657 550 OFFCURVE",
"582 481 OFFCURVE",
"565 464 CURVE",
"542 517 OFFCURVE",
"498 550 OFFCURVE",
"427 550 CURVE SMOOTH",
"339 550 OFFCURVE",
"252 469 OFFCURVE",
"252 469 CURVE",
"245 540 LINE",
"36 535 LINE",
"36 455 LINE",
"112 430 LINE",
"112 105 LINE",
"35 80 LINE",
"35 0 LINE",
"315 0 LINE",
"315 80 LINE",
"262 105 LINE",
"262 373 LINE",
"262 373 OFFCURVE",
"309 425 OFFCURVE",
"374 425 CURVE SMOOTH",
"417 425 OFFCURVE",
"431 398 OFFCURVE",
"431 343 CURVE SMOOTH",
"431 105 LINE",
"379 80 LINE",
"379 0 LINE",
"633 0 LINE",
"633 80 LINE",
"581 105 LINE",
"581 373 LINE",
"581 373 OFFCURVE",
"627 425 OFFCURVE",
"692 425 CURVE SMOOTH",
"734 425 OFFCURVE",
"750 398 OFFCURVE",
"750 343 CURVE SMOOTH",
"750 105 LINE",
"697 80 LINE",
"697 0 LINE",
"968 0 LINE",
"968 80 LINE",
"900 105 LINE"
);
}
);
width = 993;
}
);
leftKerningGroup = n;
rightKerningGroup = n;
unicode = 006D;
},
{
glyphname = n;
lastChange = "2014-11-10 22:18:22 +0100";
layers = (
{
layerId = "DAACF28A-601E-43F2-B3A2-D78749C87D22";
name = Bold;
paths = (
{
closed = 1;
nodes = (
"35 535 LINE",
"35 455 LINE",
"115 430 LINE",
"115 105 LINE",
"35 80 LINE",
"35 0 LINE",
"320 0 LINE",
"320 80 LINE",
"265 105 LINE",
"265 366 LINE",
"265 366 OFFCURVE",
"310 423 OFFCURVE",
"372 423 CURVE SMOOTH",
"414 423 OFFCURVE",
"440 389 OFFCURVE",
"440 343 CURVE SMOOTH",
"440 105 LINE",
"385 80 LINE",
"385 0 LINE",
"660 0 LINE",
"660 80 LINE",
"590 105 LINE",
"590 370 LINE SMOOTH",
"590 479 OFFCURVE",
"535 548 OFFCURVE",
"438 548 CURVE SMOOTH",
"349 548 OFFCURVE",
"254 471 OFFCURVE",
"254 471 CURVE",
"247 540 LINE"
);
}
);
width = 685;
}
);
leftKerningGroup = n;
rightKerningGroup = n;
unicode = 006E;
},
{
glyphname = napostrophe;
lastChange = "2014-11-10 22:18:22 +0100";
layers = (
{
components = (
{
name = n;
transform = "{1, 0, 0, 1, 0, 0}";
}
);
guideLines = (
{
position = "{218, 576}";
}
);
layerId = "DAACF28A-601E-43F2-B3A2-D78749C87D22";
name = Bold;
paths = (
{
closed = 1;
nodes = (
"31 570 LINE",
"87 617 OFFCURVE",
"146 680 OFFCURVE",
"146 750 CURVE SMOOTH",
"146 794 OFFCURVE",
"115 829 OFFCURVE",
"70 829 CURVE SMOOTH",
"25 829 OFFCURVE",
"-9 799 OFFCURVE",
"-9 759 CURVE SMOOTH",
"-9 730 OFFCURVE",
"12 709 OFFCURVE",
"12 691 CURVE SMOOTH",
"12 673 OFFCURVE",
"-20 639 OFFCURVE",
"-33 618 CURVE"
);
}
);
width = 685;
}
);
leftKerningGroup = n;
rightKerningGroup = n;
unicode = 0149;
},
{
glyphname = eng;
lastChange = "2014-11-10 22:18:22 +0100";
layers = (
{
layerId = "DAACF28A-601E-43F2-B3A2-D78749C87D22";
name = Bold;
paths = (
{
closed = 1;
nodes = (
"247 540 LINE",
"35 535 LINE",
"35 455 LINE",
"115 430 LINE",
"115 105 LINE",
"35 80 LINE",
"35 0 LINE",
"317 0 LINE",
"317 80 LINE",
"265 105 LINE",
"265 370 LINE",
"265 370 OFFCURVE",
"310 427 OFFCURVE",
"372 427 CURVE SMOOTH",
"414 427 OFFCURVE",
"440 393 OFFCURVE",
"440 347 CURVE SMOOTH",
"440 -40 LINE SMOOTH",
"440 -106 OFFCURVE",
"417 -145 OFFCURVE",
"357 -145 CURVE SMOOTH",
"305 -145 LINE",
"293 -238 LINE",
"293 -238 OFFCURVE",
"337 -245 OFFCURVE",
"369 -245 CURVE SMOOTH",
"541 -245 OFFCURVE",
"590 -157 OFFCURVE",
"590 18 CURVE SMOOTH",
"590 370 LINE SMOOTH",
"590 479 OFFCURVE",
"538 548 OFFCURVE",
"438 548 CURVE SMOOTH",
"349 548 OFFCURVE",
"254 471 OFFCURVE",
"254 471 CURVE"
);
}
);
width = 660;
}
);
leftKerningGroup = n;
rightKerningGroup = j;
unicode = 014B;
},
{
glyphname = o;
lastChange = "2014-11-10 22:18:22 +0100";
layers = (
{
layerId = "DAACF28A-601E-43F2-B3A2-D78749C87D22";
name = Bold;
paths = (
{
closed = 1;
nodes = (
"142 550 OFFCURVE",
"35 445 OFFCURVE",
"35 265 CURVE SMOOTH",
"35 75 OFFCURVE",
"127 -10 OFFCURVE",
"290 -10 CURVE SMOOTH",
"452 -10 OFFCURVE",
"557 100 OFFCURVE",
"557 280 CURVE SMOOTH",
"557 452 OFFCURVE",
"467 550 OFFCURVE",
"305 550 CURVE SMOOTH"
);
},
{
closed = 1;
nodes = (
"372 430 OFFCURVE",
"402 377 OFFCURVE",
"402 275 CURVE SMOOTH",
"402 155 OFFCURVE",
"367 110 OFFCURVE",
"295 110 CURVE SMOOTH",
"222 110 OFFCURVE",
"190 160 OFFCURVE",
"190 270 CURVE SMOOTH",
"190 390 OFFCURVE",
"227 430 OFFCURVE",
"300 430 CURVE SMOOTH"
);
}
);
width = 592;
}
);
leftKerningGroup = o;
rightKerningGroup = o;
unicode = 006F;
},
{
glyphname = oslash;
lastChange = "2014-11-10 22:18:22 +0100";
layers = (
{
layerId = "DAACF28A-601E-43F2-B3A2-D78749C87D22";
name = Bold;
paths = (
{
closed = 1;
nodes = (
"119 -117 LINE",
"192 4 LINE",
"222 -4 OFFCURVE",
"257 -10 OFFCURVE",
"295 -10 CURVE SMOOTH",
"457 -10 OFFCURVE",
"562 100 OFFCURVE",
"562 280 CURVE SMOOTH",
"562 374 OFFCURVE",
"535 446 OFFCURVE",
"484 492 CURVE",
"549 601 LINE",
"474 643 LINE",
"409 534 LINE",
"379 544 OFFCURVE",
"346 550 OFFCURVE",
"310 550 CURVE SMOOTH",
"147 550 OFFCURVE",
"40 445 OFFCURVE",
"40 265 CURVE SMOOTH",
"40 162 OFFCURVE",
"66 90 OFFCURVE",
"116 46 CURVE",
"44 -75 LINE"
);
},
{
closed = 1;
nodes = (
"407 154 OFFCURVE",
"374 105 OFFCURVE",
"300 105 CURVE SMOOTH",
"283 105 OFFCURVE",
"269 107 OFFCURVE",
"257 113 CURVE",
"396 345 LINE",
"404 326 OFFCURVE",
"407 302 OFFCURVE",
"407 275 CURVE SMOOTH"
);
},
{
closed = 1;
nodes = (
"320 435 OFFCURVE",
"333 432 OFFCURVE",
"344 427 CURVE",
"206 196 LINE",
"199 216 OFFCURVE",
"195 239 OFFCURVE",
"195 269 CURVE SMOOTH",
"195 391 OFFCURVE",
"229 435 OFFCURVE",
"305 435 CURVE SMOOTH"
);
}
);
width = 602;
}
);
leftKerningGroup = o;
rightKerningGroup = o;
unicode = 00F8;
},
{
glyphname = oe;
lastChange = "2014-11-10 22:18:22 +0100";
layers = (
{
layerId = "DAACF28A-601E-43F2-B3A2-D78749C87D22";
name = Bold;
paths = (
{
closed = 1;
nodes = (
"143 550 OFFCURVE",
"35 445 OFFCURVE",
"35 265 CURVE SMOOTH",
"35 75 OFFCURVE",
"128 -10 OFFCURVE",
"288 -10 CURVE SMOOTH",
"370 -10 OFFCURVE",
"434 24 OFFCURVE",
"478 77 CURVE",
"518 22 OFFCURVE",
"580 -10 OFFCURVE",
"666 -10 CURVE SMOOTH",
"791 -10 OFFCURVE",
"891 74 OFFCURVE",
"891 74 CURVE",
"848 157 LINE",
"814 141 OFFCURVE",
"760 110 OFFCURVE",
"680 110 CURVE SMOOTH",
"612 110 OFFCURVE",
"566 157 OFFCURVE",
"560 237 CURVE",
"892 240 LINE",
"892 240 OFFCURVE",
"898 277 OFFCURVE",
"898 315 CURVE SMOOTH",
"898 458 OFFCURVE",
"819 550 OFFCURVE",
"673 550 CURVE SMOOTH",
"594 550 OFFCURVE",
"531 518 OFFCURVE",
"489 464 CURVE",
"447 518 OFFCURVE",
"383 550 OFFCURVE",
"303 550 CURVE SMOOTH"
);
},
{
closed = 1;
nodes = (
"373 430 OFFCURVE",
"405 377 OFFCURVE",
"405 275 CURVE SMOOTH",
"405 155 OFFCURVE",
"368 110 OFFCURVE",
"295 110 CURVE SMOOTH",
"223 110 OFFCURVE",
"190 160 OFFCURVE",
"190 270 CURVE SMOOTH",
"190 390 OFFCURVE",
"228 430 OFFCURVE",
"300 430 CURVE SMOOTH"
);
},
{
closed = 1;
nodes = (
"718 430 OFFCURVE",
"742 387 OFFCURVE",
"742 330 CURVE",
"562 330 LINE",
"570 389 OFFCURVE",
"605 430 OFFCURVE",
"660 430 CURVE SMOOTH"
);
}
);
width = 928;
}
);
leftKerningGroup = o;
rightKerningGroup = e;
unicode = 0153;
},
{
glyphname = p;
lastChange = "2014-11-10 22:18:22 +0100";
layers = (
{
layerId = "DAACF28A-601E-43F2-B3A2-D78749C87D22";
name = Bold;
paths = (
{
closed = 1;
nodes = (
"100 430 LINE",
"100 -127 LINE",
"22 -150 LINE",
"22 -230 LINE",
"345 -230 LINE",
"345 -150 LINE",
"250 -127 LINE",
"250 0 LINE",
"276 -6 OFFCURVE",
"306 -10 OFFCURVE",
"335 -10 CURVE SMOOTH",
"510 -10 OFFCURVE",
"598 100 OFFCURVE",
"598 285 CURVE SMOOTH",
"598 447 OFFCURVE",
"529 550 OFFCURVE",
"390 550 CURVE SMOOTH",
"310 550 OFFCURVE",
"242 484 OFFCURVE",
"242 484 CURVE",
"233 540 LINE",
"20 535 LINE",
"20 455 LINE"
);
},
{
closed = 1;
nodes = (
"250 375 LINE",
"250 375 OFFCURVE",
"278 430 OFFCURVE",
"343 430 CURVE SMOOTH",
"416 430 OFFCURVE",
"443 368 OFFCURVE",
"443 267 CURVE SMOOTH",
"443 165 OFFCURVE",
"414 105 OFFCURVE",
"328 105 CURVE SMOOTH",
"290 105 OFFCURVE",
"266 113 OFFCURVE",
"250 120 CURVE"
);
}
);
width = 638;
}
);
leftKerningGroup = p;
rightKerningGroup = o;
unicode = 0070;
},
{
glyphname = thorn;
lastChange = "2014-11-10 22:18:22 +0100";
layers = (
{
layerId = "DAACF28A-601E-43F2-B3A2-D78749C87D22";
name = Bold;
paths = (
{
closed = 1;
nodes = (
"20 767 LINE",
"20 687 LINE",
"100 667 LINE",
"100 -132 LINE",
"22 -155 LINE",
"22 -235 LINE",
"355 -235 LINE",
"355 -155 LINE",
"250 -132 LINE",
"250 -2 LINE",
"250 -2 OFFCURVE",
"284 -10 OFFCURVE",
"310 -10 CURVE SMOOTH",
"502 -10 OFFCURVE",
"595 100 OFFCURVE",
"595 285 CURVE SMOOTH",
"595 445 OFFCURVE",
"525 550 OFFCURVE",
"392 550 CURVE SMOOTH",
"305 550 OFFCURVE",
"250 492 OFFCURVE",
"250 492 CURVE",
"250 775 LINE"
);
},
{
closed = 1;
nodes = (
"250 383 LINE",
"250 383 OFFCURVE",
"282 430 OFFCURVE",
"342 430 CURVE SMOOTH",
"410 430 OFFCURVE",
"440 375 OFFCURVE",
"440 275 CURVE SMOOTH",
"440 174 OFFCURVE",
"411 105 OFFCURVE",
"326 105 CURVE SMOOTH",
"275 105 OFFCURVE",
"250 118 OFFCURVE",
"250 118 CURVE"
);
}
);
width = 630;
}
);
leftKerningGroup = l;
rightKerningGroup = o;
unicode = 00FE;
},
{
glyphname = q;
lastChange = "2014-11-10 22:18:22 +0100";
layers = (
{
layerId = "DAACF28A-601E-43F2-B3A2-D78749C87D22";
name = Bold;
paths = (
{
closed = 1;
nodes = (
"533 -125 LINE",
"533 526 LINE",
"533 526 OFFCURVE",
"435 550 OFFCURVE",
"325 550 CURVE SMOOTH",
"133 550 OFFCURVE",
"35 437 OFFCURVE",
"35 255 CURVE SMOOTH",
"35 95 OFFCURVE",
"100 -10 OFFCURVE",
"240 -10 CURVE SMOOTH",
"317 -10 OFFCURVE",
"383 44 OFFCURVE",
"383 44 CURVE",
"383 -125 LINE",
"288 -150 LINE",
"288 -230 LINE",
"608 -230 LINE",
"608 -150 LINE"
);
},
{
closed = 1;
nodes = (
"383 155 LINE",
"383 155 OFFCURVE",
"351 110 OFFCURVE",
"289 110 CURVE SMOOTH",
"218 110 OFFCURVE",
"190 165 OFFCURVE",
"190 265 CURVE SMOOTH",
"190 365 OFFCURVE",
"222 435 OFFCURVE",
"305 435 CURVE SMOOTH",
"355 435 OFFCURVE",
"383 427 OFFCURVE",
"383 427 CURVE"
);
}
);
width = 598;
}
);
leftKerningGroup = o;
rightKerningGroup = q;
unicode = 0071;
},
{
glyphname = r;
lastChange = "2014-11-10 22:18:22 +0100";
layers = (
{
layerId = "DAACF28A-601E-43F2-B3A2-D78749C87D22";
name = Bold;
paths = (
{
closed = 1;
nodes = (
"35 535 LINE",
"35 455 LINE",
"115 430 LINE",
"115 105 LINE",
"35 80 LINE",
"35 0 LINE",
"365 0 LINE",
"365 80 LINE",
"265 105 LINE",
"265 369 LINE",
"265 369 OFFCURVE",
"315 425 OFFCURVE",
"373 425 CURVE",
"388 340 LINE",
"478 340 LINE",
"486 532 LINE",
"486 532 OFFCURVE",
"448 550 OFFCURVE",
"393 550 CURVE SMOOTH",
"326 550 OFFCURVE",
"254 471 OFFCURVE",
"254 471 CURVE",
"245 540 LINE"
);
}
);
width = 491;
}
);
leftKerningGroup = n;
rightKerningGroup = r;
unicode = 0072;
},
{
glyphname = s;
lastChange = "2014-11-10 22:18:22 +0100";
layers = (
{
layerId = "DAACF28A-601E-43F2-B3A2-D78749C87D22";
name = Bold;
paths = (
{
closed = 1;
nodes = (
"128 175 LINE",
"38 175 LINE",
"38 12 LINE",
"38 12 OFFCURVE",
"127 -10 OFFCURVE",
"222 -10 CURVE SMOOTH",
"359 -10 OFFCURVE",
"452 55 OFFCURVE",
"452 170 CURVE SMOOTH",
"452 343 OFFCURVE",
"185 308 OFFCURVE",
"185 389 CURVE SMOOTH",
"185 422 OFFCURVE",
"211 440 OFFCURVE",
"254 440 CURVE SMOOTH",
"294 440 OFFCURVE",
"323 430 OFFCURVE",
"323 430 CURVE",
"338 370 LINE",
"423 370 LINE",
"427 520 LINE",
"427 520 OFFCURVE",
"331 550 OFFCURVE",
"241 550 CURVE SMOOTH",
"135 550 OFFCURVE",
"35 504 OFFCURVE",
"35 379 CURVE SMOOTH",
"35 201 OFFCURVE",
"302 231 OFFCURVE",
"302 149 CURVE SMOOTH",
"302 117 OFFCURVE",
"275 100 OFFCURVE",
"220 100 CURVE SMOOTH",
"171 100 OFFCURVE",
"136 110 OFFCURVE",
"136 110 CURVE"
);
}
);
width = 487;
}
);
leftKerningGroup = s;
rightKerningGroup = s;
unicode = 0073;
},
{
glyphname = germandbls;
lastChange = "2014-11-10 22:18:22 +0100";
layers = (
{
layerId = "DAACF28A-601E-43F2-B3A2-D78749C87D22";
name = Bold;
paths = (
{
closed = 1;
nodes = (
"133 530 LINE",
"35 515 LINE",
"35 430 LINE",
"133 430 LINE",
"133 105 LINE",
"53 80 LINE",
"53 0 LINE",
"283 0 LINE",
"283 577 LINE SMOOTH",
"283 639 OFFCURVE",
"319 677 OFFCURVE",
"380 677 CURVE SMOOTH",
"431 677 OFFCURVE",
"483 650 OFFCURVE",
"483 597 CURVE SMOOTH",
"483 515 OFFCURVE",
"365 508 OFFCURVE",
"365 391 CURVE SMOOTH",
"365 214 OFFCURVE",
"596 237 OFFCURVE",
"596 149 CURVE SMOOTH",
"596 116 OFFCURVE",
"572 95 OFFCURVE",
"524 95 CURVE SMOOTH",
"485 95 OFFCURVE",
"458 106 OFFCURVE",
"458 106 CURVE",
"448 173 LINE",
"358 173 LINE",
"358 12 LINE",
"358 12 OFFCURVE",
"449 -10 OFFCURVE",
"529 -10 CURVE SMOOTH",
"657 -10 OFFCURVE",
"748 62 OFFCURVE",
"748 172 CURVE SMOOTH",
"748 342 OFFCURVE",
"517 317 OFFCURVE",
"517 410 CURVE SMOOTH",
"517 479 OFFCURVE",
"630 500 OFFCURVE",
"630 618 CURVE SMOOTH",
"630 720 OFFCURVE",
"541 787 OFFCURVE",
"378 787 CURVE SMOOTH",
"232 787 OFFCURVE",
"133 701 OFFCURVE",
"133 570 CURVE SMOOTH"
);
}
);
width = 753;
}
);
leftKerningGroup = f;
unicode = 00DF;
},
{
glyphname = longs;
lastChange = "2014-11-10 22:18:22 +0100";
layers = (
{
layerId = "DAACF28A-601E-43F2-B3A2-D78749C87D22";
name = Bold;
paths = (
{
closed = 1;
nodes = (
"130 105 LINE",
"50 80 LINE",
"50 0 LINE",
"374 0 LINE",
"374 80 LINE",
"278 105 LINE",
"278 592 LINE SMOOTH",
"278 647 OFFCURVE",
"300 680 OFFCURVE",
"355 680 CURVE SMOOTH",
"388 680 OFFCURVE",
"408 676 OFFCURVE",
"408 676 CURVE",
"423 602 LINE",
"510 602 LINE",
"513 750 LINE",
"513 750 OFFCURVE",
"451 787 OFFCURVE",
"343 787 CURVE SMOOTH",
"203 787 OFFCURVE",
"130 702 OFFCURVE",
"130 575 CURVE SMOOTH"
);
}
);
width = 448;
}
);
leftKerningGroup = germandbls;
rightKerningGroup = f;
unicode = 017F;
},
{
glyphname = t;
lastChange = "2014-11-10 22:18:22 +0100";
layers = (
{
layerId = "DAACF28A-601E-43F2-B3A2-D78749C87D22";
name = Bold;
paths = (
{
closed = 1;
nodes = (
"321 -10 OFFCURVE",
"377 16 OFFCURVE",
"426 52 CURVE",
"390 128 LINE",
"377 121 OFFCURVE",
"338 105 OFFCURVE",
"311 105 CURVE SMOOTH",
"269 105 OFFCURVE",
"258 131 OFFCURVE",
"258 195 CURVE SMOOTH",
"258 415 LINE",
"398 415 LINE",
"398 525 LINE",
"258 525 LINE",
"258 690 LINE",
"108 663 LINE",
"108 525 LINE",
"15 512 LINE",
"15 415 LINE",
"108 415 LINE",
"108 185 LINE SMOOTH",
"108 70 OFFCURVE",
"141 -10 OFFCURVE",
"256 -10 CURVE SMOOTH"
);
}
);
width = 436;
}
);
leftKerningGroup = t;
rightKerningGroup = t;
unicode = 0074;
},
{
glyphname = tbar;
lastChange = "2014-11-10 22:18:22 +0100";
layers = (
{
components = (
{
name = t;
transform = "{1, 0, 0, 1, 5, 0}";
}
);
guideLines = (
{
angle = 90;
position = "{22, 384}";
},
{
angle = 90;
position = "{402, 384}";
}
);
layerId = "DAACF28A-601E-43F2-B3A2-D78749C87D22";
name = Bold;
paths = (
{
closed = 1;
nodes = (
"22 257 LINE",
"402 257 LINE",
"402 337 LINE",
"22 337 LINE"
);
}
);
width = 446;
}
);
leftKerningGroup = t;
rightKerningGroup = t;
unicode = 0167;
},
{
glyphname = tcaron;
lastChange = "2014-11-10 22:18:22 +0100";
layers = (
{
components = (
{
name = t;
transform = "{1, 0, 0, 1, 0, 0}";
},
{
name = caron.x;
transform = "{1, 0, 0, 1, 308, 50}";
}
);
layerId = "DAACF28A-601E-43F2-B3A2-D78749C87D22";
name = Bold;
paths = (
{
closed = 0;
nodes = (
"182 466 LINE"
);
}
);
width = 459;
}
);
leftKerningGroup = t;
unicode = 0165;
},
{
glyphname = u;
lastChange = "2014-11-10 22:18:22 +0100";
layers = (
{
layerId = "DAACF28A-601E-43F2-B3A2-D78749C87D22";
name = Bold;
paths = (
{
closed = 1;
nodes = (
"95 169 LINE",
"95 57 OFFCURVE",
"153 -10 OFFCURVE",
"253 -10 CURVE SMOOTH",
"348 -10 OFFCURVE",
"428 70 OFFCURVE",
"428 70 CURVE",
"438 0 LINE",
"649 7 LINE",
"649 85 LINE",
"569 105 LINE",
"569 540 LINE",
"339 535 LINE",
"339 455 LINE",
"419 430 LINE",
"419 169 LINE",
"419 169 OFFCURVE",
"371 115 OFFCURVE",
"306 115 CURVE SMOOTH",
"261 115 OFFCURVE",
"245 140 OFFCURVE",
"245 195 CURVE SMOOTH",
"245 540 LINE",
"15 535 LINE",
"15 455 LINE",
"95 430 LINE"
);
}
);
width = 669;
}
);
leftKerningGroup = u;
rightKerningGroup = u;
unicode = 0075;
},
{
glyphname = uogonek;
lastChange = "2014-11-10 22:18:22 +0100";
layers = (
{
components = (
{
name = u;
transform = "{1, 0, 0, 1, 0, 0}";
}
);
layerId = "DAACF28A-601E-43F2-B3A2-D78749C87D22";
name = Bold;
paths = (
{
closed = 1;
nodes = (
"521 3 LINE",
"500 -6 OFFCURVE",
"416 -58 OFFCURVE",
"416 -135 CURVE SMOOTH",
"416 -203 OFFCURVE",
"467 -235 OFFCURVE",
"526 -235 CURVE SMOOTH",
"581 -235 OFFCURVE",
"629 -210 OFFCURVE",
"629 -210 CURVE",
"612 -140 LINE",
"612 -140 OFFCURVE",
"585 -146 OFFCURVE",
"569 -146 CURVE SMOOTH",
"548 -146 OFFCURVE",
"531 -134 OFFCURVE",
"531 -110 CURVE SMOOTH",
"531 -58 OFFCURVE",
"649 7 OFFCURVE",
"649 7 CURVE"
);
}
);
width = 658;
}
);
leftKerningGroup = u;
rightKerningGroup = u;
unicode = 0173;
},
{
glyphname = v;
lastChange = "2014-11-10 22:18:22 +0100";
layers = (
{
layerId = "DAACF28A-601E-43F2-B3A2-D78749C87D22";
name = Bold;
paths = (
{
closed = 1;
nodes = (
"302 150 LINE",
"211 445 LINE",
"267 455 LINE",
"267 540 LINE",
"5 535 LINE",
"5 455 LINE",
"53 439 LINE",
"211 0 LINE",
"376 0 LINE",
"537 442 LINE",
"594 455 LINE",
"594 540 LINE",
"332 535 LINE",
"332 455 LINE",
"390 442 LINE"
);
}
);
width = 599;
}
);
leftKerningGroup = v;
rightKerningGroup = v;
unicode = 0076;
},
{
glyphname = w;
lastChange = "2014-11-10 22:18:22 +0100";
layers = (
{
layerId = "DAACF28A-601E-43F2-B3A2-D78749C87D22";
name = Bold;
paths = (
{
closed = 1;
nodes = (
"508 545 LINE",
"376 523 LINE",
"270 162 LINE",
"204 443 LINE",
"267 455 LINE",
"267 540 LINE",
"5 535 LINE",
"5 455 LINE",
"49 441 LINE",
"185 0 LINE",
"337 0 LINE",
"410 224 LINE",
"435 333 LINE",
"453 255 LINE",
"532 0 LINE",
"685 0 LINE",
"818 443 LINE",
"871 455 LINE",
"871 540 LINE",
"615 535 LINE",
"615 455 LINE",
"676 440 LINE",
"617 162 LINE"
);
}
);
width = 876;
}
);
leftKerningGroup = v;
rightKerningGroup = v;
unicode = 0077;
},
{
glyphname = x;
lastChange = "2014-11-10 22:18:22 +0100";
layers = (
{
layerId = "DAACF28A-601E-43F2-B3A2-D78749C87D22";
name = Bold;
paths = (
{
closed = 1;
nodes = (
"400 535 LINE",
"296 361 LINE",
"244 449 LINE",
"274 455 LINE",
"274 540 LINE",
"15 535 LINE",
"15 455 LINE",
"69 442 LINE",
"190 265 LINE",
"80 100 LINE",
"5 80 LINE",
"5 0 LINE",
"175 0 LINE",
"283 179 LINE",
"336 91 LINE",
"305 80 LINE",
"305 0 LINE",
"577 0 LINE",
"577 80 LINE",
"503 100 LINE",
"390 270 LINE",
"505 442 LINE",
"567 455 LINE",
"567 540 LINE"
);
}
);
width = 582;
}
);
leftKerningGroup = x;
rightKerningGroup = x;
unicode = 0078;
},
{
glyphname = y;
lastChange = "2014-11-10 22:18:22 +0100";
layers = (
{
layerId = "DAACF28A-601E-43F2-B3A2-D78749C87D22";
name = Bold;
paths = (
{
closed = 1;
nodes = (
"236 -1 LINE",
"219 -40 OFFCURVE",
"182 -125 OFFCURVE",
"102 -125 CURVE SMOOTH",
"37 -125 LINE",
"23 -232 LINE",
"23 -232 OFFCURVE",
"86 -240 OFFCURVE",
"120 -240 CURVE SMOOTH",
"279 -240 OFFCURVE",
"344 -100 OFFCURVE",
"392 32 CURVE SMOOTH",
"539 442 LINE",
"601 455 LINE",
"601 540 LINE",
"332 535 LINE",
"332 455 LINE",
"390 442 LINE",
"305 165 LINE",
"216 445 LINE",
"272 455 LINE",
"272 540 LINE",
"5 535 LINE",
"5 455 LINE",
"58 439 LINE"
);
}
);
width = 601;
}
);
leftKerningGroup = y;
rightKerningGroup = y;
unicode = 0079;
},
{
glyphname = z;
lastChange = "2014-11-10 22:18:22 +0100";
layers = (
{
layerId = "DAACF28A-601E-43F2-B3A2-D78749C87D22";
name = Bold;
paths = (
{
closed = 1;
nodes = (
"52 540 LINE",
"52 357 LINE",
"142 357 LINE",
"157 430 LINE",
"294 430 LINE",
"40 92 LINE",
"40 0 LINE",
"475 0 LINE",
"475 195 LINE",
"385 195 LINE",
"368 110 LINE",
"222 110 LINE",
"472 447 LINE",
"472 540 LINE"
);
}
);
width = 505;
}
);
leftKerningGroup = z;
rightKerningGroup = z;
unicode = 007A;
},
{
glyphname = fi;
lastChange = "2014-11-10 22:18:22 +0100";
layers = (
{
layerId = "DAACF28A-601E-43F2-B3A2-D78749C87D22";
name = Bold;
paths = (
{
closed = 1;
nodes = (
"130 532 LINE",
"40 515 LINE",
"40 432 LINE",
"130 432 LINE",
"130 105 LINE",
"50 80 LINE",
"50 0 LINE",
"350 0 LINE",
"350 80 LINE",
"280 105 LINE",
"280 432 LINE",
"505 432 LINE",
"505 105 LINE",
"435 80 LINE",
"435 0 LINE",
"725 0 LINE",
"725 80 LINE",
"655 105 LINE",
"655 540 LINE",
"280 532 LINE",
"280 590 LINE SMOOTH",
"280 641 OFFCURVE",
"307 677 OFFCURVE",
"402 677 CURVE SMOOTH",
"451 677 OFFCURVE",
"510 669 OFFCURVE",
"510 669 CURVE",
"523 609 LINE",
"633 609 LINE",
"635 750 LINE",
"635 750 OFFCURVE",
"525 787 OFFCURVE",
"392 787 CURVE SMOOTH",
"198 787 OFFCURVE",
"130 707 OFFCURVE",
"130 572 CURVE SMOOTH"
);
}
);
width = 755;
}
);
leftKerningGroup = f;
rightKerningGroup = i;
unicode = FB01;
},
{
glyphname = fl;
lastChange = "2014-11-10 22:18:22 +0100";
layers = (
{
layerId = "DAACF28A-601E-43F2-B3A2-D78749C87D22";
name = Bold;
paths = (
{
closed = 1;
nodes = (
"130 530 LINE",
"40 515 LINE",
"40 430 LINE",
"130 430 LINE",
"130 105 LINE",
"50 80 LINE",
"50 0 LINE",
"350 0 LINE",
"350 80 LINE",
"280 105 LINE",
"280 430 LINE",
"407 430 LINE",
"410 530 LINE",
"280 530 LINE",
"280 595 LINE SMOOTH",
"280 644 OFFCURVE",
"315 677 OFFCURVE",
"397 677 CURVE SMOOTH",
"446 677 OFFCURVE",
"503 668 OFFCURVE",
"503 668 CURVE",
"503 105 LINE",
"433 80 LINE",
"433 0 LINE",
"743 0 LINE",
"743 80 LINE",
"653 105 LINE",
"653 762 LINE",
"653 762 OFFCURVE",
"523 787 OFFCURVE",
"385 787 CURVE SMOOTH",
"206 787 OFFCURVE",
"130 708 OFFCURVE",
"130 577 CURVE SMOOTH"
);
}
);
width = 748;
}
);
leftKerningGroup = f;
rightKerningGroup = l;
unicode = FB02;
},
{
glyphname = ordfeminine;
lastChange = "2014-11-10 22:18:22 +0100";
layers = (
{
layerId = "DAACF28A-601E-43F2-B3A2-D78749C87D22";
name = Bold;
paths = (
{
closed = 1;
nodes = (
"55 135 LINE",
"428 135 LINE",
"428 235 LINE",
"55 235 LINE"
);
},
{
closed = 1;
nodes = (
"428 328 LINE",
"428 394 LINE",
"375 406 LINE",
"375 574 LINE SMOOTH",
"375 674 OFFCURVE",
"338 717 OFFCURVE",
"227 717 CURVE SMOOTH",
"159 717 OFFCURVE",
"64 688 OFFCURVE",
"64 688 CURVE",
"70 579 LINE",
"141 579 LINE",
"150 622 LINE",
"150 622 OFFCURVE",
"178 631 OFFCURVE",
"212 631 CURVE SMOOTH",
"243 631 OFFCURVE",
"262 614 OFFCURVE",
"262 585 CURVE SMOOTH",
"262 549 LINE",
"216 549 LINE SMOOTH",
"106 549 OFFCURVE",
"45 514 OFFCURVE",
"45 431 CURVE SMOOTH",
"45 356 OFFCURVE",
"86 315 OFFCURVE",
"158 315 CURVE SMOOTH",
"225 315 OFFCURVE",
"275 372 OFFCURVE",
"275 372 CURVE",
"289 322 LINE"
);
},
{
closed = 1;
nodes = (
"153 471 OFFCURVE",
"175 484 OFFCURVE",
"223 484 CURVE SMOOTH",
"262 484 LINE",
"262 437 LINE",
"262 437 OFFCURVE",
"229 403 OFFCURVE",
"193 403 CURVE SMOOTH",
"169 403 OFFCURVE",
"153 417 OFFCURVE",
"153 439 CURVE SMOOTH"
);
}
);
width = 488;
}
);
unicode = 00AA;
},
{
glyphname = ordmasculine;
lastChange = "2014-11-10 22:18:22 +0100";
layers = (
{
layerId = "DAACF28A-601E-43F2-B3A2-D78749C87D22";
name = Bold;
paths = (
{
closed = 1;
nodes = (
"132 717 OFFCURVE",
"45 638 OFFCURVE",
"45 510 CURVE SMOOTH",
"45 378 OFFCURVE",
"121 315 OFFCURVE",
"237 315 CURVE SMOOTH",
"356 315 OFFCURVE",
"439 401 OFFCURVE",
"439 524 CURVE SMOOTH",
"439 647 OFFCURVE",
"366 717 OFFCURVE",
"249 717 CURVE SMOOTH"
);
},
{
closed = 1;
nodes = (
"293 625 OFFCURVE",
"314 588 OFFCURVE",
"314 520 CURVE SMOOTH",
"314 443 OFFCURVE",
"290 407 OFFCURVE",
"242 407 CURVE SMOOTH",
"194 407 OFFCURVE",
"170 445 OFFCURVE",
"170 514 CURVE SMOOTH",
"170 589 OFFCURVE",
"196 625 OFFCURVE",
"244 625 CURVE SMOOTH"
);
},
{
closed = 1;
nodes = (
"53 135 LINE",
"431 135 LINE",
"431 235 LINE",
"53 235 LINE"
);
}
);
width = 504;
}
);
unicode = 00BA;
},
{
glyphname = nsuperior;
lastChange = "2014-11-10 22:18:22 +0100";
layers = (
{
layerId = "DAACF28A-601E-43F2-B3A2-D78749C87D22";
name = Bold;
paths = (
{
closed = 1;
nodes = (
"40 703 LINE",
"40 640 LINE",
"90 626 LINE",
"90 403 LINE",
"40 386 LINE",
"40 323 LINE",
"238 323 LINE",
"238 387 LINE",
"203 403 LINE",
"203 582 LINE",
"203 582 OFFCURVE",
"238 628 OFFCURVE",
"279 628 CURVE SMOOTH",
"309 628 OFFCURVE",
"328 604 OFFCURVE",
"328 571 CURVE SMOOTH",
"328 403 LINE",
"293 387 LINE",
"293 323 LINE",
"489 323 LINE",
"489 386 LINE",
"439 403 LINE",
"439 587 LINE SMOOTH",
"439 670 OFFCURVE",
"401 714 OFFCURVE",
"326 714 CURVE SMOOTH",
"262 714 OFFCURVE",
"195 659 OFFCURVE",
"195 659 CURVE",
"190 709 LINE"
);
}
);
width = 544;
}
);
unicode = 207F;
},
{
glyphname = "Be-cy";
lastChange = "2014-11-10 22:18:22 +0100";
layers = (
{
guideLines = (
{
position = "{571, 402}";
}
);
layerId = "DAACF28A-601E-43F2-B3A2-D78749C87D22";
name = Bold;
paths = (
{
closed = 1;
nodes = (
"272 402 LINE",
"272 0 LINE",
"353 0 LINE SMOOTH",
"515 0 OFFCURVE",
"615 70 OFFCURVE",
"615 212 CURVE SMOOTH",
"615 342 OFFCURVE",
"510 402 OFFCURVE",
"370 402 CURVE SMOOTH"
);
},
{
closed = 1;
nodes = (
"333 297 LINE",
"413 297 OFFCURVE",
"455 267 OFFCURVE",
"455 212 CURVE SMOOTH",
"455 162 OFFCURVE",
"418 120 OFFCURVE",
"348 120 CURVE SMOOTH",
"272 120 LINE",
"272 297 LINE"
);
},
{
closed = 1;
nodes = (
"272 705 LINE",
"42 700 LINE",
"42 615 LINE",
"117 585 LINE",
"117 115 LINE",
"35 85 LINE",
"35 0 LINE",
"272 0 LINE",
"272 585 LINE",
"457 585 LINE",
"482 499 LINE",
"575 499 LINE",
"575 705 LINE"
);
}
);
width = 645;
}
);
leftKerningGroup = H;
unicode = 0411;
},
{
glyphname = "Ge-cy";
lastChange = "2014-11-10 22:18:22 +0100";
layers = (
{
guideLines = (
{
position = "{363, 490}";
}
);
layerId = "DAACF28A-601E-43F2-B3A2-D78749C87D22";
name = Bold;
paths = (
{
closed = 1;
nodes = (
"265 705 LINE",
"35 700 LINE",
"35 615 LINE",
"110 585 LINE",
"110 115 LINE",
"35 85 LINE",
"35 0 LINE",
"360 0 LINE",
"360 85 LINE",
"265 115 LINE",
"265 585 LINE",
"450 585 LINE",
"475 490 LINE",
"568 490 LINE",
"568 705 LINE"
);
}
);
width = 573;
}
);
leftKerningGroup = H;
rightKerningGroup = "Ge-cy";
unicode = 0413;
},
{
glyphname = "Gheupturn-cy";
lastChange = "2014-11-10 22:18:22 +0100";
layers = (
{
guideLines = (
{
angle = 90;
position = "{35, 376}";
}
);
layerId = "DAACF28A-601E-43F2-B3A2-D78749C87D22";
name = Bold;
paths = (
{
closed = 1;
nodes = (
"265 705 LINE",
"35 700 LINE",
"35 615 LINE",
"110 585 LINE",
"110 115 LINE",
"35 85 LINE",
"35 0 LINE",
"370 0 LINE",
"370 85 LINE",
"265 115 LINE",
"265 585 LINE",
"558 585 LINE",
"558 705 LINE"
);
},
{
closed = 1;
nodes = (
"468 900 LINE",
"563 900 LINE",
"558 705 LINE",
"411 705 LINE"
);
}
);
width = 568;
}
);
leftKerningGroup = H;
rightKerningGroup = "Ge-cy";
unicode = 0490;
},
{
glyphname = "De-cy";
lastChange = "2014-11-10 22:18:22 +0100";
layers = (
{
guideLines = (
{
position = "{554, 115}";
}
);
layerId = "DAACF28A-601E-43F2-B3A2-D78749C87D22";
name = Bold;
paths = (
{
closed = 1;
nodes = (
"730 100 LINE",
"615 115 LINE",
"615 585 LINE",
"690 615 LINE",
"690 705 LINE",
"306 705 LINE",
"300 585 LINE",
"460 585 LINE",
"460 120 LINE",
"117 120 LINE",
"10 95 LINE",
"157 0 LINE",
"583 0 LINE"
);
},
{
closed = 1;
nodes = (
"640 -195 LINE",
"735 -195 LINE",
"730 100 LINE",
"583 0 LINE"
);
},
{
closed = 1;
nodes = (
"180 585 LINE",
"175 466 OFFCURVE",
"167 386 OFFCURVE",
"155 287 CURVE SMOOTH",
"138 145 OFFCURVE",
"106 123 OFFCURVE",
"10 95 CURVE",
"178 86 LINE",
"256 123 OFFCURVE",
"262 178 OFFCURVE",
"275 288 CURVE SMOOTH",
"287 392 OFFCURVE",
"295 487 OFFCURVE",
"300 585 CURVE"
);
},
{
closed = 1;
nodes = (
"306 705 LINE",
"53 705 LINE",
"53 615 LINE",
"180 585 LINE",
"300 585 LINE"
);
},
{
closed = 1;
nodes = (
"10 95 LINE",
"5 -195 LINE",
"100 -195 LINE",
"157 0 LINE"
);
}
);
width = 755;
}
);
leftKerningGroup = "De-cy";
rightKerningGroup = "Tse-cy";
unicode = 0414;
},
{
glyphname = "Zhe-cy";
lastChange = "2014-11-10 22:18:22 +0100";
layers = (
{
layerId = "DAACF28A-601E-43F2-B3A2-D78749C87D22";
name = Bold;
paths = (
{
closed = 1;
nodes = (
"662 85 LINE",
"600 115 LINE",
"600 305 LINE",
"673 305 LINE",
"810 115 LINE",
"750 85 LINE",
"750 0 LINE",
"1055 0 LINE",
"1055 85 LINE",
"980 115 LINE",
"794 371 LINE",
"925 589 LINE",
"1020 617 LINE",
"1020 705 LINE",
"846 700 LINE",
"679 415 LINE",
"600 415 LINE",
"600 587 LINE",
"675 617 LINE",
"675 705 LINE",
"385 700 LINE",
"385 617 LINE",
"460 587 LINE",
"460 115 LINE",
"398 85 LINE",
"398 0 LINE",
"662 0 LINE"
);
},
{
closed = 1;
nodes = (
"460 415 LINE",
"393 415 LINE",
"226 700 LINE",
"40 705 LINE",
"40 617 LINE",
"135 589 LINE",
"266 371 LINE",
"80 115 LINE",
"5 85 LINE",
"5 0 LINE",
"310 0 LINE",
"310 85 LINE",
"250 115 LINE",
"387 305 LINE",
"460 305 LINE"
);
}
);
width = 1055;
}
);
leftKerningGroup = X;
rightKerningGroup = X;
rightMetricsKey = K;
unicode = 0416;
},
{
glyphname = "Ze-cy";
lastChange = "2014-11-10 22:18:22 +0100";
layers = (
{
guideLines = (
{
angle = 90;
position = "{40, 393}";
}
);
layerId = "DAACF28A-601E-43F2-B3A2-D78749C87D22";
name = Bold;
paths = (
{
closed = 1;
nodes = (
"45 500 LINE",
"150 500 LINE",
"160 580 LINE",
"160 580 OFFCURVE",
"208 595 OFFCURVE",
"268 595 CURVE SMOOTH",
"348 595 OFFCURVE",
"388 562 OFFCURVE",
"388 512 CURVE SMOOTH",
"388 447 OFFCURVE",
"340 415 OFFCURVE",
"248 415 CURVE SMOOTH",
"150 415 LINE",
"150 310 LINE",
"243 310 LINE SMOOTH",
"345 310 OFFCURVE",
"395 272 OFFCURVE",
"395 212 CURVE SMOOTH",
"395 142 OFFCURVE",
"340 112 OFFCURVE",
"255 112 CURVE SMOOTH",
"180 112 OFFCURVE",
"105 137 OFFCURVE",
"63 152 CURVE",
"26 40 LINE",
"63 23 OFFCURVE",
"150 -13 OFFCURVE",
"258 -13 CURVE SMOOTH",
"408 -13 OFFCURVE",
"555 50 OFFCURVE",
"555 210 CURVE SMOOTH",
"555 285 OFFCURVE",
"500 349 OFFCURVE",
"415 368 CURVE",
"497 390 OFFCURVE",
"540 452 OFFCURVE",
"540 537 CURVE SMOOTH",
"540 660 OFFCURVE",
"450 717 OFFCURVE",
"273 717 CURVE SMOOTH",
"163 717 OFFCURVE",
"40 675 OFFCURVE",
"40 675 CURVE"
);
}
);
width = 600;
}
);
rightKerningGroup = B;
unicode = 0417;
},
{
glyphname = "Ii-cy";
lastChange = "2014-11-10 22:18:22 +0100";
layers = (
{
layerId = "DAACF28A-601E-43F2-B3A2-D78749C87D22";
name = Bold;
paths = (
{
closed = 1;
nodes = (
"345 85 LINE",
"265 112 LINE",
"265 587 LINE",
"345 617 LINE",
"345 705 LINE",
"35 700 LINE",
"35 617 LINE",
"110 587 LINE",
"110 112 LINE",
"35 87 LINE",
"35 0 LINE",
"345 0 LINE"
);
},
{
closed = 1;
nodes = (
"537 552 LINE",
"265 283 LINE",
"265 148 LINE",
"537 417 LINE"
);
},
{
closed = 1;
nodes = (
"457 617 LINE",
"537 587 LINE",
"537 112 LINE",
"457 87 LINE",
"457 0 LINE",
"767 0 LINE",
"767 87 LINE",
"692 112 LINE",
"692 587 LINE",
"767 617 LINE",
"767 705 LINE",
"457 700 LINE"
);
}
);
width = 802;
}
);
leftKerningGroup = H;
rightKerningGroup = H;
unicode = 0418;
},
{
glyphname = "El-cy";
lastChange = "2014-11-10 22:18:22 +0100";
layers = (
{
layerId = "DAACF28A-601E-43F2-B3A2-D78749C87D22";
name = Bold;
paths = (
{
closed = 1;
nodes = (
"702 85 LINE",
"627 115 LINE",
"627 585 LINE",
"702 615 LINE",
"702 705 LINE",
"312 705 LINE",
"315 585 LINE",
"472 585 LINE",
"472 115 LINE",
"387 85 LINE",
"387 0 LINE",
"702 0 LINE"
);
},
{
closed = 1;
nodes = (
"200 585 LINE",
"195 485 OFFCURVE",
"189 392 OFFCURVE",
"173 292 CURVE SMOOTH",
"158 197 OFFCURVE",
"120 155 OFFCURVE",
"57 155 CURVE SMOOTH",
"47 155 OFFCURVE",
"30 157 OFFCURVE",
"20 160 CURVE",
"-5 5 LINE",
"25 -5 OFFCURVE",
"60 -12 OFFCURVE",
"90 -12 CURVE SMOOTH",
"230 -12 OFFCURVE",
"271 125 OFFCURVE",
"288 295 CURVE SMOOTH",
"298 396 OFFCURVE",
"309 489 OFFCURVE",
"315 585 CURVE",
"312 705 LINE",
"66 705 LINE",
"66 615 LINE",
"200 585 LINE",
"315 585 LINE"
);
}
);
width = 737;
}
);
leftKerningGroup = "De-cy";
rightKerningGroup = H;
unicode = 041B;
},
{
glyphname = "Pe-cy";
lastChange = "2014-11-10 22:18:22 +0100";
layers = (
{
layerId = "DAACF28A-601E-43F2-B3A2-D78749C87D22";
name = Bold;
paths = (
{
closed = 1;
nodes = (
"340 85 LINE",
"265 115 LINE",
"265 585 LINE",
"265 705 LINE",
"35 700 LINE",
"35 615 LINE",
"110 585 LINE",
"110 115 LINE",
"35 85 LINE",
"35 0 LINE",
"340 0 LINE"
);
},
{
closed = 1;
nodes = (
"755 85 LINE",
"680 115 LINE",
"680 585 LINE",
"755 615 LINE",
"755 705 LINE",
"265 705 LINE",
"265 585 LINE",
"525 585 LINE",
"525 115 LINE",
"450 85 LINE",
"450 0 LINE",
"755 0 LINE"
);
}
);
width = 790;
}
);
leftKerningGroup = H;
rightKerningGroup = H;
unicode = 041F;
},
{
glyphname = "U-cy";
lastChange = "2014-11-10 22:18:22 +0100";
layers = (
{
layerId = "DAACF28A-601E-43F2-B3A2-D78749C87D22";
name = Bold;
paths = (
{
closed = 1;
nodes = (
"328 146 LINE",
"397 288 LINE",
"239 585 LINE",
"319 615 LINE",
"319 705 LINE",
"10 700 LINE",
"10 615 LINE",
"85 585 LINE"
);
},
{
closed = 1;
nodes = (
"358 232 LINE SMOOTH",
"325 154 OFFCURVE",
"282 113 OFFCURVE",
"225 113 CURVE SMOOTH",
"185 113 OFFCURVE",
"146 123 OFFCURVE",
"121 130 CURVE",
"94 18 LINE",
"119 7 OFFCURVE",
"170 -12 OFFCURVE",
"235 -12 CURVE SMOOTH",
"337 -12 OFFCURVE",
"414 80 OFFCURVE",
"474 220 CURVE SMOOTH",
"629 585 LINE",
"506 585 LINE"
);
},
{
closed = 1;
nodes = (
"629 585 LINE",
"709 615 LINE",
"709 705 LINE",
"421 700 LINE",
"421 615 LINE",
"506 585 LINE"
);
}
);
width = 719;
}
);
leftKerningGroup = "U-cy";
rightKerningGroup = "U-cy";
unicode = 0423;
},
{
glyphname = "Ef-cy";
lastChange = "2014-11-10 22:18:22 +0100";
layers = (
{
layerId = "DAACF28A-601E-43F2-B3A2-D78749C87D22";
name = Bold;
paths = (
{
closed = 1;
nodes = (
"613 65 LINE",
"538 90 LINE",
"538 660 LINE",
"613 685 LINE",
"613 775 LINE",
"322 770 LINE",
"322 685 LINE",
"397 660 LINE",
"397 90 LINE",
"322 65 LINE",
"322 -20 LINE",
"613 -20 LINE"
);
},
{
closed = 1;
nodes = (
"187 624 OFFCURVE",
"60 541 OFFCURVE",
"60 368 CURVE SMOOTH",
"60 190 OFFCURVE",
"190 121 OFFCURVE",
"455 121 CURVE SMOOTH",
"770 121 OFFCURVE",
"875 221 OFFCURVE",
"875 388 CURVE SMOOTH",
"875 558 OFFCURVE",
"750 624 OFFCURVE",
"475 624 CURVE SMOOTH"
);
},
{
closed = 1;
nodes = (
"660 533 OFFCURVE",
"730 502 OFFCURVE",
"730 366 CURVE SMOOTH",
"730 248 OFFCURVE",
"680 219 OFFCURVE",
"460 219 CURVE SMOOTH",
"260 219 OFFCURVE",
"205 259 OFFCURVE",
"205 369 CURVE SMOOTH",
"205 496 OFFCURVE",
"280 533 OFFCURVE",
"470 533 CURVE SMOOTH"
);
}
);
width = 935;
}
);
leftKerningGroup = O;
rightKerningGroup = O;
unicode = 0424;
},
{
glyphname = "Che-cy";
lastChange = "2014-11-10 22:18:22 +0100";
layers = (
{
layerId = "DAACF28A-601E-43F2-B3A2-D78749C87D22";
name = Bold;
paths = (
{
closed = 1;
nodes = (
"700 85 LINE",
"625 115 LINE",
"625 585 LINE",
"700 615 LINE",
"700 705 LINE",
"400 700 LINE",
"400 615 LINE",
"470 585 LINE",
"470 115 LINE",
"370 85 LINE",
"370 0 LINE",
"700 0 LINE"
);
},
{
closed = 1;
nodes = (
"470 371 LINE",
"443 363 OFFCURVE",
"395 350 OFFCURVE",
"335 350 CURVE SMOOTH",
"269 350 OFFCURVE",
"235 378 OFFCURVE",
"235 468 CURVE SMOOTH",
"235 585 LINE",
"305 615 LINE",
"305 705 LINE",
"10 705 LINE",
"10 615 LINE",
"80 585 LINE",
"80 445 LINE SMOOTH",
"80 295 OFFCURVE",
"175 225 OFFCURVE",
"295 225 CURVE SMOOTH",
"391 225 OFFCURVE",
"444 252 OFFCURVE",
"470 263 CURVE"
);
}
);
width = 735;
}
);
rightKerningGroup = H;
unicode = 0427;
},
{
glyphname = "Tse-cy";
lastChange = "2014-11-10 22:18:22 +0100";
layers = (
{
layerId = "DAACF28A-601E-43F2-B3A2-D78749C87D22";
name = Bold;
paths = (
{
closed = 1;
nodes = (
"35 700 LINE",
"35 615 LINE",
"110 585 LINE",
"110 115 LINE",
"35 85 LINE",
"35 0 LINE",
"265 0 LINE",
"265 120 LINE",
"265 585 LINE",
"345 615 LINE",
"345 705 LINE"
);
},
{
closed = 1;
nodes = (
"445 700 LINE",
"445 615 LINE",
"525 585 LINE",
"525 120 LINE",
"265 120 LINE",
"265 0 LINE",
"795 0 LINE SMOOTH",
"795 100 LINE",
"680 115 LINE",
"680 585 LINE",
"755 615 LINE",
"755 705 LINE"
);
},
{
closed = 1;
nodes = (
"705 -195 LINE",
"800 -195 LINE",
"795 100 LINE",
"648 0 LINE"
);
}
);
width = 820;
}
);
leftKerningGroup = H;
rightKerningGroup = "Tse-cy";
unicode = 0426;
},
{
glyphname = "Sha-cy";
lastChange = "2014-11-10 22:18:22 +0100";
layers = (
{
layerId = "DAACF28A-601E-43F2-B3A2-D78749C87D22";
name = Bold;
paths = (
{
closed = 1;
nodes = (
"35 700 LINE",
"35 615 LINE",
"110 585 LINE",
"110 115 LINE",
"35 85 LINE",
"35 0 LINE",
"265 0 LINE",
"265 120 LINE",
"265 585 LINE",
"335 615 LINE",
"335 705 LINE"
);
},
{
closed = 1;
nodes = (
"745 700 LINE",
"745 615 LINE",
"820 585 LINE",
"820 120 LINE",
"265 120 LINE",
"265 0 LINE",
"1050 0 LINE SMOOTH",
"1050 85 LINE",
"975 115 LINE",
"975 585 LINE",
"1050 615 LINE",
"1050 705 LINE"
);
},
{
closed = 1;
nodes = (
"395 700 LINE",
"395 615 LINE",
"465 585 LINE",
"465 120 LINE",
"620 120 LINE",
"620 585 LINE",
"690 615 LINE",
"690 705 LINE"
);
}
);
width = 1085;
}
);
leftKerningGroup = H;
rightKerningGroup = H;
unicode = 0428;
},
{
glyphname = "Shcha-cy";
lastChange = "2014-11-10 22:18:22 +0100";
layers = (
{
layerId = "DAACF28A-601E-43F2-B3A2-D78749C87D22";
name = Bold;
paths = (
{
closed = 1;
nodes = (
"35 700 LINE",
"35 615 LINE",
"110 585 LINE",
"110 115 LINE",
"35 90 LINE",
"35 0 LINE",
"265 0 LINE",
"265 120 LINE",
"265 585 LINE",
"335 615 LINE",
"335 705 LINE"
);
},
{
closed = 1;
nodes = (
"745 700 LINE",
"745 615 LINE",
"820 585 LINE",
"820 120 LINE",
"265 120 LINE",
"265 0 LINE",
"1090 0 LINE SMOOTH",
"1090 100 LINE",
"975 115 LINE",
"975 585 LINE",
"1050 615 LINE",
"1050 705 LINE"
);
},
{
closed = 1;
nodes = (
"1000 -195 LINE",
"1095 -195 LINE",
"1090 100 LINE",
"943 0 LINE"
);
},
{
closed = 1;
nodes = (
"395 700 LINE",
"395 615 LINE",
"465 585 LINE",
"465 120 LINE",
"620 120 LINE",
"620 585 LINE",
"690 615 LINE",
"690 705 LINE"
);
}
);
width = 1115;
}
);
leftKerningGroup = H;
rightKerningGroup = "Tse-cy";
unicode = 0429;
},
{
glyphname = "Dzhe-cy";
lastChange = "2014-11-10 22:18:22 +0100";
layers = (
{
guideLines = (
{
angle = 90;
position = "{310, -65}";
},
{
angle = 90;
position = "{450, -68}";
}
);
layerId = "DAACF28A-601E-43F2-B3A2-D78749C87D22";
name = Bold;
paths = (
{
closed = 1;
nodes = (
"35 700 LINE",
"35 615 LINE",
"110 585 LINE",
"110 115 LINE",
"35 85 LINE",
"35 0 LINE",
"265 0 LINE",
"265 120 LINE",
"265 585 LINE",
"345 615 LINE",
"345 705 LINE"
);
},
{
closed = 1;
nodes = (
"420 700 LINE",
"420 615 LINE",
"500 585 LINE",
"500 120 LINE",
"265 120 LINE",
"265 0 LINE",
"730 0 LINE SMOOTH",
"730 85 LINE",
"655 115 LINE",
"655 585 LINE",
"730 615 LINE",
"730 705 LINE"
);
},
{
closed = 1;
nodes = (
"332 -195 LINE",
"427 -195 LINE",
"450 0 LINE",
"310 0 LINE"
);
}
);
width = 765;
}
);
leftKerningGroup = H;
rightKerningGroup = H;
unicode = 040F;
},
{
glyphname = "Ia-cy";
lastChange = "2014-11-10 22:18:22 +0100";
layers = (
{
layerId = "DAACF28A-601E-43F2-B3A2-D78749C87D22";
name = Bold;
paths = (
{
closed = 1;
nodes = (
"645 0 LINE",
"645 85 LINE",
"570 115 LINE",
"570 585 LINE",
"645 615 LINE",
"645 705 LINE",
"339 705 LINE SMOOTH",
"174 705 OFFCURVE",
"79 641 OFFCURVE",
"79 486 CURVE SMOOTH",
"79 376 OFFCURVE",
"156 318 OFFCURVE",
"227 298 CURVE",
"192 281 OFFCURVE",
"176 256 OFFCURVE",
"139 206 CURVE SMOOTH",
"68 110 LINE",
"-10 85 LINE",
"-10 0 LINE",
"170 0 LINE",
"265 165 LINE SMOOTH",
"302 229 OFFCURVE",
"330 257 OFFCURVE",
"370 257 CURVE SMOOTH",
"415 257 LINE",
"415 115 LINE",
"343 85 LINE",
"343 0 LINE"
);
},
{
closed = 1;
nodes = (
"373 362 LINE SMOOTH",
"278 362 OFFCURVE",
"233 400 OFFCURVE",
"233 480 CURVE SMOOTH",
"233 545 OFFCURVE",
"268 585 OFFCURVE",
"333 585 CURVE SMOOTH",
"415 585 LINE",
"415 362 LINE"
);
}
);
width = 685;
}
);
rightKerningGroup = H;
unicode = 042F;
},
{
glyphname = "Softsign-cy";
lastChange = "2014-11-10 22:18:22 +0100";
layers = (
{
layerId = "DAACF28A-601E-43F2-B3A2-D78749C87D22";
name = Bold;
paths = (
{
closed = 1;
nodes = (
"265 0 LINE",
"265 585 LINE",
"355 615 LINE",
"355 705 LINE",
"35 700 LINE",
"35 615 LINE",
"110 585 LINE",
"110 115 LINE",
"35 85 LINE",
"35 0 LINE"
);
},
{
closed = 1;
nodes = (
"265 432 LINE",
"265 0 LINE",
"346 0 LINE SMOOTH",
"508 0 OFFCURVE",
"608 70 OFFCURVE",
"608 224 CURVE SMOOTH",
"608 372 OFFCURVE",
"503 432 OFFCURVE",
"363 432 CURVE SMOOTH"
);
},
{
closed = 1;
nodes = (
"326 327 LINE",
"406 327 OFFCURVE",
"448 297 OFFCURVE",
"448 224 CURVE SMOOTH",
"448 162 OFFCURVE",
"411 120 OFFCURVE",
"341 120 CURVE SMOOTH",
"265 120 LINE",
"265 327 LINE"
);
}
);
width = 613;
}
);
leftKerningGroup = H;
unicode = 042C;
},
{
glyphname = "Hardsign-cy";
lastChange = "2014-11-10 22:18:22 +0100";
layers = (
{
guideLines = (
{
position = "{140, 490}";
}
);
layerId = "DAACF28A-601E-43F2-B3A2-D78749C87D22";
name = Bold;
paths = (
{
closed = 1;
nodes = (
"368 0 LINE",
"368 585 LINE",
"468 615 LINE",
"468 705 LINE",
"10 705 LINE",
"128 585 LINE",
"213 585 LINE",
"213 115 LINE",
"138 85 LINE",
"138 0 LINE"
);
},
{
closed = 1;
nodes = (
"368 432 LINE",
"368 0 LINE",
"449 0 LINE SMOOTH",
"611 0 OFFCURVE",
"711 70 OFFCURVE",
"711 224 CURVE SMOOTH",
"711 372 OFFCURVE",
"606 432 OFFCURVE",
"466 432 CURVE SMOOTH"
);
},
{
closed = 1;
nodes = (
"429 327 LINE",
"509 327 OFFCURVE",
"551 297 OFFCURVE",
"551 224 CURVE SMOOTH",
"551 162 OFFCURVE",
"514 120 OFFCURVE",
"444 120 CURVE SMOOTH",
"368 120 LINE",
"368 327 LINE"
);
},
{
closed = 1;
nodes = (
"103 490 LINE",
"10 490 LINE",
"10 705 LINE",
"128 585 LINE"
);
}
);
width = 731;
}
);
leftKerningGroup = T;
rightKerningGroup = o;
unicode = 042A;
},
{
glyphname = "Yeru-cy";
lastChange = "2014-11-10 22:18:22 +0100";
layers = (
{
layerId = "DAACF28A-601E-43F2-B3A2-D78749C87D22";
name = Bold;
paths = (
{
closed = 1;
nodes = (
"265 0 LINE",
"265 585 LINE",
"355 615 LINE",
"355 705 LINE",
"35 700 LINE",
"35 615 LINE",
"110 585 LINE",
"110 115 LINE",
"35 85 LINE",
"35 0 LINE"
);
},
{
closed = 1;
nodes = (
"265 427 LINE",
"265 0 LINE",
"346 0 LINE SMOOTH",
"508 0 OFFCURVE",
"608 70 OFFCURVE",
"608 224 CURVE SMOOTH",
"608 367 OFFCURVE",
"503 427 OFFCURVE",
"363 427 CURVE SMOOTH"
);
},
{
closed = 1;
nodes = (
"326 322 LINE",
"406 322 OFFCURVE",
"448 292 OFFCURVE",
"448 224 CURVE SMOOTH",
"448 162 OFFCURVE",
"411 120 OFFCURVE",
"341 120 CURVE SMOOTH",
"265 120 LINE",
"265 322 LINE"
);
},
{
closed = 1;
nodes = (
"940 85 LINE",
"865 115 LINE",
"865 585 LINE",
"940 615 LINE",
"940 705 LINE",
"635 700 LINE",
"635 615 LINE",
"710 585 LINE",
"710 115 LINE",
"635 85 LINE",
"635 0 LINE",
"940 0 LINE"
);
}
);
width = 975;
}
);
leftKerningGroup = H;
rightKerningGroup = H;
unicode = 042B;
},
{
glyphname = "Lje-cy";
lastChange = "2014-11-10 22:18:22 +0100";
layers = (
{
layerId = "DAACF28A-601E-43F2-B3A2-D78749C87D22";
name = Bold;
paths = (
{
closed = 1;
nodes = (
"627 0 LINE",
"627 585 LINE",
"717 615 LINE",
"717 705 LINE",
"317 705 LINE",
"317 585 LINE",
"472 585 LINE",
"472 115 LINE",
"387 85 LINE",
"387 0 LINE"
);
},
{
closed = 1;
nodes = (
"627 432 LINE",
"627 0 LINE",
"708 0 LINE SMOOTH",
"870 0 OFFCURVE",
"970 70 OFFCURVE",
"970 224 CURVE SMOOTH",
"970 372 OFFCURVE",
"865 432 OFFCURVE",
"725 432 CURVE SMOOTH"
);
},
{
closed = 1;
nodes = (
"688 322 LINE",
"768 322 OFFCURVE",
"810 292 OFFCURVE",
"810 224 CURVE SMOOTH",
"810 162 OFFCURVE",
"773 120 OFFCURVE",
"703 120 CURVE SMOOTH",
"627 120 LINE",
"627 322 LINE"
);
},
{
closed = 1;
nodes = (
"205 585 LINE",
"200 485 OFFCURVE",
"194 392 OFFCURVE",
"178 292 CURVE SMOOTH",
"163 197 OFFCURVE",
"125 155 OFFCURVE",
"62 155 CURVE SMOOTH",
"52 155 OFFCURVE",
"35 157 OFFCURVE",
"25 160 CURVE",
"0 5 LINE",
"30 -5 OFFCURVE",
"65 -12 OFFCURVE",
"95 -12 CURVE SMOOTH",
"235 -12 OFFCURVE",
"276 125 OFFCURVE",
"293 295 CURVE SMOOTH",
"303 396 OFFCURVE",
"314 489 OFFCURVE",
"320 585 CURVE",
"317 705 LINE",
"71 705 LINE",
"71 615 LINE",
"205 585 LINE",
"320 585 LINE"
);
}
);
width = 985;
}
);
leftKerningGroup = "De-cy";
rightKerningGroup = o;
unicode = 0409;
},
{
glyphname = "Nje-cy";
lastChange = "2014-11-10 22:18:22 +0100";
layers = (
{
guideLines = (
{
position = "{363, 321}";
}
);
layerId = "DAACF28A-601E-43F2-B3A2-D78749C87D22";
name = Bold;
paths = (
{
closed = 1;
nodes = (
"345 85 LINE",
"265 115 LINE",
"265 321 LINE",
"527 321 LINE",
"527 431 LINE",
"265 431 LINE",
"265 585 LINE",
"345 615 LINE",
"345 705 LINE",
"35 700 LINE",
"35 615 LINE",
"110 585 LINE",
"110 115 LINE",
"35 85 LINE",
"35 0 LINE",
"345 0 LINE"
);
},
{
closed = 1;
nodes = (
"757 85 LINE",
"682 115 LINE",
"682 585 LINE",
"772 615 LINE",
"772 705 LINE",
"452 700 LINE",
"452 615 LINE",
"527 585 LINE",
"527 115 LINE",
"452 85 LINE",
"452 0 LINE",
"757 0 LINE"
);
},
{
closed = 1;
nodes = (
"682 431 LINE",
"682 0 LINE",
"763 0 LINE SMOOTH",
"925 0 OFFCURVE",
"1025 75 OFFCURVE",
"1025 229 CURVE SMOOTH",
"1025 372 OFFCURVE",
"920 431 OFFCURVE",
"780 431 CURVE SMOOTH"
);
},
{
closed = 1;
nodes = (
"743 321 LINE",
"823 321 OFFCURVE",
"865 297 OFFCURVE",
"865 229 CURVE SMOOTH",
"865 167 OFFCURVE",
"828 120 OFFCURVE",
"758 120 CURVE SMOOTH",
"682 120 LINE",
"682 321 LINE"
);
}
);
width = 1030;
}
);
leftKerningGroup = H;
rightKerningGroup = "Softsign-cy";
unicode = 040A;
},
{
glyphname = "E-cy";
lastChange = "2014-11-10 22:18:22 +0100";
layers = (
{
guideLines = (
{
position = "{-60, 419}";
},
{
angle = 90;
position = "{613, 453}";
}
);
layerId = "DAACF28A-601E-43F2-B3A2-D78749C87D22";
name = Bold;
paths = (
{
closed = 1;
nodes = (
"515 484 LINE",
"613 484 LINE",
"618 674 LINE",
"618 674 OFFCURVE",
"504 721 OFFCURVE",
"392 717 CURVE SMOOTH",
"187 710 OFFCURVE",
"55 577 OFFCURVE",
"55 342 CURVE SMOOTH",
"55 110 OFFCURVE",
"172 -12 OFFCURVE",
"375 -12 CURVE SMOOTH",
"490 -12 OFFCURVE",
"585 49 OFFCURVE",
"629 91 CURVE",
"573 178 LINE",
"530 152 OFFCURVE",
"472 117 OFFCURVE",
"392 117 CURVE SMOOTH",
"287 117 OFFCURVE",
"222 185 OFFCURVE",
"222 347 CURVE SMOOTH",
"222 514 OFFCURVE",
"282 592 OFFCURVE",
"393 592 CURVE SMOOTH",
"441 592 OFFCURVE",
"480 584 OFFCURVE",
"492 581 CURVE"
);
},
{
closed = 1;
nodes = (
"478 303 LINE",
"478 413 LINE",
"210 413 LINE",
"210 303 LINE"
);
}
);
width = 673;
}
);
unicode = 0404;
},
{
glyphname = "Ereversed-cy";
lastChange = "2014-11-10 22:18:22 +0100";
layers = (
{
guideLines = (
{
angle = 90;
position = "{61, 400}";
},
{
position = "{307, 117}";
}
);
layerId = "DAACF28A-601E-43F2-B3A2-D78749C87D22";
name = Bold;
paths = (
{
closed = 1;
nodes = (
"44 86 LINE",
"64 70 OFFCURVE",
"165 -12 OFFCURVE",
"285 -12 CURVE SMOOTH",
"480 -12 OFFCURVE",
"618 128 OFFCURVE",
"618 363 CURVE SMOOTH",
"618 595 OFFCURVE",
"501 717 OFFCURVE",
"298 717 CURVE SMOOTH",
"178 717 OFFCURVE",
"98 686 OFFCURVE",
"55 667 CURVE",
"176 577 LINE",
"176 577 OFFCURVE",
"218 588 OFFCURVE",
"281 588 CURVE SMOOTH",
"386 588 OFFCURVE",
"451 520 OFFCURVE",
"451 358 CURVE SMOOTH",
"451 191 OFFCURVE",
"385 117 OFFCURVE",
"285 117 CURVE SMOOTH",
"205 117 OFFCURVE",
"123 164 OFFCURVE",
"101 177 CURVE"
);
},
{
closed = 1;
nodes = (
"195 412 LINE",
"195 302 LINE",
"463 302 LINE",
"463 412 LINE"
);
},
{
closed = 1;
nodes = (
"60 484 LINE",
"158 484 LINE",
"176 577 LINE",
"55 667 LINE"
);
}
);
width = 673;
}
);
rightKerningGroup = O;
unicode = 042D;
},
{
glyphname = "Yi-cy";
lastChange = "2014-11-10 22:18:22 +0100";
layers = (
{
components = (
{
name = I;
transform = "{1, 0, 0, 1, 14, 0}";
}
);
layerId = "DAACF28A-601E-43F2-B3A2-D78749C87D22";
name = Bold;
paths = (
{
closed = 1;
nodes = (
"26 797 OFFCURVE",
"51 769 OFFCURVE",
"98 769 CURVE SMOOTH",
"137 769 OFFCURVE",
"172 797 OFFCURVE",
"172 847 CURVE SMOOTH",
"172 896 OFFCURVE",
"147 925 OFFCURVE",
"100 925 CURVE SMOOTH",
"61 925 OFFCURVE",
"26 896 OFFCURVE",
"26 847 CURVE SMOOTH"
);
},
{
closed = 1;
nodes = (
"234 797 OFFCURVE",
"259 769 OFFCURVE",
"306 769 CURVE SMOOTH",
"345 769 OFFCURVE",
"380 797 OFFCURVE",
"380 847 CURVE SMOOTH",
"380 896 OFFCURVE",
"356 925 OFFCURVE",
"308 925 CURVE SMOOTH",
"270 925 OFFCURVE",
"234 896 OFFCURVE",
"234 847 CURVE SMOOTH"
);
}
);
width = 404;
}
);
leftKerningGroup = H;
rightKerningGroup = H;
unicode = 0407;
},
{
glyphname = "Tshe-cy";
lastChange = "2014-11-10 22:18:22 +0100";
layers = (
{
layerId = "DAACF28A-601E-43F2-B3A2-D78749C87D22";
name = Bold;
paths = (
{
closed = 1;
nodes = (
"337 238 LINE",
"374 271 OFFCURVE",
"426 304 OFFCURVE",
"477 304 CURVE SMOOTH",
"533 304 OFFCURVE",
"562 276 OFFCURVE",
"562 216 CURVE SMOOTH",
"562 120 LINE",
"502 90 LINE",
"502 0 LINE",
"787 0 LINE",
"787 90 LINE",
"717 120 LINE",
"717 249 LINE SMOOTH",
"717 361 OFFCURVE",
"654 429 OFFCURVE",
"542 429 CURVE SMOOTH",
"453 429 OFFCURVE",
"379 378 OFFCURVE",
"337 338 CURVE"
);
},
{
closed = 1;
nodes = (
"117 0 LINE",
"427 0 LINE",
"427 85 LINE",
"367 115 LINE",
"367 585 LINE",
"472 585 LINE",
"497 490 LINE",
"590 490 LINE",
"590 705 LINE",
"10 705 LINE",
"10 490 LINE",
"102 490 LINE",
"127 585 LINE",
"212 585 LINE",
"212 115 LINE",
"117 85 LINE"
);
}
);
width = 807;
}
);
leftKerningGroup = T;
rightKerningGroup = n;
unicode = 040B;
},
{
glyphname = "Iu-cy";
lastChange = "2014-11-10 22:18:22 +0100";
layers = (
{
layerId = "DAACF28A-601E-43F2-B3A2-D78749C87D22";
name = Bold;
paths = (
{
closed = 1;
nodes = (
"265 305 LINE",
"265 115 LINE",
"345 85 LINE",
"345 0 LINE",
"35 0 LINE",
"35 85 LINE",
"110 115 LINE",
"110 585 LINE",
"35 615 LINE",
"35 700 LINE",
"345 705 LINE",
"345 615 LINE",
"265 585 LINE",
"265 425 LINE",
"527 425 LINE",
"527 305 LINE"
);
},
{
closed = 1;
nodes = (
"912 717 OFFCURVE",
"1027 585 OFFCURVE",
"1027 362 CURVE SMOOTH",
"1027 137 OFFCURVE",
"892 -13 OFFCURVE",
"692 -13 CURVE SMOOTH",
"492 -13 OFFCURVE",
"382 112 OFFCURVE",
"382 347 CURVE SMOOTH",
"382 577 OFFCURVE",
"509 717 OFFCURVE",
"712 717 CURVE SMOOTH"
);
},
{
closed = 1;
nodes = (
"607 592 OFFCURVE",
"552 530 OFFCURVE",
"552 352 CURVE SMOOTH",
"552 187 OFFCURVE",
"597 112 OFFCURVE",
"697 112 CURVE SMOOTH",
"797 112 OFFCURVE",
"857 177 OFFCURVE",
"857 357 CURVE SMOOTH",
"857 522 OFFCURVE",
"807 592 OFFCURVE",
"707 592 CURVE SMOOTH"
);
}
);
width = 1082;
}
);
leftKerningGroup = H;
rightKerningGroup = O;
unicode = 042E;
},
{
glyphname = "Dje-cy";
lastChange = "2014-11-10 22:18:22 +0100";
layers = (
{
guideLines = (
{
position = "{291, -159}";
},
{
position = "{603, 5}";
},
{
position = "{630, 160}";
}
);
layerId = "DAACF28A-601E-43F2-B3A2-D78749C87D22";
name = Bold;
paths = (
{
closed = 1;
nodes = (
"117 0 LINE",
"367 0 LINE",
"367 585 LINE",
"472 585 LINE",
"497 490 LINE",
"590 490 LINE",
"590 705 LINE",
"10 705 LINE",
"10 490 LINE",
"102 490 LINE",
"127 585 LINE",
"212 585 LINE",
"212 115 LINE",
"117 85 LINE"
);
},
{
closed = 1;
nodes = (
"337 235 LINE",
"377 263 OFFCURVE",
"445 290 OFFCURVE",
"490 290 CURVE SMOOTH",
"540 290 OFFCURVE",
"575 260 OFFCURVE",
"575 200 CURVE SMOOTH",
"575 135 OFFCURVE",
"558 100 OFFCURVE",
"498 100 CURVE SMOOTH",
"446 100 LINE",
"434 -5 LINE",
"446 -7 OFFCURVE",
"483 -12 OFFCURVE",
"515 -12 CURVE SMOOTH",
"675 -12 OFFCURVE",
"725 80 OFFCURVE",
"725 225 CURVE SMOOTH",
"725 340 OFFCURVE",
"660 410 OFFCURVE",
"550 410 CURVE SMOOTH",
"470 410 OFFCURVE",
"382 369 OFFCURVE",
"337 334 CURVE"
);
}
);
width = 750;
}
);
leftKerningGroup = T;
rightKerningGroup = j;
unicode = 0402;
},
{
glyphname = "Ustraitstroke-cy";
lastChange = "2014-11-10 22:18:22 +0100";
layers = (
{
components = (
{
name = Y;
transform = "{1, 0, 0, 1, 0, 0}";
}
);
layerId = "DAACF28A-601E-43F2-B3A2-D78749C87D22";
name = Bold;
paths = (
{
closed = 1;
nodes = (
"105 173 LINE",
"560 173 LINE",
"560 278 LINE",
"105 278 LINE"
);
}
);
width = 667;
}
);
leftKerningGroup = Y;
rightKerningGroup = Y;
unicode = 04B0;
},
{
glyphname = "be-cy";
lastChange = "2014-11-10 22:18:22 +0100";
layers = (
{
annotations = (
{
position = "{-9223372036854775808, -9223372036854773760}";
type = Arrow;
},
{
position = "{-9223372036854775808, 687}";
type = Text;
}
);
layerId = "DAACF28A-601E-43F2-B3A2-D78749C87D22";
name = Bold;
paths = (
{
closed = 1;
nodes = (
"555 842 LINE",
"457 867 LINE",
"408 779 LINE",
"511 684 LINE"
);
},
{
closed = 1;
nodes = (
"471 794 LINE",
"387 788 OFFCURVE",
"311 781 OFFCURVE",
"257 767 CURVE SMOOTH",
"109 730 OFFCURVE",
"45 620 OFFCURVE",
"45 315 CURVE SMOOTH",
"45 85 OFFCURVE",
"137 -10 OFFCURVE",
"290 -10 CURVE SMOOTH",
"452 -10 OFFCURVE",
"557 100 OFFCURVE",
"557 290 CURVE SMOOTH",
"557 470 OFFCURVE",
"460 550 OFFCURVE",
"340 550 CURVE SMOOTH",
"250 550 OFFCURVE",
"198 498 OFFCURVE",
"175 460 CURVE",
"187 606 OFFCURVE",
"224 635 OFFCURVE",
"311 653 CURVE SMOOTH",
"375 666 OFFCURVE",
"453 676 OFFCURVE",
"511 684 CURVE"
);
},
{
closed = 1;
nodes = (
"222 105 OFFCURVE",
"185 155 OFFCURVE",
"185 270 CURVE SMOOTH",
"185 400 OFFCURVE",
"223 435 OFFCURVE",
"301 435 CURVE SMOOTH",
"373 435 OFFCURVE",
"402 382 OFFCURVE",
"402 275 CURVE SMOOTH",
"402 150 OFFCURVE",
"367 105 OFFCURVE",
"295 105 CURVE SMOOTH"
);
}
);
width = 600;
}
);
rightKerningGroup = o;
unicode = 0431;
},
{
glyphname = "ve-cy";
lastChange = "2014-11-10 22:18:22 +0100";
layers = (
{
guideLines = (
{
position = "{159, 540}";
}
);
layerId = "DAACF28A-601E-43F2-B3A2-D78749C87D22";
name = Bold;
paths = (
{
closed = 1;
nodes = (
"265 540 LINE",
"40 535 LINE",
"40 455 LINE",
"115 430 LINE",
"115 105 LINE",
"40 80 LINE",
"40 0 LINE",
"328 0 LINE SMOOTH",
"490 0 OFFCURVE",
"580 45 OFFCURVE",
"580 150 CURVE SMOOTH",
"580 242 OFFCURVE",
"499 274 OFFCURVE",
"437 280 CURVE",
"517 295 OFFCURVE",
"560 340 OFFCURVE",
"560 407 CURVE SMOOTH",
"560 495 OFFCURVE",
"485 540 OFFCURVE",
"345 540 CURVE SMOOTH"
);
},
{
closed = 1;
nodes = (
"328 227 LINE",
"393 227 OFFCURVE",
"425 212 OFFCURVE",
"425 167 CURVE SMOOTH",
"425 117 OFFCURVE",
"398 110 OFFCURVE",
"333 110 CURVE SMOOTH",
"265 110 LINE",
"265 227 LINE"
);
},
{
closed = 1;
nodes = (
"265 430 LINE",
"325 430 LINE SMOOTH",
"380 430 OFFCURVE",
"415 420 OFFCURVE",
"415 375 CURVE SMOOTH",
"415 330 OFFCURVE",
"388 317 OFFCURVE",
"308 317 CURVE SMOOTH",
"265 317 LINE"
);
}
);
width = 620;
}
);
leftKerningGroup = n;
rightKerningGroup = "ve-cy";
unicode = 0432;
},
{
glyphname = "ge-cy";
lastChange = "2014-11-10 22:18:22 +0100";
layers = (
{
guideLines = (
{
position = "{569, 340}";
}
);
layerId = "DAACF28A-601E-43F2-B3A2-D78749C87D22";
name = Bold;
paths = (
{
closed = 1;
nodes = (
"265 105 LINE",
"365 80 LINE",
"365 0 LINE",
"35 0 LINE",
"35 80 LINE",
"115 105 LINE",
"115 430 LINE",
"35 455 LINE",
"35 535 LINE",
"265 540 LINE",
"525 540 LINE",
"520 300 LINE",
"425 300 LINE",
"405 420 LINE",
"265 420 LINE"
);
}
);
width = 530;
}
);
leftKerningGroup = n;
rightKerningGroup = "ge-cy";
unicode = 0433;
},
{
glyphname = "gheupturn-cy";
lastChange = "2014-11-10 22:18:22 +0100";
layers = (
{
layerId = "DAACF28A-601E-43F2-B3A2-D78749C87D22";
name = Bold;
paths = (
{
closed = 1;
nodes = (
"265 105 LINE",
"365 80 LINE",
"365 0 LINE",
"35 0 LINE",
"35 80 LINE",
"115 105 LINE",
"115 430 LINE",
"35 455 LINE",
"35 535 LINE",
"265 540 LINE",
"515 540 LINE",
"525 420 LINE",
"265 420 LINE"
);
},
{
closed = 1;
nodes = (
"405 540 LINE",
"425 680 LINE",
"520 680 LINE",
"525 420 LINE"
);
}
);
width = 530;
}
);
leftKerningGroup = n;
rightKerningGroup = "ge-cy";
unicode = 0491;
},
{
glyphname = "de-cy";
lastChange = "2014-11-10 22:18:22 +0100";
layers = (
{
layerId = "DAACF28A-601E-43F2-B3A2-D78749C87D22";
name = Bold;
paths = (
{
closed = 1;
nodes = (
"410 0 LINE",
"534 0 LINE",
"660 80 LINE",
"560 110 LINE",
"560 430 LINE",
"630 455 LINE",
"630 540 LINE",
"65 540 LINE",
"65 455 LINE",
"175 430 LINE",
"277 420 LINE",
"410 420 LINE"
);
},
{
closed = 1;
nodes = (
"175 430 LINE",
"165 179 OFFCURVE",
"135 124 OFFCURVE",
"57 106 CURVE SMOOTH",
"10 95 LINE",
"108 80 LINE",
"223 80 OFFCURVE",
"263 142 OFFCURVE",
"277 420 CURVE"
);
},
{
closed = 1;
nodes = (
"534 0 LINE",
"555 -175 LINE",
"650 -175 LINE",
"660 80 LINE"
);
},
{
closed = 1;
nodes = (
"10 95 LINE",
"138 0 LINE",
"410 0 LINE",
"410 120 LINE",
"196 120 LINE"
);
},
{
closed = 1;
nodes = (
"22 -175 LINE",
"117 -175 LINE",
"138 0 LINE",
"10 95 LINE"
);
}
);
width = 680;
}
);
leftKerningGroup = "el-cy";
rightKerningGroup = "tse-cy";
unicode = 0434;
},
{
glyphname = "zhe-cy";
lastChange = "2014-11-10 22:18:22 +0100";
layers = (
{
layerId = "DAACF28A-601E-43F2-B3A2-D78749C87D22";
name = Bold;
paths = (
{
closed = 1;
nodes = (
"567 238 LINE",
"698 0 LINE",
"883 0 LINE",
"883 80 LINE",
"807 104 LINE",
"695 291 LINE",
"788 442 LINE",
"858 455 LINE",
"858 540 LINE",
"607 535 LINE",
"607 455 LINE",
"651 441 LINE",
"574 306 LINE"
);
},
{
closed = 1;
nodes = (
"326 306 LINE",
"249 441 LINE",
"293 455 LINE",
"293 535 LINE",
"35 540 LINE",
"35 455 LINE",
"105 442 LINE",
"198 291 LINE",
"86 104 LINE",
"10 80 LINE",
"10 0 LINE",
"189 0 LINE",
"320 238 LINE"
);
},
{
closed = 1;
nodes = (
"509 540 LINE",
"338 535 LINE",
"338 455 LINE",
"384 430 LINE",
"384 95 LINE",
"509 95 LINE"
);
},
{
closed = 1;
nodes = (
"384 105 LINE",
"323 80 LINE",
"323 0 LINE",
"568 0 LINE",
"568 80 LINE",
"509 105 LINE"
);
},
{
closed = 1;
nodes = (
"596 319 LINE",
"509 319 LINE",
"509 224 LINE",
"590 224 LINE"
);
},
{
closed = 1;
nodes = (
"300 224 LINE",
"384 224 LINE",
"384 319 LINE",
"301 319 LINE"
);
}
);
width = 893;
}
);
leftKerningGroup = x;
leftMetricsKey = "=|ka-cy";
rightKerningGroup = x;
rightMetricsKey = "ka-cy";
unicode = 0436;
},
{
glyphname = "ze-cy";
lastChange = "2014-11-10 22:18:22 +0100";
layers = (
{
guideLines = (
{
angle = 90;
position = "{18, 341}";
}
);
layerId = "DAACF28A-601E-43F2-B3A2-D78749C87D22";
name = Bold;
paths = (
{
closed = 1;
nodes = (
"122 110 OFFCURVE",
"89 119 OFFCURVE",
"36 129 CURVE",
"10 33 LINE",
"67 15 OFFCURVE",
"135 0 OFFCURVE",
"206 0 CURVE SMOOTH",
"336 0 OFFCURVE",
"443 41 OFFCURVE",
"443 166 CURVE SMOOTH",
"443 243 OFFCURVE",
"363 276 OFFCURVE",
"301 282 CURVE",
"381 297 OFFCURVE",
"424 340 OFFCURVE",
"424 407 CURVE SMOOTH",
"424 490 OFFCURVE",
"357 540 OFFCURVE",
"217 540 CURVE SMOOTH",
"148 540 OFFCURVE",
"85 532 OFFCURVE",
"19 517 CURVE",
"24 371 LINE",
"115 371 LINE",
"121 425 LINE",
"145 430 OFFCURVE",
"171 435 OFFCURVE",
"199 435 CURVE SMOOTH",
"252 435 OFFCURVE",
"279 419 OFFCURVE",
"279 378 CURVE SMOOTH",
"279 338 OFFCURVE",
"252 319 OFFCURVE",
"172 319 CURVE SMOOTH",
"128 319 LINE",
"128 229 LINE",
"178 229 LINE",
"262 229 OFFCURVE",
"288 209 OFFCURVE",
"288 167 CURVE SMOOTH",
"288 127 OFFCURVE",
"245 110 OFFCURVE",
"191 110 CURVE SMOOTH"
);
}
);
width = 483;
}
);
unicode = 0437;
},
{
glyphname = "ii-cy";
lastChange = "2014-11-10 22:18:22 +0100";
layers = (
{
layerId = "DAACF28A-601E-43F2-B3A2-D78749C87D22";
name = Bold;
paths = (
{
closed = 1;
nodes = (
"40 535 LINE",
"40 455 LINE",
"120 430 LINE",
"120 105 LINE",
"40 80 LINE",
"40 0 LINE",
"330 0 LINE",
"330 80 LINE",
"270 105 LINE",
"270 430 LINE",
"330 455 LINE",
"330 540 LINE"
);
},
{
closed = 1;
nodes = (
"270 241 LINE",
"270 135 LINE",
"480 295 LINE",
"480 400 LINE"
);
},
{
closed = 1;
nodes = (
"420 455 LINE",
"480 430 LINE",
"480 105 LINE",
"420 80 LINE",
"420 0 LINE",
"710 0 LINE",
"710 80 LINE",
"630 105 LINE",
"630 430 LINE",
"710 455 LINE",
"710 540 LINE",
"420 535 LINE"
);
}
);
width = 750;
}
);
leftKerningGroup = n;
unicode = 0438;
},
{
glyphname = "ka-cy";
lastChange = "2014-11-10 22:18:22 +0100";
layers = (
{
layerId = "DAACF28A-601E-43F2-B3A2-D78749C87D22";
name = Bold;
paths = (
{
closed = 1;
nodes = (
"30 532 LINE",
"30 452 LINE",
"110 432 LINE",
"110 105 LINE",
"30 80 LINE",
"30 0 LINE",
"315 0 LINE",
"315 80 LINE",
"260 105 LINE",
"260 224 LINE",
"327 224 LINE",
"451 0 LINE",
"633 0 LINE",
"633 80 LINE",
"557 104 LINE",
"447 290 LINE",
"538 442 LINE",
"608 455 LINE",
"608 540 LINE",
"350 535 LINE",
"350 455 LINE",
"394 441 LINE",
"326 319 LINE",
"260 319 LINE",
"260 540 LINE"
);
}
);
width = 643;
}
);
leftKerningGroup = n;
rightKerningGroup = k;
unicode = 043A;
},
{
glyphname = "el-cy";
lastChange = "2014-11-10 22:18:22 +0100";
layers = (
{
guideLines = (
{
position = "{484, 430}";
},
{
angle = 90;
position = "{168, 373}";
}
);
layerId = "DAACF28A-601E-43F2-B3A2-D78749C87D22";
name = Bold;
paths = (
{
closed = 1;
nodes = (
"418 105 LINE",
"338 80 LINE",
"338 0 LINE",
"638 0 LINE",
"638 80 LINE",
"568 105 LINE",
"568 430 LINE",
"638 455 LINE",
"638 540 LINE",
"78 540 LINE",
"78 455 LINE",
"191 430 LINE",
"293 420 LINE",
"418 420 LINE"
);
},
{
closed = 1;
nodes = (
"191 430 LINE",
"183 214 OFFCURVE",
"158 113 OFFCURVE",
"65 113 CURVE SMOOTH",
"39 113 OFFCURVE",
"18 116 OFFCURVE",
"2 119 CURVE",
"-15 4 LINE",
"5 -3 OFFCURVE",
"44 -10 OFFCURVE",
"84 -10 CURVE SMOOTH",
"243 -10 OFFCURVE",
"277 143 OFFCURVE",
"293 420 CURVE"
);
}
);
width = 673;
}
);
leftKerningGroup = "el-cy";
unicode = 043B;
},
{
glyphname = "em-cy";
lastChange = "2014-11-10 22:18:22 +0100";
layers = (
{
layerId = "DAACF28A-601E-43F2-B3A2-D78749C87D22";
name = Bold;
paths = (
{
closed = 1;
nodes = (
"709 430 LINE",
"789 455 LINE",
"789 540 LINE",
"565 535 LINE",
"584 377 LINE",
"584 105 LINE",
"709 105 LINE"
);
},
{
closed = 1;
nodes = (
"584 105 LINE",
"524 80 LINE",
"524 0 LINE",
"789 0 LINE",
"789 80 LINE",
"709 105 LINE"
);
},
{
closed = 1;
nodes = (
"35 80 LINE",
"35 0 LINE",
"295 0 LINE",
"295 80 LINE",
"235 105 LINE",
"115 105 LINE"
);
},
{
closed = 1;
nodes = (
"235 346 LINE",
"260 540 LINE",
"35 535 LINE",
"35 455 LINE",
"115 430 LINE",
"115 105 LINE",
"235 105 LINE"
);
},
{
closed = 1;
nodes = (
"262 274 LINE",
"362 105 LINE",
"443 110 LINE",
"557 310 LINE",
"584 377 LINE",
"565 535 LINE",
"413 253 LINE",
"260 540 LINE",
"235 346 LINE"
);
}
);
width = 824;
}
);
leftKerningGroup = n;
unicode = 043C;
},
{
glyphname = "en-cy";
lastChange = "2014-11-10 22:18:22 +0100";
layers = (
{
layerId = "DAACF28A-601E-43F2-B3A2-D78749C87D22";
name = Bold;
paths = (
{
closed = 1;
nodes = (
"615 430 LINE",
"695 455 LINE",
"695 540 LINE",
"405 535 LINE",
"405 455 LINE",
"465 430 LINE",
"465 95 LINE",
"615 95 LINE"
);
},
{
closed = 1;
nodes = (
"465 105 LINE",
"405 80 LINE",
"405 0 LINE",
"695 0 LINE",
"695 80 LINE",
"615 105 LINE"
);
},
{
closed = 1;
nodes = (
"35 80 LINE",
"35 0 LINE",
"325 0 LINE",
"325 80 LINE",
"265 105 LINE",
"115 105 LINE"
);
},
{
closed = 1;
nodes = (
"265 430 LINE",
"325 455 LINE",
"325 540 LINE",
"35 535 LINE",
"35 455 LINE",
"115 430 LINE",
"115 105 LINE",
"265 105 LINE"
);
},
{
closed = 1;
nodes = (
"255 332 LINE",
"255 227 LINE",
"475 227 LINE",
"475 332 LINE"
);
}
);
width = 730;
}
);
leftKerningGroup = n;
unicode = 043D;
},
{
glyphname = "pe-cy";
lastChange = "2014-11-10 22:18:22 +0100";
layers = (
{
layerId = "DAACF28A-601E-43F2-B3A2-D78749C87D22";
name = Bold;
paths = (
{
closed = 1;
nodes = (
"465 105 LINE",
"405 80 LINE",
"405 0 LINE",
"695 0 LINE",
"695 80 LINE",
"615 105 LINE",
"615 430 LINE",
"695 455 LINE",
"695 540 LINE",
"277 540 LINE",
"45 535 LINE",
"45 455 LINE",
"125 430 LINE",
"275 420 LINE",
"465 420 LINE"
);
},
{
closed = 1;
nodes = (
"275 105 LINE",
"335 80 LINE",
"335 0 LINE",
"45 0 LINE",
"45 80 LINE",
"125 105 LINE",
"125 430 LINE",
"275 420 LINE"
);
}
);
width = 730;
}
);
leftKerningGroup = n;
unicode = 043F;
},
{
glyphname = "te-cy";
lastChange = "2014-11-10 22:18:22 +0100";
layers = (
{
layerId = "DAACF28A-601E-43F2-B3A2-D78749C87D22";
name = Bold;
paths = (
{
closed = 1;
nodes = (
"348 105 LINE",
"448 80 LINE",
"448 0 LINE",
"98 0 LINE",
"98 80 LINE",
"198 105 LINE",
"198 540 LINE",
"536 540 LINE",
"531 300 LINE",
"436 300 LINE",
"416 420 LINE",
"348 420 LINE"
);
},
{
closed = 1;
nodes = (
"130 420 LINE",
"110 300 LINE",
"15 300 LINE",
"10 540 LINE",
"198 540 LINE",
"198 420 LINE"
);
}
);
width = 546;
}
);
leftKerningGroup = "te-cy";
rightKerningGroup = "te-cy";
unicode = 0442;
},
{
glyphname = "ef-cy";
lastChange = "2014-11-10 22:18:22 +0100";
layers = (
{
guideLines = (
{
position = "{548, 775}";
}
);
layerId = "DAACF28A-601E-43F2-B3A2-D78749C87D22";
name = Bold;
paths = (
{
closed = 1;
nodes = (
"152 557 OFFCURVE",
"25 447 OFFCURVE",
"25 270 CURVE SMOOTH",
"25 90 OFFCURVE",
"137 0 OFFCURVE",
"365 0 CURVE SMOOTH",
"592 0 OFFCURVE",
"717 105 OFFCURVE",
"717 285 CURVE SMOOTH",
"717 462 OFFCURVE",
"602 557 OFFCURVE",
"380 557 CURVE SMOOTH"
);
},
{
closed = 1;
nodes = (
"517 457 OFFCURVE",
"572 402 OFFCURVE",
"572 280 CURVE SMOOTH",
"572 160 OFFCURVE",
"512 100 OFFCURVE",
"370 100 CURVE SMOOTH",
"227 100 OFFCURVE",
"170 151 OFFCURVE",
"170 275 CURVE SMOOTH",
"170 392 OFFCURVE",
"232 457 OFFCURVE",
"375 457 CURVE SMOOTH"
);
},
{
closed = 1;
nodes = (
"431 -125 LINE",
"431 775 LINE",
"230 767 LINE",
"230 687 LINE",
"310 667 LINE",
"310 -125 LINE",
"230 -150 LINE",
"230 -230 LINE",
"511 -230 LINE",
"511 -150 LINE"
);
}
);
width = 742;
}
);
leftKerningGroup = o;
leftMetricsKey = o;
rightKerningGroup = o;
rightMetricsKey = o;
unicode = 0444;
},
{
glyphname = "che-cy";
lastChange = "2014-11-10 22:18:22 +0100";
layers = (
{
layerId = "DAACF28A-601E-43F2-B3A2-D78749C87D22";
name = Bold;
paths = (
{
closed = 1;
nodes = (
"390 105 LINE",
"390 430 LINE",
"340 455 LINE",
"340 535 LINE",
"620 540 LINE",
"620 455 LINE",
"540 430 LINE",
"540 105 LINE"
);
},
{
closed = 1;
nodes = (
"620 80 LINE",
"620 0 LINE",
"300 0 LINE",
"300 80 LINE",
"390 105 LINE",
"540 105 LINE"
);
},
{
closed = 1;
nodes = (
"-10 455 LINE",
"-10 535 LINE",
"265 540 LINE",
"265 455 LINE",
"215 431 LINE",
"65 431 LINE"
);
},
{
closed = 1;
nodes = (
"392 195 OFFCURVE",
"330 170 OFFCURVE",
"260 170 CURVE SMOOTH",
"130 170 OFFCURVE",
"65 239 OFFCURVE",
"65 369 CURVE SMOOTH",
"65 431 LINE",
"215 431 LINE",
"215 381 LINE SMOOTH",
"215 302 OFFCURVE",
"247 275 OFFCURVE",
"307 275 CURVE SMOOTH",
"375 275 OFFCURVE",
"422 296 OFFCURVE",
"422 296 CURVE",
"422 215 LINE"
);
}
);
width = 655;
}
);
unicode = 0447;
},
{
glyphname = "tse-cy";
lastChange = "2014-11-10 22:18:22 +0100";
layers = (
{
layerId = "DAACF28A-601E-43F2-B3A2-D78749C87D22";
name = Bold;
paths = (
{
closed = 1;
nodes = (
"579 0 LINE",
"600 -175 LINE",
"695 -175 LINE",
"705 80 LINE"
);
},
{
closed = 1;
nodes = (
"455 430 LINE",
"395 455 LINE",
"395 535 LINE",
"685 540 LINE",
"685 455 LINE",
"605 430 LINE",
"605 105 LINE",
"455 120 LINE"
);
},
{
closed = 1;
nodes = (
"265 430 LINE",
"325 455 LINE",
"325 540 LINE",
"35 535 LINE",
"35 455 LINE",
"115 430 LINE",
"115 105 LINE",
"35 80 LINE",
"35 0 LINE",
"579 0 LINE",
"705 80 LINE",
"605 105 LINE",
"455 120 LINE",
"265 120 LINE"
);
},
{
closed = 1;
nodes = (
"579 0 LINE SMOOTH",
"600 -175 LINE SMOOTH",
"695 -175 LINE SMOOTH",
"705 80 LINE SMOOTH"
);
},
{
closed = 1;
nodes = (
"455 430 LINE SMOOTH",
"395 455 LINE SMOOTH",
"395 535 LINE SMOOTH",
"685 540 LINE SMOOTH",
"685 455 LINE SMOOTH",
"605 430 LINE SMOOTH",
"605 105 LINE SMOOTH",
"455 120 LINE SMOOTH"
);
},
{
closed = 1;
nodes = (
"265 430 LINE SMOOTH",
"325 455 LINE SMOOTH",
"325 540 LINE SMOOTH",
"35 535 LINE SMOOTH",
"35 455 LINE SMOOTH",
"115 430 LINE SMOOTH",
"115 105 LINE SMOOTH",
"35 80 LINE SMOOTH",
"35 0 LINE SMOOTH",
"579 0 LINE SMOOTH",
"705 80 LINE SMOOTH",
"605 105 LINE SMOOTH",
"455 120 LINE SMOOTH",
"265 120 LINE SMOOTH"
);
}
);
width = 725;
}
);
leftKerningGroup = n;
rightKerningGroup = "tse-cy";
unicode = 0446;
},
{
glyphname = "sha-cy";
lastChange = "2014-11-10 22:18:22 +0100";
layers = (
{
layerId = "DAACF28A-601E-43F2-B3A2-D78749C87D22";
name = Bold;
paths = (
{
closed = 1;
nodes = (
"265 435 LINE",
"320 460 LINE",
"320 540 LINE",
"35 540 LINE",
"35 460 LINE",
"115 435 LINE",
"115 105 LINE",
"35 80 LINE",
"35 0 LINE",
"965 0 LINE",
"965 80 LINE",
"885 105 LINE",
"735 120 LINE",
"265 120 LINE"
);
},
{
closed = 1;
nodes = (
"735 430 LINE",
"680 455 LINE",
"680 535 LINE",
"965 540 LINE",
"965 460 LINE",
"885 430 LINE",
"885 105 LINE",
"735 120 LINE"
);
},
{
closed = 1;
nodes = (
"575 120 LINE",
"575 430 LINE",
"630 455 LINE",
"630 540 LINE",
"370 535 LINE",
"370 455 LINE",
"425 430 LINE",
"425 120 LINE"
);
}
);
width = 1000;
}
);
leftKerningGroup = u;
unicode = 0448;
},
{
glyphname = "shcha-cy";
lastChange = "2014-11-10 22:18:22 +0100";
layers = (
{
layerId = "DAACF28A-601E-43F2-B3A2-D78749C87D22";
name = Bold;
paths = (
{
closed = 1;
nodes = (
"265 430 LINE",
"320 455 LINE",
"320 540 LINE",
"35 535 LINE",
"35 455 LINE",
"115 430 LINE",
"115 105 LINE",
"35 80 LINE",
"35 0 LINE",
"859 0 LINE",
"985 80 LINE",
"885 105 LINE",
"735 120 LINE",
"265 120 LINE"
);
},
{
closed = 1;
nodes = (
"735 430 LINE",
"680 455 LINE",
"680 535 LINE",
"965 540 LINE",
"965 455 LINE",
"885 430 LINE",
"885 105 LINE",
"735 120 LINE"
);
},
{
closed = 1;
nodes = (
"575 120 LINE",
"575 430 LINE",
"630 455 LINE",
"630 540 LINE",
"370 535 LINE",
"370 455 LINE",
"425 430 LINE",
"425 120 LINE"
);
},
{
closed = 1;
nodes = (
"859 0 LINE",
"880 -175 LINE",
"975 -175 LINE",
"985 80 LINE"
);
}
);
width = 1005;
}
);
leftKerningGroup = n;
rightKerningGroup = "tse-cy";
unicode = 0449;
},
{
glyphname = "dzhe-cy";
lastChange = "2014-11-10 22:18:22 +0100";
layers = (
{
layerId = "DAACF28A-601E-43F2-B3A2-D78749C87D22";
name = Bold;
paths = (
{
closed = 1;
nodes = (
"265 430 LINE",
"325 455 LINE",
"325 540 LINE",
"35 535 LINE",
"35 455 LINE",
"115 430 LINE",
"115 105 LINE",
"35 80 LINE",
"35 0 LINE",
"685 0 LINE",
"685 80 LINE",
"605 105 LINE",
"455 120 LINE",
"265 120 LINE"
);
},
{
closed = 1;
nodes = (
"455 430 LINE",
"395 455 LINE",
"395 535 LINE",
"685 540 LINE",
"685 455 LINE",
"605 430 LINE",
"605 105 LINE",
"455 120 LINE"
);
},
{
closed = 1;
nodes = (
"293 0 LINE",
"313 -175 LINE",
"408 -175 LINE",
"426 0 LINE"
);
}
);
width = 720;
}
);
leftKerningGroup = u;
unicode = 045F;
},
{
glyphname = "ia-cy";
lastChange = "2014-11-10 22:18:22 +0100";
layers = (
{
layerId = "DAACF28A-601E-43F2-B3A2-D78749C87D22";
name = Bold;
paths = (
{
closed = 1;
nodes = (
"296 80 LINE",
"296 0 LINE",
"576 0 LINE",
"576 80 LINE",
"501 105 LINE",
"351 105 LINE"
);
},
{
closed = 1;
nodes = (
"501 430 LINE",
"576 455 LINE",
"576 540 LINE",
"351 540 LINE",
"351 105 LINE",
"501 105 LINE"
);
},
{
closed = 1;
nodes = (
"145 540 OFFCURVE",
"51 495 OFFCURVE",
"51 380 CURVE SMOOTH",
"51 265 OFFCURVE",
"159 205 OFFCURVE",
"297 205 CURVE SMOOTH",
"351 205 LINE",
"351 295 LINE",
"290 295 LINE",
"240 295 OFFCURVE",
"201 315 OFFCURVE",
"201 365 CURVE SMOOTH",
"201 412 OFFCURVE",
"240 425 OFFCURVE",
"287 425 CURVE SMOOTH",
"351 425 LINE",
"351 540 LINE",
"300 540 LINE"
);
},
{
closed = 1;
nodes = (
"203 217 LINE",
"149 217 OFFCURVE",
"117 190 OFFCURVE",
"91 155 CURVE SMOOTH",
"51 100 LINE",
"-5 80 LINE",
"-5 0 LINE",
"168 0 LINE",
"221 106 LINE SMOOTH",
"250 163 OFFCURVE",
"271 205 OFFCURVE",
"321 205 CURVE"
);
}
);
width = 611;
}
);
unicode = 044F;
},
{
glyphname = "softsign-cy";
lastChange = "2014-11-10 22:18:22 +0100";
layers = (
{
layerId = "DAACF28A-601E-43F2-B3A2-D78749C87D22";
name = Bold;
paths = (
{
closed = 1;
nodes = (
"35 535 LINE",
"35 455 LINE",
"115 430 LINE",
"115 105 LINE",
"35 80 LINE",
"35 0 LINE",
"265 0 LINE",
"265 430 LINE",
"355 455 LINE",
"355 540 LINE"
);
},
{
closed = 1;
nodes = (
"445 0 OFFCURVE",
"535 65 OFFCURVE",
"535 175 CURVE SMOOTH",
"535 272 OFFCURVE",
"491 357 OFFCURVE",
"293 357 CURVE",
"265 357 LINE",
"265 247 LINE",
"293 247 LINE",
"353 247 OFFCURVE",
"380 230 OFFCURVE",
"380 170 CURVE SMOOTH",
"380 125 OFFCURVE",
"346 110 OFFCURVE",
"296 110 CURVE SMOOTH",
"265 110 LINE",
"265 0 LINE",
"283 0 LINE"
);
}
);
width = 555;
}
);
leftKerningGroup = n;
rightKerningGroup = "softsign-cy";
unicode = 044C;
},
{
glyphname = "hardsign-cy";
lastChange = "2014-11-10 22:18:22 +0100";
layers = (
{
layerId = "DAACF28A-601E-43F2-B3A2-D78749C87D22";
name = Bold;
paths = (
{
closed = 1;
nodes = (
"353 540 LINE",
"353 430 LINE",
"443 455 LINE",
"443 540 LINE"
);
},
{
closed = 1;
nodes = (
"135 420 LINE",
"115 300 LINE",
"20 300 LINE",
"15 540 LINE",
"203 540 LINE",
"203 420 LINE"
);
},
{
closed = 1;
nodes = (
"353 0 LINE",
"103 0 LINE",
"103 80 LINE",
"203 105 LINE",
"203 540 LINE",
"353 540 LINE"
);
},
{
closed = 1;
nodes = (
"353 0 LINE",
"353 110 LINE",
"384 110 LINE SMOOTH",
"434 110 OFFCURVE",
"468 125 OFFCURVE",
"468 170 CURVE SMOOTH",
"468 230 OFFCURVE",
"441 247 OFFCURVE",
"381 247 CURVE",
"353 247 LINE",
"353 357 LINE",
"381 357 LINE",
"579 357 OFFCURVE",
"623 272 OFFCURVE",
"623 175 CURVE SMOOTH",
"623 65 OFFCURVE",
"533 0 OFFCURVE",
"371 0 CURVE"
);
}
);
width = 643;
}
);
leftKerningGroup = "te-cy";
rightKerningGroup = "softsign-cy";
unicode = 044A;
},
{
glyphname = "yeru-cy";
lastChange = "2014-11-10 22:18:22 +0100";
layers = (
{
layerId = "DAACF28A-601E-43F2-B3A2-D78749C87D22";
name = Bold;
paths = (
{
closed = 1;
nodes = (
"35 535 LINE",
"35 455 LINE",
"115 430 LINE",
"115 105 LINE",
"35 80 LINE",
"35 0 LINE",
"265 0 LINE",
"265 430 LINE",
"355 455 LINE",
"355 540 LINE"
);
},
{
closed = 1;
nodes = (
"445 0 OFFCURVE",
"535 65 OFFCURVE",
"535 175 CURVE SMOOTH",
"535 272 OFFCURVE",
"491 357 OFFCURVE",
"293 357 CURVE",
"265 357 LINE",
"265 247 LINE",
"293 247 LINE",
"353 247 OFFCURVE",
"380 230 OFFCURVE",
"380 170 CURVE SMOOTH",
"380 125 OFFCURVE",
"346 110 OFFCURVE",
"296 110 CURVE SMOOTH",
"265 110 LINE",
"265 0 LINE",
"283 0 LINE"
);
},
{
closed = 1;
nodes = (
"558 80 LINE",
"558 0 LINE",
"848 0 LINE",
"848 80 LINE",
"788 105 LINE",
"638 105 LINE"
);
},
{
closed = 1;
nodes = (
"788 430 LINE",
"848 455 LINE",
"848 540 LINE",
"558 535 LINE",
"558 455 LINE",
"638 430 LINE",
"638 105 LINE",
"788 105 LINE"
);
}
);
width = 883;
}
);
leftKerningGroup = n;
rightKerningGroup = a;
unicode = 044B;
},
{
glyphname = "lje-cy";
lastChange = "2014-11-10 22:18:22 +0100";
layers = (
{
guideLines = (
{
position = "{145, 430}";
}
);
layerId = "DAACF28A-601E-43F2-B3A2-D78749C87D22";
name = Bold;
paths = (
{
closed = 1;
nodes = (
"778 0 OFFCURVE",
"868 65 OFFCURVE",
"868 175 CURVE SMOOTH",
"868 272 OFFCURVE",
"824 357 OFFCURVE",
"626 357 CURVE",
"583 357 LINE",
"583 247 LINE",
"626 247 LINE",
"686 247 OFFCURVE",
"713 230 OFFCURVE",
"713 170 CURVE SMOOTH",
"713 125 OFFCURVE",
"679 110 OFFCURVE",
"629 110 CURVE SMOOTH",
"583 110 LINE",
"583 0 LINE",
"616 0 LINE"
);
},
{
closed = 1;
nodes = (
"433 105 LINE",
"348 80 LINE",
"348 0 LINE",
"583 0 LINE",
"583 430 LINE",
"673 455 LINE",
"673 540 LINE",
"78 540 LINE",
"78 455 LINE",
"191 430 LINE",
"205 420 LINE",
"433 420 LINE"
);
},
{
closed = 1;
nodes = (
"191 430 LINE",
"183 214 OFFCURVE",
"158 113 OFFCURVE",
"65 113 CURVE SMOOTH",
"39 113 OFFCURVE",
"18 116 OFFCURVE",
"2 119 CURVE",
"-15 4 LINE",
"5 -3 OFFCURVE",
"44 -10 OFFCURVE",
"84 -10 CURVE SMOOTH",
"243 -10 OFFCURVE",
"277 143 OFFCURVE",
"293 420 CURVE"
);
}
);
width = 893;
}
);
leftKerningGroup = "el-cy";
rightKerningGroup = "softsign-cy";
rightMetricsKey = "softsign-cy";
unicode = 0459;
},
{
glyphname = "nje-cy";
lastChange = "2014-11-10 22:18:22 +0100";
layers = (
{
guideLines = (
{
position = "{475, 345}";
},
{
position = "{547, 235}";
}
);
layerId = "DAACF28A-601E-43F2-B3A2-D78749C87D22";
name = Bold;
paths = (
{
closed = 1;
nodes = (
"460 105 LINE",
"460 430 LINE",
"400 455 LINE",
"400 535 LINE",
"690 540 LINE",
"690 455 LINE",
"610 430 LINE",
"610 105 LINE"
);
},
{
closed = 1;
nodes = (
"610 0 LINE",
"400 0 LINE",
"400 80 LINE",
"460 105 LINE",
"610 105 LINE"
);
},
{
closed = 1;
nodes = (
"35 80 LINE",
"35 0 LINE",
"325 0 LINE",
"325 80 LINE",
"265 105 LINE",
"115 105 LINE"
);
},
{
closed = 1;
nodes = (
"265 430 LINE",
"325 455 LINE",
"325 540 LINE",
"35 535 LINE",
"35 455 LINE",
"115 430 LINE",
"115 105 LINE",
"265 105 LINE"
);
},
{
closed = 1;
nodes = (
"460 235 LINE",
"265 235 LINE",
"265 345 LINE",
"460 345 LINE"
);
},
{
closed = 1;
nodes = (
"802 0 OFFCURVE",
"892 65 OFFCURVE",
"892 175 CURVE SMOOTH",
"892 260 OFFCURVE",
"846 345 OFFCURVE",
"653 345 CURVE",
"610 345 LINE",
"610 235 LINE",
"653 235 LINE",
"710 235 OFFCURVE",
"737 218 OFFCURVE",
"737 170 CURVE SMOOTH",
"737 125 OFFCURVE",
"703 110 OFFCURVE",
"656 110 CURVE SMOOTH",
"610 110 LINE",
"610 0 LINE",
"643 0 LINE"
);
}
);
width = 912;
}
);
leftKerningGroup = n;
rightKerningGroup = "softsign-cy";
rightMetricsKey = "softsign-cy";
unicode = 045A;
},
{
glyphname = "e-cy";
lastChange = "2014-11-10 22:18:22 +0100";
layers = (
{
layerId = "DAACF28A-601E-43F2-B3A2-D78749C87D22";
name = Bold;
paths = (
{
closed = 1;
nodes = (
"460 163 LINE",
"429 145 OFFCURVE",
"385 110 OFFCURVE",
"315 110 CURVE SMOOTH",
"232 110 OFFCURVE",
"190 173 OFFCURVE",
"190 282 CURVE SMOOTH",
"190 382 OFFCURVE",
"235 430 OFFCURVE",
"307 430 CURVE SMOOTH",
"347 430 OFFCURVE",
"376 422 OFFCURVE",
"376 422 CURVE",
"390 356 LINE",
"480 356 LINE",
"485 515 LINE",
"485 515 OFFCURVE",
"396 550 OFFCURVE",
"310 550 CURVE SMOOTH",
"135 550 OFFCURVE",
"35 440 OFFCURVE",
"35 262 CURVE SMOOTH",
"35 92 OFFCURVE",
"130 -10 OFFCURVE",
"295 -10 CURVE SMOOTH",
"407 -10 OFFCURVE",
"485 53 OFFCURVE",
"510 75 CURVE"
);
},
{
closed = 1;
nodes = (
"369 216 LINE",
"373 316 LINE",
"186 316 LINE",
"186 216 LINE"
);
}
);
width = 535;
}
);
leftKerningGroup = o;
unicode = 0454;
},
{
glyphname = "ereversed-cy";
lastChange = "2014-11-10 22:18:22 +0100";
layers = (
{
layerId = "DAACF28A-601E-43F2-B3A2-D78749C87D22";
name = Bold;
paths = (
{
closed = 1;
nodes = (
"364 316 LINE",
"166 316 LINE",
"161 216 LINE",
"364 216 LINE"
);
},
{
closed = 1;
nodes = (
"42 56 OFFCURVE",
"126 -12 OFFCURVE",
"241 -10 CURVE SMOOTH",
"406 -7 OFFCURVE",
"501 108 OFFCURVE",
"501 278 CURVE SMOOTH",
"501 456 OFFCURVE",
"401 550 OFFCURVE",
"236 550 CURVE SMOOTH",
"145 550 OFFCURVE",
"51 509 OFFCURVE",
"51 509 CURVE",
"56 356 LINE",
"146 356 LINE",
"160 422 LINE",
"160 422 OFFCURVE",
"189 430 OFFCURVE",
"224 430 CURVE SMOOTH",
"306 430 OFFCURVE",
"346 362 OFFCURVE",
"346 262 CURVE SMOOTH",
"346 163 OFFCURVE",
"304 110 OFFCURVE",
"231 110 CURVE SMOOTH",
"166 110 OFFCURVE",
"107 143 OFFCURVE",
"76 161 CURVE",
"25 69 LINE"
);
}
);
width = 536;
}
);
rightKerningGroup = o;
unicode = 044D;
},
{
glyphname = "yi-cy";
lastChange = "2014-11-10 22:18:22 +0100";
layers = (
{
components = (
{
name = dotlessi;
transform = "{1, 0, 0, 1, 1, 0}";
}
);
layerId = "DAACF28A-601E-43F2-B3A2-D78749C87D22";
name = Bold;
paths = (
{
closed = 1;
nodes = (
"0 648 OFFCURVE",
"25 620 OFFCURVE",
"72 620 CURVE SMOOTH",
"111 620 OFFCURVE",
"146 648 OFFCURVE",
"146 698 CURVE SMOOTH",
"146 747 OFFCURVE",
"121 776 OFFCURVE",
"74 776 CURVE SMOOTH",
"35 776 OFFCURVE",
"0 747 OFFCURVE",
"0 698 CURVE SMOOTH"
);
},
{
closed = 1;
nodes = (
"208 648 OFFCURVE",
"233 620 OFFCURVE",
"280 620 CURVE SMOOTH",
"319 620 OFFCURVE",
"354 648 OFFCURVE",
"354 698 CURVE SMOOTH",
"354 747 OFFCURVE",
"330 776 OFFCURVE",
"282 776 CURVE SMOOTH",
"244 776 OFFCURVE",
"208 747 OFFCURVE",
"208 698 CURVE SMOOTH"
);
}
);
width = 359;
}
);
leftKerningGroup = i;
rightKerningGroup = i;
unicode = 0457;
},
{
glyphname = "tshe-cy";
lastChange = "2014-11-10 22:18:22 +0100";
layers = (
{
layerId = "DAACF28A-601E-43F2-B3A2-D78749C87D22";
name = Bold;
paths = (
{
closed = 1;
nodes = (
"25 555 LINE",
"445 555 LINE",
"445 630 LINE",
"25 630 LINE"
);
},
{
closed = 1;
nodes = (
"25 770 LINE",
"25 690 LINE",
"105 670 LINE",
"105 105 LINE",
"25 80 LINE",
"25 0 LINE",
"308 0 LINE",
"308 80 LINE",
"255 105 LINE",
"255 338 LINE",
"255 338 OFFCURVE",
"308 391 OFFCURVE",
"364 391 CURVE SMOOTH",
"410 391 OFFCURVE",
"430 361 OFFCURVE",
"430 311 CURVE SMOOTH",
"430 104 LINE",
"378 80 LINE",
"378 0 LINE",
"650 0 LINE",
"650 80 LINE",
"580 105 LINE",
"580 335 LINE SMOOTH",
"580 447 OFFCURVE",
"525 515 OFFCURVE",
"423 515 CURVE SMOOTH",
"349 515 OFFCURVE",
"284 471 OFFCURVE",
"255 447 CURVE",
"255 775 LINE"
);
}
);
width = 675;
}
);
rightKerningGroup = n;
unicode = 045B;
},
{
glyphname = "iu-cy";
lastChange = "2014-11-10 22:18:22 +0100";
layers = (
{
layerId = "DAACF28A-601E-43F2-B3A2-D78749C87D22";
name = Bold;
paths = (
{
closed = 1;
nodes = (
"35 80 LINE",
"35 0 LINE",
"325 0 LINE",
"325 80 LINE",
"265 105 LINE",
"115 105 LINE"
);
},
{
closed = 1;
nodes = (
"265 430 LINE",
"325 455 LINE",
"325 540 LINE",
"35 535 LINE",
"35 455 LINE",
"115 430 LINE",
"115 105 LINE",
"265 105 LINE"
);
},
{
closed = 1;
nodes = (
"455 225 LINE",
"265 225 LINE",
"265 335 LINE",
"455 335 LINE"
);
},
{
closed = 1;
nodes = (
"777 550 OFFCURVE",
"867 452 OFFCURVE",
"867 280 CURVE SMOOTH",
"867 100 OFFCURVE",
"762 -10 OFFCURVE",
"600 -10 CURVE SMOOTH",
"437 -10 OFFCURVE",
"345 75 OFFCURVE",
"345 265 CURVE SMOOTH",
"345 445 OFFCURVE",
"452 550 OFFCURVE",
"615 550 CURVE SMOOTH"
);
},
{
closed = 1;
nodes = (
"532 430 OFFCURVE",
"495 390 OFFCURVE",
"495 270 CURVE SMOOTH",
"495 160 OFFCURVE",
"527 110 OFFCURVE",
"605 110 CURVE SMOOTH",
"682 110 OFFCURVE",
"717 155 OFFCURVE",
"717 275 CURVE SMOOTH",
"717 377 OFFCURVE",
"687 430 OFFCURVE",
"610 430 CURVE SMOOTH"
);
}
);
width = 902;
}
);
leftKerningGroup = n;
rightKerningGroup = o;
unicode = 044E;
},
{
glyphname = "dje-cy";
lastChange = "2014-11-10 22:18:22 +0100";
layers = (
{
layerId = "DAACF28A-601E-43F2-B3A2-D78749C87D22";
name = Bold;
paths = (
{
closed = 1;
nodes = (
"430 -95 OFFCURVE",
"408 -133 OFFCURVE",
"348 -130 CURVE SMOOTH",
"287 -127 LINE",
"275 -220 LINE",
"275 -220 OFFCURVE",
"331 -235 OFFCURVE",
"370 -235 CURVE SMOOTH",
"539 -235 OFFCURVE",
"580 -150 OFFCURVE",
"580 233 CURVE SMOOTH",
"580 458 OFFCURVE",
"513 515 OFFCURVE",
"413 515 CURVE SMOOTH",
"348 515 OFFCURVE",
"287 477 OFFCURVE",
"255 457 CURVE",
"255 775 LINE",
"25 770 LINE",
"25 690 LINE",
"105 670 LINE",
"105 105 LINE",
"25 80 LINE",
"25 0 LINE",
"308 0 LINE",
"308 80 LINE",
"255 105 LINE",
"255 351 LINE",
"255 351 OFFCURVE",
"304 391 OFFCURVE",
"354 391 CURVE SMOOTH",
"404 391 OFFCURVE",
"430 369 OFFCURVE",
"430 219 CURVE"
);
},
{
closed = 1;
nodes = (
"25 555 LINE",
"445 555 LINE",
"445 630 LINE",
"25 630 LINE"
);
}
);
width = 630;
}
);
rightKerningGroup = j;
unicode = 0452;
},
{
glyphname = "ustraitstroke-cy";
lastChange = "2014-11-10 22:18:22 +0100";
layers = (
{
guideLines = (
{
position = "{93, -230}";
}
);
layerId = "DAACF28A-601E-43F2-B3A2-D78749C87D22";
name = Bold;
paths = (
{
closed = 1;
nodes = (
"468 -150 LINE",
"468 -230 LINE",
"118 -230 LINE",
"118 -150 LINE",
"218 -125 LINE",
"218 0 LINE",
"368 0 LINE",
"368 -125 LINE"
);
},
{
closed = 1;
nodes = (
"302 142 LINE",
"206 445 LINE",
"267 455 LINE",
"267 540 LINE",
"5 535 LINE",
"5 455 LINE",
"58 439 LINE",
"228 0 LINE",
"358 0 LINE",
"532 442 LINE",
"594 455 LINE",
"594 540 LINE",
"332 535 LINE",
"332 455 LINE",
"395 442 LINE"
);
},
{
closed = 1;
nodes = (
"68 90 LINE",
"68 0 LINE",
"518 0 LINE",
"518 90 LINE"
);
}
);
width = 599;
}
);
unicode = 04B1;
},
{
glyphname = Delta;
lastChange = "2014-11-10 22:18:22 +0100";
layers = (
{
layerId = "DAACF28A-601E-43F2-B3A2-D78749C87D22";
name = Bold;
paths = (
{
closed = 1;
nodes = (
"10 100 LINE",
"10 0 LINE",
"654 0 LINE",
"654 100 LINE",
"402 723 LINE",
"269 723 LINE"
);
},
{
closed = 1;
nodes = (
"324 560 LINE",
"503 112 LINE",
"145 112 LINE"
);
}
);
width = 664;
}
);
unicode = 0394;
},
{
glyphname = Pi;
lastChange = "2014-11-10 22:18:22 +0100";
layers = (
{
layerId = "DAACF28A-601E-43F2-B3A2-D78749C87D22";
name = Bold;
paths = (
{
closed = 1;
nodes = (
"751 117 LINE",
"751 117 OFFCURVE",
"712 101 OFFCURVE",
"683 101 CURVE SMOOTH",
"649 101 OFFCURVE",
"633 121 OFFCURVE",
"633 164 CURVE SMOOTH",
"633 585 LINE",
"708 615 LINE",
"708 705 LINE",
"267 705 LINE",
"37 700 LINE",
"37 615 LINE",
"112 585 LINE",
"112 112 LINE",
"30 87 LINE",
"30 0 LINE",
"350 0 LINE",
"350 87 LINE",
"267 112 LINE",
"267 585 LINE",
"478 585 LINE",
"478 170 LINE SMOOTH",
"478 40 OFFCURVE",
"540 -10 OFFCURVE",
"620 -10 CURVE SMOOTH",
"712 -10 OFFCURVE",
"786 47 OFFCURVE",
"786 47 CURVE"
);
}
);
width = 796;
}
);
unicode = 03A0;
},
{
glyphname = Omega;
lastChange = "2014-11-10 22:18:22 +0100";
layers = (
{
guideLines = (
{
angle = 90;
position = "{71, 320}";
}
);
layerId = "DAACF28A-601E-43F2-B3A2-D78749C87D22";
name = Bold;
paths = (
{
closed = 1;
nodes = (
"45 0 LINE",
"321 0 LINE",
"321 95 LINE",
"265 120 LINE",
"45 120 LINE"
);
},
{
closed = 1;
nodes = (
"436 0 LINE",
"712 0 LINE",
"712 130 LINE",
"483 121 LINE",
"436 95 LINE"
);
},
{
closed = 1;
nodes = (
"320 95 LINE",
"269 135 OFFCURVE",
"226 200 OFFCURVE",
"226 362 CURVE SMOOTH",
"226 530 OFFCURVE",
"281 592 OFFCURVE",
"381 592 CURVE SMOOTH",
"481 592 OFFCURVE",
"531 522 OFFCURVE",
"531 367 CURVE SMOOTH",
"531 201 OFFCURVE",
"480 126 OFFCURVE",
"436 95 CURVE",
"602 126 LINE",
"632 149 OFFCURVE",
"701 246 OFFCURVE",
"701 372 CURVE SMOOTH",
"701 585 OFFCURVE",
"586 717 OFFCURVE",
"386 717 CURVE SMOOTH",
"183 717 OFFCURVE",
"56 577 OFFCURVE",
"56 357 CURVE",
"56 228 OFFCURVE",
"129 136 OFFCURVE",
"150 120 CURVE"
);
}
);
width = 757;
}
);
unicode = 03A9;
},
{
glyphname = mu;
lastChange = "2014-11-10 22:18:22 +0100";
layers = (
{
layerId = "DAACF28A-601E-43F2-B3A2-D78749C87D22";
name = Bold;
paths = (
{
closed = 1;
nodes = (
"91 -235 LINE",
"236 -235 LINE",
"236 -4 LINE",
"247 -8 OFFCURVE",
"261 -10 OFFCURVE",
"275 -10 CURVE SMOOTH",
"343 -10 OFFCURVE",
"425 71 OFFCURVE",
"425 71 CURVE",
"435 0 LINE",
"638 7 LINE",
"638 85 LINE",
"562 105 LINE",
"562 540 LINE",
"341 532 LINE",
"341 452 LINE",
"415 432 LINE",
"415 172 LINE",
"415 172 OFFCURVE",
"361 117 OFFCURVE",
"296 117 CURVE SMOOTH",
"257 117 OFFCURVE",
"236 143 OFFCURVE",
"236 191 CURVE SMOOTH",
"236 540 LINE",
"17 532 LINE",
"17 452 LINE",
"91 432 LINE"
);
}
);
width = 659;
}
);
unicode = 03BC;
},
{
glyphname = pi;
lastChange = "2014-11-10 22:18:22 +0100";
layers = (
{
layerId = "DAACF28A-601E-43F2-B3A2-D78749C87D22";
name = Bold;
paths = (
{
closed = 1;
nodes = (
"672 117 LINE",
"672 117 OFFCURVE",
"633 101 OFFCURVE",
"604 101 CURVE SMOOTH",
"570 101 OFFCURVE",
"554 121 OFFCURVE",
"554 164 CURVE SMOOTH",
"554 432 LINE",
"635 452 LINE",
"635 540 LINE",
"235 540 LINE",
"22 530 LINE",
"22 452 LINE",
"100 430 LINE",
"100 0 LINE",
"247 0 LINE",
"247 427 LINE",
"407 427 LINE",
"407 170 LINE SMOOTH",
"407 40 OFFCURVE",
"471 -10 OFFCURVE",
"546 -10 CURVE SMOOTH",
"633 -10 OFFCURVE",
"707 47 OFFCURVE",
"707 47 CURVE"
);
}
);
width = 690;
}
);
unicode = 03C0;
},
{
glyphname = zero;
lastChange = "2014-11-10 22:18:22 +0100";
layers = (
{
layerId = "DAACF28A-601E-43F2-B3A2-D78749C87D22";
name = Bold;
paths = (
{
closed = 1;
nodes = (
"135 717 OFFCURVE",
"60 580 OFFCURVE",
"60 347 CURVE SMOOTH",
"60 115 OFFCURVE",
"135 -13 OFFCURVE",
"322 -13 CURVE SMOOTH",
"510 -13 OFFCURVE",
"590 122 OFFCURVE",
"590 362 CURVE SMOOTH",
"590 590 OFFCURVE",
"530 717 OFFCURVE",
"332 717 CURVE SMOOTH"
);
},
{
closed = 1;
nodes = (
"403 592 OFFCURVE",
"427 532 OFFCURVE",
"427 357 CURVE SMOOTH",
"427 177 OFFCURVE",
"400 112 OFFCURVE",
"326 112 CURVE SMOOTH",
"252 112 OFFCURVE",
"222 177 OFFCURVE",
"222 352 CURVE SMOOTH",
"222 532 OFFCURVE",
"250 592 OFFCURVE",
"326 592 CURVE SMOOTH"
);
}
);
width = 645;
}
);
unicode = 0030;
},
{
glyphname = one;
lastChange = "2014-11-10 22:18:22 +0100";
layers = (
{
layerId = "DAACF28A-601E-43F2-B3A2-D78749C87D22";
name = Bold;
paths = (
{
closed = 1;
nodes = (
"516 115 LINE",
"381 115 LINE",
"381 705 LINE",
"253 705 LINE",
"15 553 LINE",
"73 447 LINE",
"226 545 LINE",
"226 115 LINE",
"86 115 LINE",
"86 0 LINE",
"516 0 LINE"
);
}
);
width = 538;
}
);
unicode = 0031;
},
{
glyphname = two;
lastChange = "2014-11-10 22:18:22 +0100";
layers = (
{
layerId = "DAACF28A-601E-43F2-B3A2-D78749C87D22";
name = Bold;
paths = (
{
closed = 1;
nodes = (
"557 122 LINE",
"257 122 LINE",
"435 275 OFFCURVE",
"540 380 OFFCURVE",
"540 520 CURVE SMOOTH",
"540 670 OFFCURVE",
"427 717 OFFCURVE",
"267 717 CURVE SMOOTH",
"160 717 OFFCURVE",
"47 677 OFFCURVE",
"47 677 CURVE",
"52 492 LINE",
"157 492 LINE",
"167 577 LINE",
"167 577 OFFCURVE",
"207 595 OFFCURVE",
"260 595 CURVE SMOOTH",
"331 595 OFFCURVE",
"377 556 OFFCURVE",
"377 495 CURVE SMOOTH",
"377 397 OFFCURVE",
"254 295 OFFCURVE",
"40 122 CURVE",
"40 0 LINE",
"557 0 LINE"
);
}
);
width = 607;
}
);
unicode = 0032;
},
{
glyphname = three;
lastChange = "2014-11-10 22:18:22 +0100";
layers = (
{
layerId = "DAACF28A-601E-43F2-B3A2-D78749C87D22";
name = Bold;
paths = (
{
closed = 1;
nodes = (
"517 660 OFFCURVE",
"427 717 OFFCURVE",
"260 717 CURVE SMOOTH",
"160 717 OFFCURVE",
"37 675 OFFCURVE",
"37 675 CURVE",
"42 500 LINE",
"147 500 LINE",
"157 580 LINE",
"157 580 OFFCURVE",
"205 595 OFFCURVE",
"255 595 CURVE SMOOTH",
"325 595 OFFCURVE",
"365 562 OFFCURVE",
"365 512 CURVE SMOOTH",
"365 447 OFFCURVE",
"317 415 OFFCURVE",
"235 415 CURVE SMOOTH",
"152 415 LINE",
"152 310 LINE",
"230 310 LINE SMOOTH",
"322 310 OFFCURVE",
"372 272 OFFCURVE",
"372 212 CURVE SMOOTH",
"372 145 OFFCURVE",
"325 110 OFFCURVE",
"245 110 CURVE SMOOTH",
"157 110 OFFCURVE",
"67 152 OFFCURVE",
"67 152 CURVE",
"25 42 LINE",
"25 42 OFFCURVE",
"117 -12 OFFCURVE",
"245 -12 CURVE SMOOTH",
"387 -12 OFFCURVE",
"532 47 OFFCURVE",
"532 210 CURVE SMOOTH",
"532 285 OFFCURVE",
"477 349 OFFCURVE",
"392 368 CURVE",
"474 390 OFFCURVE",
"517 452 OFFCURVE",
"517 537 CURVE SMOOTH"
);
}
);
width = 592;
}
);
unicode = 0033;
},
{
glyphname = four;
lastChange = "2014-11-10 22:18:22 +0100";
layers = (
{
layerId = "DAACF28A-601E-43F2-B3A2-D78749C87D22";
name = Bold;
paths = (
{
closed = 1;
nodes = (
"595 265 LINE",
"495 265 LINE",
"495 705 LINE",
"328 720 LINE",
"223 567 OFFCURVE",
"119 413 OFFCURVE",
"15 260 CURVE",
"30 142 LINE",
"341 142 LINE",
"341 0 LINE",
"495 0 LINE",
"495 142 LINE",
"595 142 LINE"
);
},
{
closed = 1;
nodes = (
"165 265 LINE",
"343 529 LINE",
"343 265 LINE"
);
}
);
width = 627;
}
);
unicode = 0034;
},
{
glyphname = five;
lastChange = "2014-11-10 22:18:22 +0100";
layers = (
{
layerId = "DAACF28A-601E-43F2-B3A2-D78749C87D22";
name = Bold;
paths = (
{
closed = 1;
nodes = (
"17 42 LINE",
"17 42 OFFCURVE",
"117 -12 OFFCURVE",
"253 -12 CURVE SMOOTH",
"391 -12 OFFCURVE",
"517 72 OFFCURVE",
"517 225 CURVE SMOOTH",
"517 356 OFFCURVE",
"402 432 OFFCURVE",
"209 432 CURVE",
"216 582 LINE",
"481 582 LINE",
"484 705 LINE",
"74 705 LINE",
"57 317 LINE",
"165 317 LINE SMOOTH",
"287 317 OFFCURVE",
"351 286 OFFCURVE",
"351 210 CURVE SMOOTH",
"351 146 OFFCURVE",
"301 110 OFFCURVE",
"237 110 CURVE SMOOTH",
"150 110 OFFCURVE",
"60 152 OFFCURVE",
"60 152 CURVE"
);
}
);
width = 560;
}
);
unicode = 0035;
},
{
glyphname = six;
lastChange = "2014-11-10 22:18:22 +0100";
layers = (
{
layerId = "DAACF28A-601E-43F2-B3A2-D78749C87D22";
name = Bold;
paths = (
{
closed = 1;
nodes = (
"520 707 LINE",
"520 707 OFFCURVE",
"489 717 OFFCURVE",
"430 717 CURVE SMOOTH",
"175 717 OFFCURVE",
"55 535 OFFCURVE",
"55 295 CURVE SMOOTH",
"55 120 OFFCURVE",
"148 -13 OFFCURVE",
"325 -13 CURVE SMOOTH",
"475 -13 OFFCURVE",
"588 90 OFFCURVE",
"588 230 CURVE SMOOTH",
"588 370 OFFCURVE",
"490 440 OFFCURVE",
"368 440 CURVE SMOOTH",
"283 440 OFFCURVE",
"212 397 OFFCURVE",
"212 397 CURVE",
"212 397 OFFCURVE",
"220 595 OFFCURVE",
"435 595 CURVE SMOOTH",
"483 595 OFFCURVE",
"513 590 OFFCURVE",
"513 590 CURVE"
);
},
{
closed = 1;
nodes = (
"208 287 LINE",
"208 287 OFFCURVE",
"258 322 OFFCURVE",
"322 322 CURVE SMOOTH",
"394 322 OFFCURVE",
"430 283 OFFCURVE",
"430 215 CURVE SMOOTH",
"430 150 OFFCURVE",
"387 110 OFFCURVE",
"324 110 CURVE SMOOTH",
"262 110 OFFCURVE",
"208 153 OFFCURVE",
"208 263 CURVE SMOOTH"
);
}
);
width = 623;
}
);
unicode = 0036;
},
{
glyphname = seven;
lastChange = "2014-11-10 22:18:22 +0100";
layers = (
{
layerId = "DAACF28A-601E-43F2-B3A2-D78749C87D22";
name = Bold;
paths = (
{
closed = 1;
nodes = (
"5 705 LINE",
"5 487 LINE",
"106 487 LINE",
"126 580 LINE",
"347 580 LINE",
"88 0 LINE",
"253 0 LINE",
"515 597 LINE",
"515 705 LINE"
);
}
);
width = 531;
}
);
unicode = 0037;
},
{
glyphname = eight;
lastChange = "2014-11-10 22:18:22 +0100";
layers = (
{
layerId = "DAACF28A-601E-43F2-B3A2-D78749C87D22";
name = Bold;
paths = (
{
closed = 1;
nodes = (
"556 638 OFFCURVE",
"476 717 OFFCURVE",
"321 717 CURVE SMOOTH",
"166 717 OFFCURVE",
"68 646 OFFCURVE",
"68 521 CURVE SMOOTH",
"68 439 OFFCURVE",
"114 394 OFFCURVE",
"173 361 CURVE",
"133 341 OFFCURVE",
"45 290 OFFCURVE",
"45 192 CURVE SMOOTH",
"45 74 OFFCURVE",
"131 -13 OFFCURVE",
"298 -13 CURVE SMOOTH",
"463 -13 OFFCURVE",
"573 76 OFFCURVE",
"573 206 CURVE SMOOTH",
"573 298 OFFCURVE",
"515 346 OFFCURVE",
"447 378 CURVE",
"488 397 OFFCURVE",
"556 441 OFFCURVE",
"556 528 CURVE SMOOTH"
);
},
{
closed = 1;
nodes = (
"415 144 OFFCURVE",
"376 110 OFFCURVE",
"308 110 CURVE SMOOTH",
"241 110 OFFCURVE",
"202 141 OFFCURVE",
"202 199 CURVE SMOOTH",
"202 262 OFFCURVE",
"266 295 OFFCURVE",
"295 308 CURVE",
"360 283 OFFCURVE",
"415 258 OFFCURVE",
"415 202 CURVE SMOOTH"
);
},
{
closed = 1;
nodes = (
"217 565 OFFCURVE",
"252 595 OFFCURVE",
"311 595 CURVE SMOOTH",
"369 595 OFFCURVE",
"406 565 OFFCURVE",
"406 521 CURVE SMOOTH",
"406 467 OFFCURVE",
"356 437 OFFCURVE",
"325 424 CURVE",
"267 446 OFFCURVE",
"217 469 OFFCURVE",
"217 521 CURVE SMOOTH"
);
}
);
width = 618;
}
);
unicode = 0038;
},
{
glyphname = nine;
lastChange = "2014-11-10 22:18:22 +0100";
layers = (
{
layerId = "DAACF28A-601E-43F2-B3A2-D78749C87D22";
name = Bold;
paths = (
{
closed = 1;
nodes = (
"100 -3 LINE",
"100 -3 OFFCURVE",
"131 -13 OFFCURVE",
"190 -13 CURVE SMOOTH",
"448 -13 OFFCURVE",
"565 170 OFFCURVE",
"565 410 CURVE SMOOTH",
"565 585 OFFCURVE",
"472 717 OFFCURVE",
"295 717 CURVE SMOOTH",
"145 717 OFFCURVE",
"32 617 OFFCURVE",
"32 474 CURVE SMOOTH",
"32 334 OFFCURVE",
"130 265 OFFCURVE",
"252 265 CURVE SMOOTH",
"337 265 OFFCURVE",
"408 306 OFFCURVE",
"408 306 CURVE",
"408 306 OFFCURVE",
"404 110 OFFCURVE",
"185 110 CURVE SMOOTH",
"137 110 OFFCURVE",
"107 114 OFFCURVE",
"107 114 CURVE"
);
},
{
closed = 1;
nodes = (
"412 418 LINE",
"412 418 OFFCURVE",
"362 382 OFFCURVE",
"298 382 CURVE SMOOTH",
"226 382 OFFCURVE",
"190 422 OFFCURVE",
"190 489 CURVE SMOOTH",
"190 555 OFFCURVE",
"233 595 OFFCURVE",
"296 595 CURVE SMOOTH",
"358 595 OFFCURVE",
"412 552 OFFCURVE",
"412 445 CURVE SMOOTH"
);
}
);
width = 617;
}
);
unicode = 0039;
},
{
glyphname = fraction;
lastChange = "2014-11-10 22:18:22 +0100";
layers = (
{
layerId = "DAACF28A-601E-43F2-B3A2-D78749C87D22";
name = Bold;
paths = (
{
closed = 1;
nodes = (
"85 -74 LINE",
"624 705 LINE",
"524 772 LINE",
"-15 -7 LINE"
);
}
);
width = 614;
}
);
unicode = 2044;
},
{
glyphname = onehalf;
lastChange = "2014-11-10 22:18:22 +0100";
layers = (
{
layerId = "DAACF28A-601E-43F2-B3A2-D78749C87D22";
name = Bold;
paths = (
{
closed = 1;
nodes = (
"256 0 LINE",
"401 0 LINE",
"809 705 LINE",
"664 705 LINE"
);
},
{
closed = 1;
nodes = (
"683 0 LINE",
"1015 0 LINE",
"1015 105 LINE",
"854 105 LINE",
"963 189 OFFCURVE",
"1011 235 OFFCURVE",
"1011 315 CURVE SMOOTH",
"1011 400 OFFCURVE",
"938 435 OFFCURVE",
"833 435 CURVE SMOOTH",
"762 435 OFFCURVE",
"686 410 OFFCURVE",
"686 410 CURVE",
"689 278 LINE",
"774 278 LINE",
"780 331 LINE",
"780 331 OFFCURVE",
"799 338 OFFCURVE",
"823 338 CURVE SMOOTH",
"857 338 OFFCURVE",
"875 325 OFFCURVE",
"875 300 CURVE SMOOTH",
"875 243 OFFCURVE",
"811 199 OFFCURVE",
"683 100 CURVE"
);
},
{
closed = 1;
nodes = (
"392 369 LINE",
"312 369 LINE",
"312 705 LINE",
"203 705 LINE",
"45 606 LINE",
"94 523 LINE",
"185 578 LINE",
"185 369 LINE",
"89 369 LINE",
"89 280 LINE",
"392 280 LINE"
);
}
);
width = 1075;
}
);
unicode = 00BD;
},
{
glyphname = onequarter;
lastChange = "2014-11-10 22:18:22 +0100";
layers = (
{
layerId = "DAACF28A-601E-43F2-B3A2-D78749C87D22";
name = Bold;
paths = (
{
closed = 1;
nodes = (
"255 0 LINE",
"400 0 LINE",
"808 705 LINE",
"663 705 LINE"
);
},
{
closed = 1;
nodes = (
"815 430 LINE",
"618 161 LINE",
"632 77 LINE",
"832 77 LINE",
"832 0 LINE",
"959 0 LINE",
"959 77 LINE",
"1017 77 LINE",
"1017 170 LINE",
"959 170 LINE",
"959 413 LINE"
);
},
{
closed = 1;
nodes = (
"392 369 LINE",
"312 369 LINE",
"312 705 LINE",
"203 705 LINE",
"45 606 LINE",
"94 523 LINE",
"185 578 LINE",
"185 369 LINE",
"89 369 LINE",
"89 280 LINE",
"392 280 LINE"
);
},
{
closed = 1;
nodes = (
"832 297 LINE",
"832 170 LINE",
"737 170 LINE"
);
}
);
width = 1072;
}
);
unicode = 00BC;
},
{
glyphname = threequarters;
lastChange = "2014-11-10 22:18:22 +0100";
layers = (
{
layerId = "DAACF28A-601E-43F2-B3A2-D78749C87D22";
name = Bold;
paths = (
{
closed = 1;
nodes = (
"238 0 LINE",
"383 0 LINE",
"791 705 LINE",
"646 705 LINE"
);
},
{
closed = 1;
nodes = (
"615 77 LINE",
"814 77 LINE",
"814 0 LINE",
"941 0 LINE",
"941 77 LINE",
"999 77 LINE",
"999 170 LINE",
"941 170 LINE",
"941 413 LINE",
"797 430 LINE",
"601 161 LINE"
);
},
{
closed = 1;
nodes = (
"374 667 OFFCURVE",
"315 706 OFFCURVE",
"207 706 CURVE SMOOTH",
"138 706 OFFCURVE",
"51 683 OFFCURVE",
"51 683 CURVE",
"55 566 LINE",
"136 566 LINE",
"141 607 LINE",
"141 607 OFFCURVE",
"166 614 OFFCURVE",
"195 614 CURVE SMOOTH",
"232 614 OFFCURVE",
"249 598 OFFCURVE",
"249 575 CURVE SMOOTH",
"249 543 OFFCURVE",
"228 525 OFFCURVE",
"182 525 CURVE SMOOTH",
"127 525 LINE",
"127 451 LINE",
"180 451 LINE SMOOTH",
"232 451 OFFCURVE",
"254 435 OFFCURVE",
"254 406 CURVE SMOOTH",
"254 374 OFFCURVE",
"216 359 OFFCURVE",
"185 359 CURVE SMOOTH",
"128 359 OFFCURVE",
"67 385 OFFCURVE",
"67 385 CURVE",
"40 301 LINE",
"40 301 OFFCURVE",
"116 264 OFFCURVE",
"195 264 CURVE SMOOTH",
"297 264 OFFCURVE",
"385 303 OFFCURVE",
"385 398 CURVE SMOOTH",
"385 450 OFFCURVE",
"340 487 OFFCURVE",
"293 495 CURVE",
"340 508 OFFCURVE",
"374 541 OFFCURVE",
"374 596 CURVE SMOOTH"
);
},
{
closed = 1;
nodes = (
"814 302 LINE",
"814 170 LINE",
"717 170 LINE"
);
}
);
width = 1054;
}
);
unicode = 00BE;
},
{
glyphname = oneeighth;
lastChange = "2014-11-10 22:18:22 +0100";
layers = (
{
layerId = "DAACF28A-601E-43F2-B3A2-D78749C87D22";
name = Bold;
paths = (
{
closed = 1;
nodes = (
"255 0 LINE",
"400 0 LINE",
"808 705 LINE",
"663 705 LINE"
);
},
{
closed = 1;
nodes = (
"392 369 LINE",
"312 369 LINE",
"312 705 LINE",
"203 705 LINE",
"45 606 LINE",
"94 523 LINE",
"185 578 LINE",
"185 369 LINE",
"89 369 LINE",
"89 280 LINE",
"392 280 LINE"
);
},
{
closed = 1;
nodes = (
"1040 381 OFFCURVE",
"986 431 OFFCURVE",
"876 431 CURVE SMOOTH",
"761 431 OFFCURVE",
"692 387 OFFCURVE",
"692 314 CURVE SMOOTH",
"692 262 OFFCURVE",
"731 229 OFFCURVE",
"762 214 CURVE",
"737 204 OFFCURVE",
"671 181 OFFCURVE",
"671 107 CURVE SMOOTH",
"671 40 OFFCURVE",
"742 -13 OFFCURVE",
"860 -13 CURVE SMOOTH",
"977 -13 OFFCURVE",
"1054 40 OFFCURVE",
"1054 120 CURVE SMOOTH",
"1054 175 OFFCURVE",
"1013 202 OFFCURVE",
"965 221 CURVE",
"992 230 OFFCURVE",
"1040 249 OFFCURVE",
"1040 317 CURVE SMOOTH"
);
},
{
closed = 1;
nodes = (
"924 91 OFFCURVE",
"898 77 OFFCURVE",
"866 77 CURVE SMOOTH",
"834 77 OFFCURVE",
"801 95 OFFCURVE",
"801 127 CURVE SMOOTH",
"801 159 OFFCURVE",
"832 171 OFFCURVE",
"850 178 CURVE",
"889 166 OFFCURVE",
"924 151 OFFCURVE",
"924 123 CURVE SMOOTH"
);
},
{
closed = 1;
nodes = (
"812 325 OFFCURVE",
"828 341 OFFCURVE",
"862 341 CURVE SMOOTH",
"898 341 OFFCURVE",
"920 325 OFFCURVE",
"920 301 CURVE SMOOTH",
"920 274 OFFCURVE",
"897 257 OFFCURVE",
"879 250 CURVE",
"845 261 OFFCURVE",
"812 274 OFFCURVE",
"812 301 CURVE SMOOTH"
);
}
);
width = 1114;
}
);
unicode = 215B;
},
{
glyphname = threeeighths;
lastChange = "2014-11-10 22:18:22 +0100";
layers = (
{
layerId = "DAACF28A-601E-43F2-B3A2-D78749C87D22";
name = Bold;
paths = (
{
closed = 1;
nodes = (
"238 0 LINE",
"383 0 LINE",
"791 705 LINE",
"646 705 LINE"
);
},
{
closed = 1;
nodes = (
"374 667 OFFCURVE",
"315 706 OFFCURVE",
"207 706 CURVE SMOOTH",
"138 706 OFFCURVE",
"51 683 OFFCURVE",
"51 683 CURVE",
"55 566 LINE",
"136 566 LINE",
"141 607 LINE",
"141 607 OFFCURVE",
"166 614 OFFCURVE",
"195 614 CURVE SMOOTH",
"232 614 OFFCURVE",
"249 598 OFFCURVE",
"249 575 CURVE SMOOTH",
"249 543 OFFCURVE",
"228 525 OFFCURVE",
"182 525 CURVE SMOOTH",
"127 525 LINE",
"127 451 LINE",
"180 451 LINE SMOOTH",
"232 451 OFFCURVE",
"254 435 OFFCURVE",
"254 406 CURVE SMOOTH",
"254 374 OFFCURVE",
"216 359 OFFCURVE",
"185 359 CURVE SMOOTH",
"128 359 OFFCURVE",
"67 385 OFFCURVE",
"67 385 CURVE",
"40 301 LINE",
"40 301 OFFCURVE",
"116 264 OFFCURVE",
"195 264 CURVE SMOOTH",
"297 264 OFFCURVE",
"385 303 OFFCURVE",
"385 398 CURVE SMOOTH",
"385 450 OFFCURVE",
"340 487 OFFCURVE",
"293 495 CURVE",
"340 508 OFFCURVE",
"374 541 OFFCURVE",
"374 596 CURVE SMOOTH"
);
},
{
closed = 1;
nodes = (
"1020 381 OFFCURVE",
"966 431 OFFCURVE",
"856 431 CURVE SMOOTH",
"741 431 OFFCURVE",
"672 387 OFFCURVE",
"672 314 CURVE SMOOTH",
"672 262 OFFCURVE",
"711 229 OFFCURVE",
"742 214 CURVE",
"717 204 OFFCURVE",
"651 181 OFFCURVE",
"651 107 CURVE SMOOTH",
"651 40 OFFCURVE",
"722 -13 OFFCURVE",
"840 -13 CURVE SMOOTH",
"957 -13 OFFCURVE",
"1034 40 OFFCURVE",
"1034 120 CURVE SMOOTH",
"1034 175 OFFCURVE",
"993 202 OFFCURVE",
"945 221 CURVE",
"972 230 OFFCURVE",
"1020 249 OFFCURVE",
"1020 317 CURVE SMOOTH"
);
},
{
closed = 1;
nodes = (
"904 91 OFFCURVE",
"878 77 OFFCURVE",
"846 77 CURVE SMOOTH",
"814 77 OFFCURVE",
"781 95 OFFCURVE",
"781 127 CURVE SMOOTH",
"781 159 OFFCURVE",
"812 171 OFFCURVE",
"830 178 CURVE",
"869 166 OFFCURVE",
"904 151 OFFCURVE",
"904 123 CURVE SMOOTH"
);
},
{
closed = 1;
nodes = (
"792 325 OFFCURVE",
"808 341 OFFCURVE",
"842 341 CURVE SMOOTH",
"878 341 OFFCURVE",
"900 325 OFFCURVE",
"900 301 CURVE SMOOTH",
"900 274 OFFCURVE",
"877 257 OFFCURVE",
"859 250 CURVE",
"825 261 OFFCURVE",
"792 274 OFFCURVE",
"792 301 CURVE SMOOTH"
);
}
);
width = 1094;
}
);
unicode = 215C;
},
{
glyphname = fiveeighths;
lastChange = "2014-11-10 22:18:22 +0100";
layers = (
{
layerId = "DAACF28A-601E-43F2-B3A2-D78749C87D22";
name = Bold;
paths = (
{
closed = 1;
nodes = (
"238 0 LINE",
"383 0 LINE",
"791 705 LINE",
"646 705 LINE"
);
},
{
closed = 1;
nodes = (
"1020 381 OFFCURVE",
"966 431 OFFCURVE",
"856 431 CURVE SMOOTH",
"741 431 OFFCURVE",
"672 387 OFFCURVE",
"672 314 CURVE SMOOTH",
"672 262 OFFCURVE",
"711 229 OFFCURVE",
"742 214 CURVE",
"717 204 OFFCURVE",
"651 181 OFFCURVE",
"651 107 CURVE SMOOTH",
"651 40 OFFCURVE",
"722 -13 OFFCURVE",
"840 -13 CURVE SMOOTH",
"957 -13 OFFCURVE",
"1034 40 OFFCURVE",
"1034 120 CURVE SMOOTH",
"1034 175 OFFCURVE",
"993 202 OFFCURVE",
"945 221 CURVE",
"972 230 OFFCURVE",
"1020 249 OFFCURVE",
"1020 317 CURVE SMOOTH"
);
},
{
closed = 1;
nodes = (
"904 91 OFFCURVE",
"878 77 OFFCURVE",
"846 77 CURVE SMOOTH",
"814 77 OFFCURVE",
"781 95 OFFCURVE",
"781 127 CURVE SMOOTH",
"781 159 OFFCURVE",
"812 171 OFFCURVE",
"830 178 CURVE",
"869 166 OFFCURVE",
"904 151 OFFCURVE",
"904 123 CURVE SMOOTH"
);
},
{
closed = 1;
nodes = (
"792 325 OFFCURVE",
"808 341 OFFCURVE",
"842 341 CURVE SMOOTH",
"878 341 OFFCURVE",
"900 325 OFFCURVE",
"900 301 CURVE SMOOTH",
"900 274 OFFCURVE",
"877 257 OFFCURVE",
"859 250 CURVE",
"825 261 OFFCURVE",
"792 274 OFFCURVE",
"792 301 CURVE SMOOTH"
);
},
{
closed = 1;
nodes = (
"37 297 LINE",
"37 297 OFFCURVE",
"107 264 OFFCURVE",
"202 264 CURVE SMOOTH",
"299 264 OFFCURVE",
"387 316 OFFCURVE",
"387 410 CURVE SMOOTH",
"387 492 OFFCURVE",
"319 539 OFFCURVE",
"186 539 CURVE",
"192 613 LINE",
"362 613 LINE",
"364 705 LINE",
"77 705 LINE",
"64 454 LINE",
"144 454 LINE SMOOTH",
"221 454 OFFCURVE",
"257 447 OFFCURVE",
"257 404 CURVE SMOOTH",
"257 377 OFFCURVE",
"223 359 OFFCURVE",
"183 359 CURVE SMOOTH",
"128 359 OFFCURVE",
"75 383 OFFCURVE",
"75 383 CURVE"
);
}
);
width = 1094;
}
);
unicode = 215D;
},
{
glyphname = seveneighths;
lastChange = "2014-11-10 22:18:22 +0100";
layers = (
{
layerId = "DAACF28A-601E-43F2-B3A2-D78749C87D22";
name = Bold;
paths = (
{
closed = 1;
nodes = (
"188 0 LINE",
"333 0 LINE",
"741 705 LINE",
"596 705 LINE"
);
},
{
closed = 1;
nodes = (
"970 381 OFFCURVE",
"916 431 OFFCURVE",
"806 431 CURVE SMOOTH",
"691 431 OFFCURVE",
"622 387 OFFCURVE",
"622 314 CURVE SMOOTH",
"622 262 OFFCURVE",
"661 229 OFFCURVE",
"692 214 CURVE",
"667 204 OFFCURVE",
"601 181 OFFCURVE",
"601 107 CURVE SMOOTH",
"601 40 OFFCURVE",
"672 -13 OFFCURVE",
"790 -13 CURVE SMOOTH",
"907 -13 OFFCURVE",
"984 40 OFFCURVE",
"984 120 CURVE SMOOTH",
"984 175 OFFCURVE",
"943 202 OFFCURVE",
"895 221 CURVE",
"922 230 OFFCURVE",
"970 249 OFFCURVE",
"970 317 CURVE SMOOTH"
);
},
{
closed = 1;
nodes = (
"854 91 OFFCURVE",
"828 77 OFFCURVE",
"796 77 CURVE SMOOTH",
"764 77 OFFCURVE",
"731 95 OFFCURVE",
"731 127 CURVE SMOOTH",
"731 159 OFFCURVE",
"762 171 OFFCURVE",
"780 178 CURVE",
"819 166 OFFCURVE",
"854 151 OFFCURVE",
"854 123 CURVE SMOOTH"
);
},
{
closed = 1;
nodes = (
"742 325 OFFCURVE",
"758 341 OFFCURVE",
"792 341 CURVE SMOOTH",
"828 341 OFFCURVE",
"850 325 OFFCURVE",
"850 301 CURVE SMOOTH",
"850 274 OFFCURVE",
"827 257 OFFCURVE",
"809 250 CURVE",
"775 261 OFFCURVE",
"742 274 OFFCURVE",
"742 301 CURVE SMOOTH"
);
},
{
closed = 1;
nodes = (
"35 705 LINE",
"40 564 LINE",
"120 564 LINE",
"129 612 LINE",
"248 612 LINE",
"82 270 LINE",
"219 270 LINE",
"390 632 LINE",
"390 705 LINE"
);
}
);
width = 1044;
}
);
unicode = 215E;
},
{
glyphname = onesuperior;
lastChange = "2014-11-10 22:18:22 +0100";
layers = (
{
layerId = "DAACF28A-601E-43F2-B3A2-D78749C87D22";
name = Bold;
paths = (
{
closed = 1;
nodes = (
"373 369 LINE",
"282 369 LINE",
"282 705 LINE",
"173 705 LINE",
"15 606 LINE",
"64 523 LINE",
"155 578 LINE",
"155 369 LINE",
"59 369 LINE",
"59 280 LINE",
"373 280 LINE"
);
}
);
width = 393;
}
);
unicode = 00B9;
},
{
glyphname = twosuperior;
lastChange = "2014-11-10 22:18:22 +0100";
layers = (
{
layerId = "DAACF28A-601E-43F2-B3A2-D78749C87D22";
name = Bold;
paths = (
{
closed = 1;
nodes = (
"33 280 LINE",
"365 280 LINE",
"365 385 LINE",
"204 385 LINE",
"313 469 OFFCURVE",
"361 515 OFFCURVE",
"361 595 CURVE SMOOTH",
"361 680 OFFCURVE",
"288 715 OFFCURVE",
"184 715 CURVE SMOOTH",
"113 715 OFFCURVE",
"36 690 OFFCURVE",
"36 690 CURVE",
"39 558 LINE",
"124 558 LINE",
"131 611 LINE",
"131 611 OFFCURVE",
"150 618 OFFCURVE",
"174 618 CURVE SMOOTH",
"209 618 OFFCURVE",
"225 605 OFFCURVE",
"225 579 CURVE SMOOTH",
"225 523 OFFCURVE",
"160 477 OFFCURVE",
"33 380 CURVE"
);
}
);
width = 404;
}
);
unicode = 00B2;
},
{
glyphname = threesuperior;
lastChange = "2014-11-10 22:18:22 +0100";
layers = (
{
layerId = "DAACF28A-601E-43F2-B3A2-D78749C87D22";
name = Bold;
paths = (
{
closed = 1;
nodes = (
"352 676 OFFCURVE",
"292 715 OFFCURVE",
"184 715 CURVE SMOOTH",
"115 715 OFFCURVE",
"29 692 OFFCURVE",
"29 692 CURVE",
"32 574 LINE",
"114 574 LINE",
"119 616 LINE",
"119 616 OFFCURVE",
"143 622 OFFCURVE",
"172 622 CURVE SMOOTH",
"210 622 OFFCURVE",
"227 608 OFFCURVE",
"227 582 CURVE SMOOTH",
"227 550 OFFCURVE",
"203 534 OFFCURVE",
"159 534 CURVE SMOOTH",
"104 534 LINE",
"104 459 LINE",
"158 459 LINE SMOOTH",
"209 459 OFFCURVE",
"231 444 OFFCURVE",
"231 414 CURVE SMOOTH",
"231 393 OFFCURVE",
"208 367 OFFCURVE",
"163 367 CURVE SMOOTH",
"106 367 OFFCURVE",
"44 394 OFFCURVE",
"44 394 CURVE",
"17 310 LINE",
"17 310 OFFCURVE",
"94 272 OFFCURVE",
"172 272 CURVE SMOOTH",
"275 272 OFFCURVE",
"362 311 OFFCURVE",
"362 407 CURVE SMOOTH",
"362 459 OFFCURVE",
"318 495 OFFCURVE",
"271 504 CURVE",
"318 517 OFFCURVE",
"352 550 OFFCURVE",
"352 604 CURVE SMOOTH"
);
}
);
width = 395;
}
);
unicode = 00B3;
},
{
glyphname = foursuperior;
lastChange = "2014-11-10 22:18:22 +0100";
layers = (
{
layerId = "DAACF28A-601E-43F2-B3A2-D78749C87D22";
name = Bold;
paths = (
{
closed = 1;
nodes = (
"29 357 LINE",
"228 357 LINE",
"228 280 LINE",
"355 280 LINE",
"355 357 LINE",
"413 357 LINE",
"413 450 LINE",
"355 450 LINE",
"355 693 LINE",
"211 710 LINE",
"15 441 LINE"
);
},
{
closed = 1;
nodes = (
"228 582 LINE",
"228 450 LINE",
"131 450 LINE"
);
}
);
width = 433;
}
);
unicode = 2074;
},
{
glyphname = asterisk;
lastChange = "2014-11-10 22:18:22 +0100";
layers = (
{
layerId = "DAACF28A-601E-43F2-B3A2-D78749C87D22";
name = Bold;
paths = (
{
closed = 1;
nodes = (
"170 617 LINE",
"55 662 LINE",
"25 573 LINE",
"149 552 LINE",
"67 454 LINE",
"144 400 LINE",
"204 511 LINE",
"194 555 LINE",
"149 552 LINE",
"188 574 LINE",
"170 617 LINE",
"204 587 LINE",
"240 616 LINE",
"223 576 LINE",
"260 550 LINE",
"215 555 LINE",
"204 511 LINE",
"269 400 LINE",
"342 455 LINE",
"260 550 LINE",
"382 575 LINE",
"351 665 LINE",
"240 616 LINE",
"249 738 LINE",
"156 736 LINE"
);
}
);
width = 417;
}
);
unicode = 002A;
},
{
glyphname = backslash;
lastChange = "2014-11-10 22:18:22 +0100";
layers = (
{
layerId = "DAACF28A-601E-43F2-B3A2-D78749C87D22";
name = Bold;
paths = (
{
closed = 1;
nodes = (
"160 705 LINE",
"7 705 LINE",
"341 0 LINE",
"493 0 LINE"
);
}
);
width = 506;
}
);
unicode = 005C;
},
{
glyphname = periodcentered;
lastChange = "2014-11-10 22:18:22 +0100";
layers = (
{
layerId = "DAACF28A-601E-43F2-B3A2-D78749C87D22";
name = Bold;
paths = (
{
closed = 1;
nodes = (
"61 245 OFFCURVE",
"90 213 OFFCURVE",
"148 213 CURVE SMOOTH",
"199 213 OFFCURVE",
"237 245 OFFCURVE",
"237 306 CURVE SMOOTH",
"237 367 OFFCURVE",
"209 400 OFFCURVE",
"151 400 CURVE SMOOTH",
"100 400 OFFCURVE",
"61 367 OFFCURVE",
"61 306 CURVE SMOOTH"
);
}
);
width = 299;
}
);
unicode = 00B7;
},
{
glyphname = bullet;
lastChange = "2014-11-10 22:18:22 +0100";
layers = (
{
layerId = "DAACF28A-601E-43F2-B3A2-D78749C87D22";
name = Bold;
paths = (
{
closed = 1;
nodes = (
"80 211 OFFCURVE",
"165 126 OFFCURVE",
"269 126 CURVE SMOOTH",
"373 126 OFFCURVE",
"458 211 OFFCURVE",
"458 315 CURVE SMOOTH",
"458 419 OFFCURVE",
"373 504 OFFCURVE",
"269 504 CURVE SMOOTH",
"165 504 OFFCURVE",
"80 419 OFFCURVE",
"80 315 CURVE SMOOTH"
);
}
);
width = 543;
}
);
unicode = 2022;
},
{
glyphname = colon;
lastChange = "2014-11-10 22:18:22 +0100";
layers = (
{
layerId = "DAACF28A-601E-43F2-B3A2-D78749C87D22";
name = Bold;
paths = (
{
closed = 1;
nodes = (
"67 20 OFFCURVE",
"96 -13 OFFCURVE",
"151 -13 CURVE SMOOTH",
"196 -13 OFFCURVE",
"237 20 OFFCURVE",
"237 78 CURVE SMOOTH",
"237 135 OFFCURVE",
"209 168 OFFCURVE",
"154 168 CURVE SMOOTH",
"109 168 OFFCURVE",
"67 135 OFFCURVE",
"67 78 CURVE SMOOTH"
);
},
{
closed = 1;
nodes = (
"67 321 OFFCURVE",
"96 288 OFFCURVE",
"151 288 CURVE SMOOTH",
"196 288 OFFCURVE",
"237 321 OFFCURVE",
"237 378 CURVE SMOOTH",
"237 436 OFFCURVE",
"209 469 OFFCURVE",
"154 469 CURVE SMOOTH",
"109 469 OFFCURVE",
"67 436 OFFCURVE",
"67 378 CURVE SMOOTH"
);
}
);
width = 305;
}
);
leftKerningGroup = colon;
rightKerningGroup = colon;
unicode = 003A;
},
{
glyphname = comma;
lastChange = "2014-11-10 22:18:22 +0100";
layers = (
{
layerId = "DAACF28A-601E-43F2-B3A2-D78749C87D22";
name = Bold;
paths = (
{
closed = 1;
nodes = (
"71 32 OFFCURVE",
"100 15 OFFCURVE",
"100 -13 CURVE SMOOTH",
"100 -53 OFFCURVE",
"40 -133 OFFCURVE",
"40 -133 CURVE",
"103 -185 LINE",
"196 -85 OFFCURVE",
"241 0 OFFCURVE",
"241 76 CURVE SMOOTH",
"241 136 OFFCURVE",
"207 168 OFFCURVE",
"157 168 CURVE SMOOTH",
"108 168 OFFCURVE",
"71 133 OFFCURVE",
"71 79 CURVE SMOOTH"
);
}
);
width = 303;
}
);
leftKerningGroup = period;
rightKerningGroup = period;
unicode = 002C;
},
{
glyphname = ellipsis;
lastChange = "2014-11-10 22:18:22 +0100";
layers = (
{
layerId = "DAACF28A-601E-43F2-B3A2-D78749C87D22";
name = Bold;
paths = (
{
closed = 1;
nodes = (
"52 20 OFFCURVE",
"81 -13 OFFCURVE",
"136 -13 CURVE SMOOTH",
"181 -13 OFFCURVE",
"222 20 OFFCURVE",
"222 78 CURVE SMOOTH",
"222 135 OFFCURVE",
"194 168 OFFCURVE",
"139 168 CURVE SMOOTH",
"94 168 OFFCURVE",
"52 135 OFFCURVE",
"52 78 CURVE SMOOTH"
);
},
{
closed = 1;
nodes = (
"305 20 OFFCURVE",
"334 -13 OFFCURVE",
"389 -13 CURVE SMOOTH",
"434 -13 OFFCURVE",
"475 20 OFFCURVE",
"475 78 CURVE SMOOTH",
"475 135 OFFCURVE",
"446 168 OFFCURVE",
"391 168 CURVE SMOOTH",
"346 168 OFFCURVE",
"305 135 OFFCURVE",
"305 78 CURVE SMOOTH"
);
},
{
closed = 1;
nodes = (
"557 20 OFFCURVE",
"586 -13 OFFCURVE",
"641 -13 CURVE SMOOTH",
"686 -13 OFFCURVE",
"727 20 OFFCURVE",
"727 78 CURVE SMOOTH",
"727 135 OFFCURVE",
"699 168 OFFCURVE",
"644 168 CURVE SMOOTH",
"599 168 OFFCURVE",
"557 135 OFFCURVE",
"557 78 CURVE SMOOTH"
);
}
);
width = 780;
}
);
unicode = 2026;
},
{
glyphname = exclam;
lastChange = "2014-11-10 22:18:22 +0100";
layers = (
{
layerId = "DAACF28A-601E-43F2-B3A2-D78749C87D22";
name = Bold;
paths = (
{
closed = 1;
nodes = (
"247 765 LINE",
"91 765 LINE",
"109 256 LINE",
"229 261 LINE"
);
},
{
closed = 1;
nodes = (
"85 20 OFFCURVE",
"113 -13 OFFCURVE",
"168 -13 CURVE SMOOTH",
"213 -13 OFFCURVE",
"255 20 OFFCURVE",
"255 78 CURVE SMOOTH",
"255 135 OFFCURVE",
"226 168 OFFCURVE",
"171 168 CURVE SMOOTH",
"126 168 OFFCURVE",
"85 135 OFFCURVE",
"85 78 CURVE SMOOTH"
);
}
);
width = 340;
}
);
unicode = 0021;
},
{
glyphname = exclamdown;
lastChange = "2014-11-10 22:18:22 +0100";
layers = (
{
layerId = "DAACF28A-601E-43F2-B3A2-D78749C87D22";
name = Bold;
paths = (
{
closed = 1;
nodes = (
"252 524 OFFCURVE",
"224 557 OFFCURVE",
"169 557 CURVE SMOOTH",
"124 557 OFFCURVE",
"82 524 OFFCURVE",
"82 466 CURVE SMOOTH",
"82 409 OFFCURVE",
"111 376 OFFCURVE",
"166 376 CURVE SMOOTH",
"211 376 OFFCURVE",
"252 409 OFFCURVE",
"252 466 CURVE SMOOTH"
);
},
{
closed = 1;
nodes = (
"92 -221 LINE",
"249 -221 LINE",
"230 288 LINE",
"110 283 LINE"
);
}
);
width = 337;
}
);
unicode = 00A1;
},
{
glyphname = numbersign;
lastChange = "2014-11-10 22:18:22 +0100";
layers = (
{
layerId = "DAACF28A-601E-43F2-B3A2-D78749C87D22";
name = Bold;
paths = (
{
closed = 1;
nodes = (
"85 367 LINE",
"183 367 LINE",
"166 244 LINE",
"60 244 LINE",
"60 141 LINE",
"153 141 LINE",
"134 0 LINE",
"261 0 LINE",
"280 141 LINE",
"405 141 LINE",
"387 0 LINE",
"514 0 LINE",
"532 141 LINE",
"645 141 LINE",
"645 244 LINE",
"546 244 LINE",
"562 367 LINE",
"670 367 LINE",
"670 470 LINE",
"576 470 LINE",
"593 600 LINE",
"466 600 LINE",
"449 470 LINE",
"323 470 LINE",
"341 600 LINE",
"214 600 LINE",
"196 470 LINE",
"85 470 LINE"
);
},
{
closed = 1;
nodes = (
"310 367 LINE",
"435 367 LINE",
"419 244 LINE",
"293 244 LINE"
);
}
);
width = 730;
}
);
unicode = 0023;
},
{
glyphname = overline;
lastChange = "2014-11-10 22:18:22 +0100";
layers = (
{
layerId = "DAACF28A-601E-43F2-B3A2-D78749C87D22";
name = Bold;
paths = (
{
closed = 1;
nodes = (
"-2 616 LINE",
"468 616 LINE",
"468 711 LINE",
"-2 711 LINE"
);
}
);
width = 578;
}
);
unicode = 203E;
},
{
glyphname = period;
lastChange = "2014-11-10 22:18:22 +0100";
layers = (
{
layerId = "DAACF28A-601E-43F2-B3A2-D78749C87D22";
name = Bold;
paths = (
{
closed = 1;
nodes = (
"65 20 OFFCURVE",
"94 -13 OFFCURVE",
"149 -13 CURVE SMOOTH",
"194 -13 OFFCURVE",
"235 20 OFFCURVE",
"235 78 CURVE SMOOTH",
"235 135 OFFCURVE",
"206 168 OFFCURVE",
"151 168 CURVE SMOOTH",
"106 168 OFFCURVE",
"65 135 OFFCURVE",
"65 78 CURVE SMOOTH"
);
}
);
width = 300;
}
);
leftKerningGroup = period;
rightKerningGroup = period;
unicode = 002E;
},
{
glyphname = question;
lastChange = "2014-11-10 22:18:22 +0100";
layers = (
{
layerId = "DAACF28A-601E-43F2-B3A2-D78749C87D22";
name = Bold;
paths = (
{
closed = 1;
nodes = (
"94 20 OFFCURVE",
"122 -13 OFFCURVE",
"177 -13 CURVE SMOOTH",
"222 -13 OFFCURVE",
"264 20 OFFCURVE",
"264 78 CURVE SMOOTH",
"264 135 OFFCURVE",
"235 168 OFFCURVE",
"180 168 CURVE SMOOTH",
"135 168 OFFCURVE",
"94 135 OFFCURVE",
"94 78 CURVE SMOOTH"
);
},
{
closed = 1;
nodes = (
"236 253 LINE",
"236 253 OFFCURVE",
"234 287 OFFCURVE",
"234 311 CURVE SMOOTH",
"234 404 OFFCURVE",
"414 460 OFFCURVE",
"414 614 CURVE SMOOTH",
"414 732 OFFCURVE",
"314 769 OFFCURVE",
"214 769 CURVE SMOOTH",
"148 769 OFFCURVE",
"65 745 OFFCURVE",
"65 745 CURVE",
"84 641 LINE",
"84 641 OFFCURVE",
"130 652 OFFCURVE",
"173 652 CURVE SMOOTH",
"232 652 OFFCURVE",
"263 631 OFFCURVE",
"263 586 CURVE SMOOTH",
"263 494 OFFCURVE",
"94 442 OFFCURVE",
"94 345 CURVE SMOOTH",
"94 312 OFFCURVE",
"103 247 OFFCURVE",
"103 247 CURVE"
);
}
);
width = 464;
}
);
unicode = 003F;
},
{
glyphname = questiondown;
lastChange = "2014-11-10 22:18:22 +0100";
layers = (
{
layerId = "DAACF28A-601E-43F2-B3A2-D78749C87D22";
name = Bold;
paths = (
{
closed = 1;
nodes = (
"370 524 OFFCURVE",
"341 557 OFFCURVE",
"286 557 CURVE SMOOTH",
"241 557 OFFCURVE",
"200 524 OFFCURVE",
"200 466 CURVE SMOOTH",
"200 409 OFFCURVE",
"229 376 OFFCURVE",
"284 376 CURVE SMOOTH",
"329 376 OFFCURVE",
"370 409 OFFCURVE",
"370 466 CURVE SMOOTH"
);
},
{
closed = 1;
nodes = (
"228 291 LINE",
"228 291 OFFCURVE",
"230 257 OFFCURVE",
"230 233 CURVE SMOOTH",
"230 140 OFFCURVE",
"50 84 OFFCURVE",
"50 -70 CURVE SMOOTH",
"50 -188 OFFCURVE",
"150 -225 OFFCURVE",
"250 -225 CURVE SMOOTH",
"315 -225 OFFCURVE",
"399 -201 OFFCURVE",
"399 -201 CURVE",
"380 -97 LINE",
"380 -97 OFFCURVE",
"333 -108 OFFCURVE",
"291 -108 CURVE SMOOTH",
"231 -108 OFFCURVE",
"201 -87 OFFCURVE",
"201 -42 CURVE SMOOTH",
"201 50 OFFCURVE",
"369 102 OFFCURVE",
"369 199 CURVE SMOOTH",
"369 232 OFFCURVE",
"360 297 OFFCURVE",
"360 297 CURVE"
);
}
);
width = 461;
}
);
unicode = 00BF;
},
{
glyphname = quotedbl;
lastChange = "2014-11-10 22:18:22 +0100";
layers = (
{
layerId = "DAACF28A-601E-43F2-B3A2-D78749C87D22";
name = Bold;
paths = (
{
closed = 1;
nodes = (
"394 782 LINE",
"258 782 LINE",
"258 500 LINE",
"371 500 LINE"
);
},
{
closed = 1;
nodes = (
"192 782 LINE",
"57 782 LINE",
"57 500 LINE",
"170 500 LINE"
);
}
);
width = 441;
}
);
leftKerningGroup = quotesingle;
rightKerningGroup = quotesingle;
unicode = 0022;
},
{
glyphname = quotesingle;
lastChange = "2014-11-10 22:18:22 +0100";
layers = (
{
layerId = "DAACF28A-601E-43F2-B3A2-D78749C87D22";
name = Bold;
paths = (
{
closed = 1;
nodes = (
"190 782 LINE",
"55 782 LINE",
"55 500 LINE",
"168 500 LINE"
);
}
);
width = 240;
}
);
leftKerningGroup = quotesingle;
rightKerningGroup = quotesingle;
unicode = 0027;
},
{
glyphname = semicolon;
lastChange = "2014-11-10 22:18:22 +0100";
layers = (
{
layerId = "DAACF28A-601E-43F2-B3A2-D78749C87D22";
name = Bold;
paths = (
{
closed = 1;
nodes = (
"106 -185 LINE",
"198 -85 OFFCURVE",
"243 0 OFFCURVE",
"243 76 CURVE SMOOTH",
"243 136 OFFCURVE",
"210 168 OFFCURVE",
"160 168 CURVE SMOOTH",
"110 168 OFFCURVE",
"73 133 OFFCURVE",
"73 79 CURVE SMOOTH",
"73 32 OFFCURVE",
"102 15 OFFCURVE",
"102 -13 CURVE SMOOTH",
"102 -53 OFFCURVE",
"42 -133 OFFCURVE",
"42 -133 CURVE"
);
},
{
closed = 1;
nodes = (
"73 321 OFFCURVE",
"102 288 OFFCURVE",
"157 288 CURVE SMOOTH",
"202 288 OFFCURVE",
"243 321 OFFCURVE",
"243 378 CURVE SMOOTH",
"243 436 OFFCURVE",
"214 469 OFFCURVE",
"159 469 CURVE SMOOTH",
"114 469 OFFCURVE",
"73 436 OFFCURVE",
"73 378 CURVE SMOOTH"
);
}
);
width = 311;
}
);
leftKerningGroup = colon;
rightKerningGroup = colon;
unicode = 003B;
},
{
glyphname = slash;
lastChange = "2014-11-10 22:18:22 +0100";
layers = (
{
layerId = "DAACF28A-601E-43F2-B3A2-D78749C87D22";
name = Bold;
paths = (
{
closed = 1;
nodes = (
"20 0 LINE",
"172 0 LINE",
"506 705 LINE",
"353 705 LINE"
);
}
);
width = 516;
}
);
unicode = 002F;
},
{
glyphname = underscore;
lastChange = "2014-11-10 22:18:22 +0100";
layers = (
{
layerId = "DAACF28A-601E-43F2-B3A2-D78749C87D22";
name = Bold;
paths = (
{
closed = 1;
nodes = (
"-2 -180 LINE",
"498 -180 LINE",
"498 -80 LINE",
"-2 -80 LINE"
);
}
);
width = 496;
}
);
leftKerningGroup = period;
rightKerningGroup = period;
unicode = 005F;
},
{
glyphname = underscoredbl;
lastChange = "2014-11-10 22:18:22 +0100";
layers = (
{
layerId = "DAACF28A-601E-43F2-B3A2-D78749C87D22";
name = Bold;
paths = (
{
closed = 1;
nodes = (
"-2 -180 LINE",
"498 -180 LINE",
"498 -80 LINE",
"-2 -80 LINE"
);
},
{
closed = 1;
nodes = (
"-2 -365 LINE",
"498 -365 LINE",
"498 -265 LINE",
"-2 -265 LINE"
);
}
);
width = 496;
}
);
unicode = 2017;
},
{
glyphname = asterisk.alt;
lastChange = "2014-11-10 22:18:22 +0100";
layers = (
{
layerId = "DAACF28A-601E-43F2-B3A2-D78749C87D22";
name = Bold;
paths = (
{
closed = 1;
nodes = (
"387 621 LINE",
"335 708 LINE",
"240 633 LINE",
"258 744 LINE",
"154 745 LINE",
"172 633 LINE",
"77 708 LINE",
"27 618 LINE",
"137 576 LINE",
"25 530 LINE",
"77 442 LINE",
"172 518 LINE",
"154 408 LINE",
"258 408 LINE",
"239 518 LINE",
"337 441 LINE",
"387 529 LINE",
"277 575 LINE"
);
},
{
closed = 1;
nodes = (
"225 565 LINE",
"239 518 LINE",
"208 557 LINE",
"172 518 LINE",
"190 567 LINE",
"137 576 LINE",
"191 582 LINE",
"172 633 LINE",
"209 593 LINE",
"240 633 LINE",
"224 583 LINE",
"277 575 LINE"
);
}
);
width = 422;
}
);
},
{
glyphname = braceleft;
lastChange = "2014-11-10 22:18:22 +0100";
layers = (
{
layerId = "DAACF28A-601E-43F2-B3A2-D78749C87D22";
name = Bold;
paths = (
{
closed = 1;
nodes = (
"253 570 LINE",
"253 650 OFFCURVE",
"279 672 OFFCURVE",
"374 672 CURVE",
"374 775 LINE",
"307 775 LINE SMOOTH",
"187 775 OFFCURVE",
"125 721 OFFCURVE",
"125 590 CURVE SMOOTH",
"125 449 LINE SMOOTH",
"125 389 OFFCURVE",
"105 345 OFFCURVE",
"30 345 CURVE",
"30 245 LINE",
"105 245 OFFCURVE",
"125 201 OFFCURVE",
"125 141 CURVE SMOOTH",
"125 -13 LINE SMOOTH",
"125 -164 OFFCURVE",
"173 -225 OFFCURVE",
"307 -225 CURVE SMOOTH",
"374 -225 LINE",
"374 -122 LINE",
"279 -122 OFFCURVE",
"253 -100 OFFCURVE",
"253 -20 CURVE SMOOTH",
"253 153 LINE SMOOTH",
"253 225 OFFCURVE",
"220 272 OFFCURVE",
"161 295 CURVE",
"232 322 OFFCURVE",
"253 377 OFFCURVE",
"253 465 CURVE SMOOTH"
);
}
);
width = 404;
}
);
unicode = 007B;
},
{
glyphname = braceright;
lastChange = "2014-11-10 22:18:22 +0100";
layers = (
{
layerId = "DAACF28A-601E-43F2-B3A2-D78749C87D22";
name = Bold;
paths = (
{
closed = 1;
nodes = (
"160 436 LINE",
"160 364 OFFCURVE",
"194 318 OFFCURVE",
"253 295 CURVE",
"194 272 OFFCURVE",
"160 225 OFFCURVE",
"160 153 CURVE SMOOTH",
"160 -20 LINE SMOOTH",
"160 -100 OFFCURVE",
"135 -122 OFFCURVE",
"40 -122 CURVE",
"40 -225 LINE",
"106 -225 LINE SMOOTH",
"239 -225 OFFCURVE",
"289 -164 OFFCURVE",
"289 -13 CURVE SMOOTH",
"289 141 LINE SMOOTH",
"289 201 OFFCURVE",
"309 245 OFFCURVE",
"384 245 CURVE",
"384 345 LINE",
"309 345 OFFCURVE",
"289 389 OFFCURVE",
"289 449 CURVE SMOOTH",
"289 590 LINE SMOOTH",
"289 720 OFFCURVE",
"229 775 OFFCURVE",
"107 775 CURVE SMOOTH",
"40 775 LINE",
"40 672 LINE",
"135 672 OFFCURVE",
"160 650 OFFCURVE",
"160 570 CURVE SMOOTH"
);
}
);
width = 409;
}
);
unicode = 007D;
},
{
glyphname = bracketleft;
lastChange = "2014-11-10 22:18:22 +0100";
layers = (
{
layerId = "DAACF28A-601E-43F2-B3A2-D78749C87D22";
name = Bold;
paths = (
{
closed = 1;
nodes = (
"317 -123 LINE",
"198 -112 LINE",
"198 651 LINE",
"317 662 LINE",
"317 765 LINE",
"67 770 LINE",
"67 -230 LINE",
"317 -225 LINE"
);
}
);
width = 352;
}
);
leftKerningGroup = parenthesis;
rightKerningGroup = parenthesis;
unicode = 005B;
},
{
glyphname = bracketright;
lastChange = "2014-11-10 22:18:22 +0100";
layers = (
{
layerId = "DAACF28A-601E-43F2-B3A2-D78749C87D22";
name = Bold;
paths = (
{
closed = 1;
nodes = (
"32 -225 LINE",
"282 -230 LINE",
"282 770 LINE",
"32 765 LINE",
"32 662 LINE",
"152 651 LINE",
"152 -111 LINE",
"32 -122 LINE"
);
}
);
width = 352;
}
);
leftKerningGroup = parenthesis;
rightKerningGroup = parenthesis;
unicode = 005D;
},
{
glyphname = parenleft;
lastChange = "2014-11-10 22:18:22 +0100";
layers = (
{
layerId = "DAACF28A-601E-43F2-B3A2-D78749C87D22";
name = Bold;
paths = (
{
closed = 1;
nodes = (
"220 770 LINE",
"110 610 OFFCURVE",
"54 471 OFFCURVE",
"54 280 CURVE SMOOTH",
"54 76 OFFCURVE",
"107 -70 OFFCURVE",
"220 -230 CURVE",
"349 -230 LINE",
"252 -90 OFFCURVE",
"194 111 OFFCURVE",
"194 282 CURVE SMOOTH",
"194 441 OFFCURVE",
"255 625 OFFCURVE",
"350 770 CURVE"
);
}
);
width = 353;
}
);
leftKerningGroup = parenthesis;
rightKerningGroup = parenthesis;
unicode = 0028;
},
{
glyphname = parenright;
lastChange = "2014-11-10 22:18:22 +0100";
layers = (
{
layerId = "DAACF28A-601E-43F2-B3A2-D78749C87D22";
name = Bold;
paths = (
{
closed = 1;
nodes = (
"-1 770 LINE",
"94 625 OFFCURVE",
"155 441 OFFCURVE",
"155 282 CURVE SMOOTH",
"155 111 OFFCURVE",
"97 -90 OFFCURVE",
"0 -230 CURVE",
"129 -230 LINE",
"243 -70 OFFCURVE",
"295 76 OFFCURVE",
"295 280 CURVE SMOOTH",
"295 471 OFFCURVE",
"239 610 OFFCURVE",
"129 770 CURVE"
);
}
);
width = 350;
}
);
leftKerningGroup = parenthesis;
rightKerningGroup = parenthesis;
unicode = 0029;
},
{
glyphname = emdash;
lastChange = "2014-11-10 22:18:22 +0100";
layers = (
{
layerId = "DAACF28A-601E-43F2-B3A2-D78749C87D22";
name = Bold;
paths = (
{
closed = 1;
nodes = (
"0 267 LINE",
"970 267 LINE",
"970 385 LINE",
"0 385 LINE"
);
}
);
width = 970;
}
);
leftKerningGroup = hyphen;
rightKerningGroup = hyphen;
unicode = 2014;
},
{
glyphname = endash;
lastChange = "2014-11-10 22:18:22 +0100";
layers = (
{
layerId = "DAACF28A-601E-43F2-B3A2-D78749C87D22";
name = Bold;
paths = (
{
closed = 1;
nodes = (
"0 267 LINE",
"500 267 LINE",
"500 385 LINE",
"0 385 LINE"
);
}
);
width = 500;
}
);
leftKerningGroup = hyphen;
rightKerningGroup = hyphen;
unicode = 2013;
},
{
glyphname = horizontalbar;
lastChange = "2014-11-10 22:18:22 +0100";
layers = (
{
layerId = "DAACF28A-601E-43F2-B3A2-D78749C87D22";
name = Bold;
paths = (
{
closed = 1;
nodes = (
"0 267 LINE",
"970 267 LINE",
"970 385 LINE",
"0 385 LINE"
);
}
);
width = 970;
}
);
unicode = 2015;
},
{
glyphname = hyphen;
lastChange = "2014-11-10 22:18:22 +0100";
layers = (
{
layerId = "DAACF28A-601E-43F2-B3A2-D78749C87D22";
name = Bold;
paths = (
{
closed = 1;
nodes = (
"55 210 LINE",
"340 210 LINE",
"340 335 LINE",
"55 335 LINE"
);
}
);
width = 395;
}
);
leftKerningGroup = hyphen;
rightKerningGroup = hyphen;
unicode = 002D;
},
{
glyphname = softhyphen;
lastChange = "2014-11-10 22:18:22 +0100";
layers = (
{
layerId = "DAACF28A-601E-43F2-B3A2-D78749C87D22";
name = Bold;
paths = (
{
closed = 1;
nodes = (
"55 210 LINE",
"340 210 LINE",
"340 335 LINE",
"55 335 LINE"
);
}
);
width = 395;
}
);
unicode = 00AD;
},
{
glyphname = guillemotleft;
lastChange = "2014-11-10 22:18:22 +0100";
layers = (
{
layerId = "DAACF28A-601E-43F2-B3A2-D78749C87D22";
name = Bold;
paths = (
{
closed = 1;
nodes = (
"431 265 LINE",
"544 425 LINE",
"461 480 LINE",
"305 303 LINE",
"305 226 LINE",
"461 49 LINE",
"544 105 LINE"
);
},
{
closed = 1;
nodes = (
"181 265 LINE",
"290 425 LINE",
"207 480 LINE",
"55 303 LINE",
"55 226 LINE",
"207 49 LINE",
"290 105 LINE"
);
}
);
width = 599;
}
);
unicode = 00AB;
},
{
glyphname = guillemotright;
lastChange = "2014-11-10 22:18:22 +0100";
layers = (
{
layerId = "DAACF28A-601E-43F2-B3A2-D78749C87D22";
name = Bold;
paths = (
{
closed = 1;
nodes = (
"55 105 LINE",
"138 49 LINE",
"294 226 LINE",
"294 303 LINE",
"138 480 LINE",
"55 425 LINE",
"168 265 LINE"
);
},
{
closed = 1;
nodes = (
"309 105 LINE",
"392 49 LINE",
"544 226 LINE",
"544 303 LINE",
"392 480 LINE",
"309 425 LINE",
"418 265 LINE"
);
}
);
width = 599;
}
);
unicode = 00BB;
},
{
glyphname = guilsinglleft;
lastChange = "2014-11-10 22:18:22 +0100";
layers = (
{
layerId = "DAACF28A-601E-43F2-B3A2-D78749C87D22";
name = Bold;
paths = (
{
closed = 1;
nodes = (
"176 265 LINE",
"289 425 LINE",
"206 480 LINE",
"50 303 LINE",
"50 226 LINE",
"206 49 LINE",
"289 105 LINE"
);
}
);
width = 339;
}
);
leftKerningGroup = guillemotleft;
unicode = 2039;
},
{
glyphname = guilsinglright;
lastChange = "2014-11-10 22:18:22 +0100";
layers = (
{
layerId = "DAACF28A-601E-43F2-B3A2-D78749C87D22";
name = Bold;
paths = (
{
closed = 1;
nodes = (
"55 105 LINE",
"138 49 LINE",
"294 226 LINE",
"294 303 LINE",
"138 480 LINE",
"55 425 LINE",
"168 265 LINE"
);
}
);
width = 339;
}
);
rightKerningGroup = guillemotright;
unicode = 203A;
},
{
glyphname = quotedblbase;
lastChange = "2014-11-10 22:18:22 +0100";
layers = (
{
layerId = "DAACF28A-601E-43F2-B3A2-D78749C87D22";
name = Bold;
paths = (
{
closed = 1;
nodes = (
"111 -210 LINE",
"203 -110 OFFCURVE",
"248 -25 OFFCURVE",
"248 51 CURVE SMOOTH",
"248 111 OFFCURVE",
"215 143 OFFCURVE",
"165 143 CURVE SMOOTH",
"115 143 OFFCURVE",
"78 108 OFFCURVE",
"78 54 CURVE SMOOTH",
"78 7 OFFCURVE",
"107 -10 OFFCURVE",
"107 -38 CURVE SMOOTH",
"107 -78 OFFCURVE",
"47 -158 OFFCURVE",
"47 -158 CURVE"
);
},
{
closed = 1;
nodes = (
"343 -210 LINE",
"436 -110 OFFCURVE",
"481 -25 OFFCURVE",
"481 51 CURVE SMOOTH",
"481 111 OFFCURVE",
"447 143 OFFCURVE",
"397 143 CURVE SMOOTH",
"348 143 OFFCURVE",
"311 108 OFFCURVE",
"311 54 CURVE SMOOTH",
"311 7 OFFCURVE",
"340 -10 OFFCURVE",
"340 -38 CURVE SMOOTH",
"340 -78 OFFCURVE",
"280 -158 OFFCURVE",
"280 -158 CURVE"
);
}
);
width = 543;
}
);
leftKerningGroup = period;
rightKerningGroup = period;
unicode = 201E;
},
{
glyphname = quotedblleft;
lastChange = "2014-11-10 22:18:22 +0100";
layers = (
{
layerId = "DAACF28A-601E-43F2-B3A2-D78749C87D22";
name = Bold;
paths = (
{
closed = 1;
nodes = (
"463 571 OFFCURVE",
"434 588 OFFCURVE",
"434 615 CURVE SMOOTH",
"434 656 OFFCURVE",
"494 736 OFFCURVE",
"494 736 CURVE",
"430 787 LINE",
"338 687 OFFCURVE",
"293 602 OFFCURVE",
"293 527 CURVE SMOOTH",
"293 466 OFFCURVE",
"326 434 OFFCURVE",
"376 434 CURVE SMOOTH",
"426 434 OFFCURVE",
"463 469 OFFCURVE",
"463 523 CURVE SMOOTH"
);
},
{
closed = 1;
nodes = (
"230 571 OFFCURVE",
"201 588 OFFCURVE",
"201 615 CURVE SMOOTH",
"201 656 OFFCURVE",
"261 736 OFFCURVE",
"261 736 CURVE",
"198 787 LINE",
"105 687 OFFCURVE",
"60 602 OFFCURVE",
"60 527 CURVE SMOOTH",
"60 466 OFFCURVE",
"94 434 OFFCURVE",
"144 434 CURVE SMOOTH",
"193 434 OFFCURVE",
"230 469 OFFCURVE",
"230 523 CURVE SMOOTH"
);
}
);
width = 544;
}
);
leftKerningGroup = quotesingle;
rightKerningGroup = quotesingle;
unicode = 201C;
},
{
glyphname = quotedblright;
lastChange = "2014-11-10 22:18:22 +0100";
layers = (
{
layerId = "DAACF28A-601E-43F2-B3A2-D78749C87D22";
name = Bold;
paths = (
{
closed = 1;
nodes = (
"114 434 LINE",
"206 534 OFFCURVE",
"251 619 OFFCURVE",
"251 695 CURVE SMOOTH",
"251 755 OFFCURVE",
"218 787 OFFCURVE",
"168 787 CURVE SMOOTH",
"118 787 OFFCURVE",
"81 752 OFFCURVE",
"81 698 CURVE SMOOTH",
"81 651 OFFCURVE",
"110 634 OFFCURVE",
"110 606 CURVE SMOOTH",
"110 566 OFFCURVE",
"50 486 OFFCURVE",
"50 486 CURVE"
);
},
{
closed = 1;
nodes = (
"346 434 LINE",
"439 534 OFFCURVE",
"484 619 OFFCURVE",
"484 695 CURVE SMOOTH",
"484 755 OFFCURVE",
"450 787 OFFCURVE",
"400 787 CURVE SMOOTH",
"351 787 OFFCURVE",
"314 752 OFFCURVE",
"314 698 CURVE SMOOTH",
"314 651 OFFCURVE",
"343 634 OFFCURVE",
"343 606 CURVE SMOOTH",
"343 566 OFFCURVE",
"283 486 OFFCURVE",
"283 486 CURVE"
);
}
);
width = 544;
}
);
leftKerningGroup = quotesingle;
rightKerningGroup = quotesingle;
unicode = 201D;
},
{
glyphname = quoteleft;
lastChange = "2014-11-10 22:18:22 +0100";
layers = (
{
layerId = "DAACF28A-601E-43F2-B3A2-D78749C87D22";
name = Bold;
paths = (
{
closed = 1;
nodes = (
"230 571 OFFCURVE",
"201 588 OFFCURVE",
"201 615 CURVE SMOOTH",
"201 656 OFFCURVE",
"261 736 OFFCURVE",
"261 736 CURVE",
"198 787 LINE",
"105 687 OFFCURVE",
"60 602 OFFCURVE",
"60 527 CURVE SMOOTH",
"60 466 OFFCURVE",
"94 434 OFFCURVE",
"144 434 CURVE SMOOTH",
"193 434 OFFCURVE",
"230 469 OFFCURVE",
"230 523 CURVE SMOOTH"
);
}
);
width = 311;
}
);
leftKerningGroup = quotesingle;
rightKerningGroup = quotesingle;
unicode = 2018;
},
{
glyphname = quotereversed;
lastChange = "2014-11-10 22:18:22 +0100";
layers = (
{
layerId = "DAACF28A-601E-43F2-B3A2-D78749C87D22";
name = Bold;
paths = (
{
closed = 1;
nodes = (
"230 752 OFFCURVE",
"193 787 OFFCURVE",
"144 787 CURVE SMOOTH",
"94 787 OFFCURVE",
"60 755 OFFCURVE",
"60 694 CURVE SMOOTH",
"60 619 OFFCURVE",
"105 534 OFFCURVE",
"198 434 CURVE",
"261 485 LINE",
"261 485 OFFCURVE",
"201 565 OFFCURVE",
"201 606 CURVE SMOOTH",
"201 633 OFFCURVE",
"230 650 OFFCURVE",
"230 698 CURVE SMOOTH"
);
}
);
width = 311;
}
);
unicode = 201B;
},
{
glyphname = quoteright;
lastChange = "2014-11-10 22:18:22 +0100";
layers = (
{
layerId = "DAACF28A-601E-43F2-B3A2-D78749C87D22";
name = Bold;
paths = (
{
closed = 1;
nodes = (
"114 434 LINE",
"206 534 OFFCURVE",
"251 619 OFFCURVE",
"251 695 CURVE SMOOTH",
"251 755 OFFCURVE",
"218 787 OFFCURVE",
"168 787 CURVE SMOOTH",
"118 787 OFFCURVE",
"81 752 OFFCURVE",
"81 698 CURVE SMOOTH",
"81 651 OFFCURVE",
"110 634 OFFCURVE",
"110 606 CURVE SMOOTH",
"110 566 OFFCURVE",
"50 486 OFFCURVE",
"50 486 CURVE"
);
}
);
width = 311;
}
);
leftKerningGroup = quotesingle;
rightKerningGroup = quotesingle;
unicode = 2019;
},
{
glyphname = quotesinglbase;
lastChange = "2014-11-10 22:18:22 +0100";
layers = (
{
layerId = "DAACF28A-601E-43F2-B3A2-D78749C87D22";
name = Bold;
paths = (
{
closed = 1;
nodes = (
"111 -210 LINE",
"203 -110 OFFCURVE",
"248 -25 OFFCURVE",
"248 51 CURVE SMOOTH",
"248 111 OFFCURVE",
"215 143 OFFCURVE",
"165 143 CURVE SMOOTH",
"115 143 OFFCURVE",
"78 108 OFFCURVE",
"78 54 CURVE SMOOTH",
"78 7 OFFCURVE",
"107 -10 OFFCURVE",
"107 -38 CURVE SMOOTH",
"107 -78 OFFCURVE",
"47 -158 OFFCURVE",
"47 -158 CURVE"
);
}
);
width = 311;
}
);
leftKerningGroup = period;
rightKerningGroup = period;
unicode = 201A;
},
{
glyphname = florin;
lastChange = "2014-11-10 22:18:22 +0100";
layers = (
{
layerId = "DAACF28A-601E-43F2-B3A2-D78749C87D22";
name = Bold;
paths = (
{
closed = 1;
nodes = (
"118 465 LINE",
"28 450 LINE",
"27 365 LINE",
"109 365 LINE",
"76 6 LINE SMOOTH",
"70 -59 OFFCURVE",
"53 -90 OFFCURVE",
"-12 -90 CURVE SMOOTH",
"-54 -90 LINE",
"-67 -194 LINE",
"-67 -194 OFFCURVE",
"-19 -200 OFFCURVE",
"7 -200 CURVE SMOOTH",
"152 -200 OFFCURVE",
"213 -115 OFFCURVE",
"227 29 CURVE SMOOTH",
"259 365 LINE",
"395 365 LINE",
"398 465 LINE",
"267 465 LINE",
"277 574 LINE SMOOTH",
"283 639 OFFCURVE",
"300 670 OFFCURVE",
"365 670 CURVE SMOOTH",
"430 670 LINE",
"440 774 LINE",
"440 774 OFFCURVE",
"381 780 OFFCURVE",
"346 780 CURVE SMOOTH",
"201 780 OFFCURVE",
"139 696 OFFCURVE",
"126 551 CURVE SMOOTH"
);
}
);
width = 440;
}
);
unicode = 0192;
},
{
glyphname = cent;
lastChange = "2014-11-10 22:18:22 +0100";
layers = (
{
layerId = "DAACF28A-601E-43F2-B3A2-D78749C87D22";
name = Bold;
paths = (
{
closed = 1;
nodes = (
"331 0 LINE",
"331 108 LINE",
"408 120 OFFCURVE",
"468 168 OFFCURVE",
"485 183 CURVE",
"436 261 LINE",
"408 245 OFFCURVE",
"367 215 OFFCURVE",
"304 215 CURVE SMOOTH",
"222 215 OFFCURVE",
"185 271 OFFCURVE",
"185 372 CURVE SMOOTH",
"185 466 OFFCURVE",
"227 505 OFFCURVE",
"297 505 CURVE SMOOTH",
"332 505 OFFCURVE",
"361 497 OFFCURVE",
"361 497 CURVE",
"375 428 LINE",
"460 428 LINE",
"465 580 LINE",
"465 580 OFFCURVE",
"402 608 OFFCURVE",
"331 614 CURVE",
"331 705 LINE",
"223 705 LINE",
"223 608 LINE",
"101 582 OFFCURVE",
"38 487 OFFCURVE",
"38 353 CURVE SMOOTH",
"38 222 OFFCURVE",
"103 132 OFFCURVE",
"223 110 CURVE",
"223 0 LINE"
);
}
);
width = 510;
}
);
unicode = 00A2;
},
{
glyphname = currency;
lastChange = "2014-11-10 22:18:22 +0100";
layers = (
{
layerId = "DAACF28A-601E-43F2-B3A2-D78749C87D22";
name = Bold;
paths = (
{
closed = 1;
nodes = (
"105 257 OFFCURVE",
"113 222 OFFCURVE",
"127 192 CURVE",
"51 117 LINE",
"126 37 LINE",
"201 112 LINE",
"231 94 OFFCURVE",
"269 85 OFFCURVE",
"312 85 CURVE SMOOTH",
"352 85 OFFCURVE",
"388 95 OFFCURVE",
"419 113 CURVE",
"498 35 LINE",
"573 114 LINE",
"495 191 LINE",
"513 223 OFFCURVE",
"523 260 OFFCURVE",
"523 302 CURVE SMOOTH",
"523 342 OFFCURVE",
"514 377 OFFCURVE",
"498 407 CURVE",
"572 481 LINE",
"498 561 LINE",
"421 485 LINE",
"392 500 OFFCURVE",
"356 510 OFFCURVE",
"317 510 CURVE SMOOTH",
"275 510 OFFCURVE",
"238 498 OFFCURVE",
"206 480 CURVE",
"126 560 LINE",
"52 480 LINE",
"131 400 LINE",
"114 370 OFFCURVE",
"105 335 OFFCURVE",
"105 296 CURVE SMOOTH"
);
},
{
closed = 1;
nodes = (
"227 365 OFFCURVE",
"255 403 OFFCURVE",
"314 403 CURVE SMOOTH",
"374 403 OFFCURVE",
"402 365 OFFCURVE",
"402 298 CURVE SMOOTH",
"402 229 OFFCURVE",
"375 189 OFFCURVE",
"314 189 CURVE SMOOTH",
"253 189 OFFCURVE",
"227 229 OFFCURVE",
"227 298 CURVE SMOOTH"
);
}
);
width = 624;
}
);
unicode = 00A4;
},
{
glyphname = dollar;
lastChange = "2014-11-10 22:18:22 +0100";
layers = (
{
layerId = "DAACF28A-601E-43F2-B3A2-D78749C87D22";
name = Bold;
paths = (
{
closed = 1;
nodes = (
"332 -146 LINE",
"332 -5 LINE",
"435 17 OFFCURVE",
"507 86 OFFCURVE",
"507 198 CURVE SMOOTH",
"507 415 OFFCURVE",
"202 371 OFFCURVE",
"202 477 CURVE SMOOTH",
"202 513 OFFCURVE",
"235 540 OFFCURVE",
"299 540 CURVE SMOOTH",
"337 540 OFFCURVE",
"379 525 OFFCURVE",
"379 525 CURVE",
"398 451 LINE",
"484 451 LINE",
"488 615 LINE",
"488 615 OFFCURVE",
"418 644 OFFCURVE",
"332 651 CURVE",
"332 765 LINE",
"225 765 LINE",
"225 647 LINE",
"125 628 OFFCURVE",
"55 564 OFFCURVE",
"55 460 CURVE SMOOTH",
"55 232 OFFCURVE",
"361 283 OFFCURVE",
"361 176 CURVE SMOOTH",
"361 128 OFFCURVE",
"309 105 OFFCURVE",
"249 105 CURVE SMOOTH",
"196 105 OFFCURVE",
"162 123 OFFCURVE",
"162 123 CURVE",
"147 198 LINE",
"55 198 LINE",
"55 21 LINE",
"55 21 OFFCURVE",
"133 -6 OFFCURVE",
"225 -11 CURVE",
"225 -146 LINE"
);
}
);
width = 552;
}
);
unicode = 0024;
},
{
glyphname = euro;
lastChange = "2014-11-10 22:18:22 +0100";
layers = (
{
layerId = "DAACF28A-601E-43F2-B3A2-D78749C87D22";
name = Bold;
paths = (
{
closed = 1;
nodes = (
"489 510 LINE",
"582 510 LINE",
"587 675 LINE",
"587 675 OFFCURVE",
"491 717 OFFCURVE",
"385 717 CURVE SMOOTH",
"198 717 OFFCURVE",
"122 589 OFFCURVE",
"99 464 CURVE",
"27 464 LINE",
"27 374 LINE",
"457 374 LINE",
"457 464 LINE",
"258 464 LINE",
"258 464 OFFCURVE",
"271 595 OFFCURVE",
"380 595 CURVE SMOOTH",
"435 595 OFFCURVE",
"473 580 OFFCURVE",
"473 580 CURVE"
);
},
{
closed = 1;
nodes = (
"27 221 LINE",
"102 221 LINE",
"119 132 OFFCURVE",
"174 -12 OFFCURVE",
"370 -12 CURVE SMOOTH",
"513 -12 OFFCURVE",
"607 85 OFFCURVE",
"607 85 CURVE",
"552 173 LINE",
"552 173 OFFCURVE",
"477 116 OFFCURVE",
"392 116 CURVE SMOOTH",
"300 116 OFFCURVE",
"274 190 OFFCURVE",
"265 221 CURVE",
"457 221 LINE",
"457 311 LINE",
"27 311 LINE"
);
}
);
width = 637;
}
);
unicode = 20AC;
},
{
glyphname = franc;
lastChange = "2014-11-10 22:18:22 +0100";
layers = (
{
guideLines = (
{
angle = 90;
position = "{45, 365}";
}
);
layerId = "DAACF28A-601E-43F2-B3A2-D78749C87D22";
name = Bold;
paths = (
{
closed = 1;
nodes = (
"367 85 LINE",
"275 115 LINE",
"275 310 LINE",
"477 310 LINE",
"477 420 LINE",
"275 420 LINE",
"275 585 LINE",
"437 585 LINE",
"462 515 LINE",
"555 515 LINE",
"555 705 LINE",
"275 705 LINE",
"45 700 LINE",
"45 615 LINE",
"120 585 LINE",
"120 115 LINE",
"45 85 LINE",
"45 0 LINE",
"367 0 LINE"
);
},
{
closed = 1;
nodes = (
"45 164 LINE",
"403 164 LINE SMOOTH",
"403 259 LINE",
"45 259 LINE"
);
}
);
width = 600;
}
);
unicode = 20A3;
},
{
glyphname = lira;
lastChange = "2014-11-10 22:18:22 +0100";
layers = (
{
guideLines = (
{
angle = 90;
position = "{60, 156}";
}
);
layerId = "DAACF28A-601E-43F2-B3A2-D78749C87D22";
name = Bold;
paths = (
{
closed = 1;
nodes = (
"60 374 LINE",
"436 374 LINE",
"436 464 LINE",
"60 464 LINE"
);
},
{
closed = 1;
nodes = (
"436 311 LINE",
"60 311 LINE",
"60 221 LINE",
"436 221 LINE"
);
},
{
closed = 1;
nodes = (
"292 430 LINE",
"291 450 OFFCURVE",
"290 471 OFFCURVE",
"290 493 CURVE SMOOTH",
"290 512 LINE SMOOTH",
"290 564 OFFCURVE",
"313 600 OFFCURVE",
"372 600 CURVE SMOOTH",
"420 600 OFFCURVE",
"457 594 OFFCURVE",
"457 594 CURVE",
"477 519 LINE",
"567 519 LINE",
"567 682 LINE",
"567 682 OFFCURVE",
"483 717 OFFCURVE",
"355 717 CURVE SMOOTH",
"205 717 OFFCURVE",
"142 635 OFFCURVE",
"142 510 CURVE SMOOTH",
"142 482 OFFCURVE",
"143 455 OFFCURVE",
"145 427 CURVE"
);
},
{
closed = 1;
nodes = (
"152 300 LINE",
"154 259 OFFCURVE",
"157 241 OFFCURVE",
"157 207 CURVE SMOOTH",
"157 145 OFFCURVE",
"150 119 OFFCURVE",
"110 104 CURVE SMOOTH",
"60 85 LINE",
"60 0 LINE",
"570 0 LINE",
"570 220 LINE",
"477 220 LINE",
"454 120 LINE",
"268 120 LINE",
"277 128 OFFCURVE",
"305 159 OFFCURVE",
"305 222 CURVE SMOOTH",
"305 251 OFFCURVE",
"303 265 OFFCURVE",
"300 300 CURVE"
);
}
);
width = 625;
}
);
unicode = 20A4;
},
